<svg width="13" height="13" viewBox="0 0 13 13" fill="none" xmlns="http://www.w3.org/2000/svg">
<g id="5iA3XytbXUOFvYMJHKaD0WoEiOQ.svg" clip-path="url(#clip0_1_290)">
<g id="Clip path group">
<mask id="mask0_1_290" style="mask-type:luminance" maskUnits="userSpaceOnUse" x="0" y="0" width="13" height="13">
<g id="a">
<path id="Vector" d="M0.480003 0.629883H12.48V12.6299H0.480003V0.629883Z" fill="white"/>
</g>
</mask>
<g mask="url(#mask0_1_290)">
<g id="Group">
<path id="Vector_2" d="M11.476 11.2139C11.4724 11.2698 11.4644 11.3253 11.452 11.3799C11.3444 11.7409 11.1232 12.0575 10.8212 12.2827C10.5192 12.5079 10.1527 12.6297 9.776 12.6299H3.6C3.84 12.2719 3.98 11.8419 3.98 11.3799C3.98 10.6899 4.54 10.1299 5.23 10.1299H10.479C11.064 10.1299 11.529 10.6319 11.475 11.2139H11.476ZM8.13 6.55188L9.484 5.64588L10.861 6.54188C10.9478 6.59843 11.05 6.62664 11.1534 6.62261C11.2569 6.61858 11.3566 6.58251 11.4387 6.5194C11.5208 6.45628 11.5813 6.36922 11.6118 6.27025C11.6423 6.17127 11.6413 6.06527 11.609 5.96688L11.119 4.47688L12.302 3.51288C12.3803 3.4468 12.4363 3.35828 12.4626 3.25929C12.4889 3.1603 12.4842 3.05562 12.4491 2.95941C12.4139 2.8632 12.3501 2.7801 12.2662 2.72134C12.1823 2.66258 12.0824 2.63101 11.98 2.63088H10.48L9.948 1.13988C9.91258 1.04403 9.84864 0.961329 9.76478 0.902921C9.68093 0.844513 9.58119 0.8132 9.479 0.8132C9.37681 0.8132 9.27708 0.844513 9.19322 0.902921C9.10937 0.961329 9.04543 1.04403 9.01 1.13988L8.482 2.62988H6.98C6.87796 2.63028 6.77848 2.66189 6.69493 2.72048C6.61137 2.77906 6.54774 2.8618 6.51258 2.95759C6.47742 3.05339 6.47241 3.15765 6.49823 3.25638C6.52404 3.3551 6.57945 3.44356 6.657 3.50988L7.846 4.47788L7.375 5.98488C7.34414 6.08365 7.34463 6.18955 7.37638 6.28804C7.40814 6.38652 7.46961 6.47276 7.55235 6.5349C7.6351 6.59704 7.73505 6.63203 7.83848 6.63507C7.94192 6.63811 8.04375 6.60905 8.13 6.55188ZM9.98 8.09488V9.12988H5.23C4.63308 9.13041 4.06079 9.36791 3.63889 9.79018C3.21699 10.2125 2.98 10.785 2.98 11.3819C2.97981 11.559 2.94198 11.7341 2.86901 11.8955C2.79605 12.0569 2.68961 12.2009 2.55677 12.3181C2.42392 12.4352 2.26769 12.5228 2.09843 12.575C1.92918 12.6272 1.75076 12.6428 1.575 12.6209C0.935003 12.5439 0.480003 11.9549 0.480003 11.3099V3.12688C0.480003 1.74688 1.6 0.629883 2.98 0.629883H7.545C6.74306 1.07436 6.11765 1.78024 5.773 2.62988H2.98C2.8474 2.62988 2.72022 2.68256 2.62645 2.77633C2.53268 2.8701 2.48 2.99727 2.48 3.12988C2.48 3.26249 2.53268 3.38967 2.62645 3.48344C2.72022 3.5772 2.8474 3.62988 2.98 3.62988H5.515C5.494 3.79388 5.48 3.95988 5.48 4.12988C5.48 4.29988 5.494 4.46588 5.515 4.62988H2.98C2.8474 4.62988 2.72022 4.68256 2.62645 4.77633C2.53268 4.8701 2.48 4.99727 2.48 5.12988C2.48 5.26249 2.53268 5.38967 2.62645 5.48344C2.72022 5.5772 2.8474 5.62988 2.98 5.62988H5.773C6.07161 6.36843 6.584 7.00095 7.24446 7.44637C7.90493 7.89179 8.68338 8.1298 9.48 8.12988C9.65 8.12988 9.816 8.11588 9.98 8.09488ZM5.98 7.12988C5.98 6.99727 5.92732 6.8701 5.83356 6.77633C5.73979 6.68256 5.61261 6.62988 5.48 6.62988H2.98C2.8474 6.62988 2.72022 6.68256 2.62645 6.77633C2.53268 6.8701 2.48 6.99727 2.48 7.12988C2.48 7.26249 2.53268 7.38967 2.62645 7.48344C2.72022 7.5772 2.8474 7.62988 2.98 7.62988H5.48C5.61261 7.62988 5.73979 7.5772 5.83356 7.48344C5.92732 7.38967 5.98 7.26249 5.98 7.12988Z" fill="white"/>
</g>
</g>
</g>
</g>
<defs>
<clipPath id="clip0_1_290">
<rect width="12" height="12" fill="white" transform="translate(0.480003 0.629883)"/>
</clipPath>
</defs>
</svg>
