<svg width="13" height="13" viewBox="0 0 13 13" fill="none" xmlns="http://www.w3.org/2000/svg">
<g id="d6QXu7gFkqItj8CF8Eq3RNkzg.svg" clip-path="url(#clip0_1_370)">
<g id="Clip path group">
<mask id="mask0_1_370" style="mask-type:luminance" maskUnits="userSpaceOnUse" x="0" y="0" width="13" height="13">
<g id="a">
<path id="Vector" d="M0.160004 0.629883H12.16V12.6299H0.160004V0.629883Z" fill="white"/>
</g>
</mask>
<g mask="url(#mask0_1_370)">
<g id="Group">
<path id="Vector_2" d="M12.11 6.34769C11.9136 4.83535 11.1486 3.45457 9.97059 2.48602C8.7926 1.51747 7.28999 1.03384 5.7682 1.13342C4.24642 1.23301 2.81965 1.90834 1.77793 3.02215C0.736207 4.13595 0.157703 5.60465 0.160009 7.12969C0.15719 7.94598 0.32268 8.75409 0.646145 9.50357C0.969611 10.253 1.44411 10.9278 2.04001 11.4857C2.49568 11.9076 3.09609 12.1381 3.71701 12.1297H8.60001C9.25623 12.1312 9.88669 11.8744 10.355 11.4147C11.0223 10.7654 11.5285 9.96902 11.8332 9.08924C12.1379 8.20946 12.2327 7.27062 12.11 6.34769ZM3.89601 10.4597C3.85262 10.509 3.79994 10.5493 3.74097 10.5783C3.682 10.6073 3.6179 10.6243 3.55233 10.6285C3.48677 10.6327 3.42102 10.6239 3.35885 10.6026C3.29668 10.5814 3.23931 10.5481 3.19001 10.5047C2.4279 9.83776 1.91327 8.93306 1.7295 7.93715C1.54573 6.94124 1.70357 5.91246 2.17746 5.01745C2.65135 4.12244 3.41352 3.41364 4.34052 3.00586C5.26752 2.59809 6.30504 2.51522 7.28501 2.77069C7.3487 2.7871 7.40853 2.8159 7.46109 2.85544C7.51366 2.89498 7.55791 2.94448 7.59134 3.00113C7.62477 3.05777 7.64672 3.12044 7.65593 3.18557C7.66513 3.25069 7.66142 3.31699 7.64501 3.38069C7.62859 3.44438 7.59979 3.50421 7.56025 3.55677C7.52072 3.60933 7.47121 3.65359 7.41457 3.68702C7.35792 3.72045 7.29525 3.7424 7.23012 3.7516C7.165 3.76081 7.0987 3.7571 7.03501 3.74069C6.27358 3.5436 5.46794 3.60895 4.74823 3.92618C4.02852 4.24342 3.43677 4.79402 3.06857 5.48904C2.70037 6.18405 2.57722 6.9829 2.71901 7.75654C2.8608 8.53018 3.25926 9.23343 3.85001 9.75269C3.89935 9.79607 3.93965 9.84875 3.96862 9.90772C3.99758 9.96669 4.01464 10.0308 4.01882 10.0964C4.023 10.1619 4.01422 10.2277 3.99297 10.2898C3.97173 10.352 3.93844 10.4094 3.89501 10.4587L3.89601 10.4597ZM6.16001 8.12969C6.01667 8.13158 5.87459 8.10263 5.74342 8.0448C5.61225 7.98697 5.49504 7.90161 5.39975 7.79452C5.30445 7.68742 5.2333 7.56109 5.19111 7.42409C5.14892 7.28708 5.13668 7.14261 5.15521 7.00046C5.17375 6.85831 5.22264 6.7218 5.29855 6.6002C5.37447 6.4786 5.47564 6.37474 5.59522 6.29566C5.71479 6.21659 5.84997 6.16415 5.99158 6.1419C6.1332 6.11964 6.27795 6.1281 6.41601 6.16669L8.30601 4.27669C8.35207 4.22887 8.40718 4.19071 8.46815 4.16442C8.52911 4.13813 8.5947 4.12425 8.66109 4.12358C8.72747 4.12291 8.79333 4.13547 8.85481 4.16052C8.91629 4.18558 8.97217 4.22262 9.01918 4.2695C9.06619 4.31638 9.10339 4.37215 9.12862 4.43356C9.15385 4.49497 9.16659 4.56079 9.16611 4.62718C9.16563 4.69356 9.15193 4.75919 9.12582 4.82023C9.0997 4.88127 9.06169 4.93649 9.01401 4.98269L7.12301 6.87269C7.16488 7.02063 7.17165 7.17631 7.14277 7.32734C7.11389 7.47836 7.05016 7.62056 6.95665 7.74262C6.86314 7.86468 6.74243 7.96323 6.60413 8.03042C6.46583 8.09762 6.31376 8.13161 6.16001 8.12969ZM9.13001 10.5047C9.03004 10.5886 8.90121 10.6301 8.77106 10.6203C8.6409 10.6105 8.51973 10.5502 8.43343 10.4523C8.34712 10.3544 8.30253 10.2266 8.30918 10.0963C8.31583 9.96591 8.37319 9.84332 8.46901 9.75469C8.95511 9.32825 9.31341 8.77534 9.50407 8.15745C9.69473 7.53956 9.71029 6.88089 9.54901 6.25469C9.51586 6.12606 9.53516 5.98952 9.60267 5.87513C9.67019 5.76073 9.78038 5.67784 9.90901 5.64469C10.0376 5.61153 10.1742 5.63084 10.2886 5.69835C10.403 5.76586 10.4859 5.87606 10.519 6.00469C10.7258 6.80978 10.7056 7.65643 10.4606 8.45074C10.2156 9.24505 9.75441 9.95598 9.13001 10.5047Z" fill="white"/>
</g>
</g>
</g>
</g>
<defs>
<clipPath id="clip0_1_370">
<rect width="12" height="12" fill="white" transform="translate(0.160004 0.629883)"/>
</clipPath>
</defs>
</svg>
