<svg width="13" height="13" viewBox="0 0 13 13" fill="none" xmlns="http://www.w3.org/2000/svg">
<g id="djKcn13yGYUm8wEz5giJWalc69k.svg" clip-path="url(#clip0_1_348)">
<g id="Clip path group">
<mask id="mask0_1_348" style="mask-type:luminance" maskUnits="userSpaceOnUse" x="0" y="0" width="13" height="13">
<g id="a">
<path id="Vector" d="M0.160004 0.629883H12.16V12.6299H0.160004V0.629883Z" fill="white"/>
</g>
</mask>
<g mask="url(#mask0_1_348)">
<g id="Group">
<path id="Vector_2" d="M12.056 9.62988C11.939 10.0229 11.726 10.3839 11.427 10.6829L10.213 11.8969C9.91977 12.1916 9.55742 12.4082 9.159 12.5269V10.1299C9.159 9.99727 9.21168 9.8701 9.30545 9.77633C9.39922 9.68256 9.52639 9.62988 9.659 9.62988H12.056ZM12.16 3.12988V8.62988H9.66C8.833 8.62988 8.16 9.30288 8.16 10.1299V12.6299H2.66C1.99721 12.6291 1.36178 12.3654 0.893114 11.8968C0.424445 11.4281 0.160798 10.7927 0.160004 10.1299L0.160004 3.12988C0.160004 1.75088 1.281 0.629883 2.66 0.629883H9.66C11.039 0.629883 12.16 1.75088 12.16 3.12988ZM3.66 9.37988C3.66 9.28139 3.6406 9.18386 3.60291 9.09287C3.56522 9.00188 3.50998 8.9192 3.44033 8.84955C3.37069 8.77991 3.28801 8.72466 3.19702 8.68697C3.10602 8.64928 3.0085 8.62988 2.91 8.62988C2.81151 8.62988 2.71399 8.64928 2.62299 8.68697C2.532 8.72466 2.44932 8.77991 2.37967 8.84955C2.31003 8.9192 2.25479 9.00188 2.21709 9.09287C2.1794 9.18386 2.16 9.28139 2.16 9.37988C2.16 9.5788 2.23902 9.76956 2.37967 9.91021C2.52033 10.0509 2.71109 10.1299 2.91 10.1299C3.10892 10.1299 3.29968 10.0509 3.44033 9.91021C3.58099 9.76956 3.66 9.5788 3.66 9.37988ZM3.66 6.62988C3.66 6.53139 3.6406 6.43386 3.60291 6.34287C3.56522 6.25188 3.50998 6.1692 3.44033 6.09955C3.37069 6.02991 3.28801 5.97466 3.19702 5.93697C3.10602 5.89928 3.0085 5.87988 2.91 5.87988C2.81151 5.87988 2.71399 5.89928 2.62299 5.93697C2.532 5.97466 2.44932 6.02991 2.37967 6.09955C2.31003 6.1692 2.25479 6.25188 2.21709 6.34287C2.1794 6.43386 2.16 6.53139 2.16 6.62988C2.16 6.82879 2.23902 7.01956 2.37967 7.16021C2.52033 7.30087 2.71109 7.37988 2.91 7.37988C3.10892 7.37988 3.29968 7.30087 3.44033 7.16021C3.58099 7.01956 3.66 6.82879 3.66 6.62988ZM3.66 3.87988C3.66 3.78139 3.6406 3.68386 3.60291 3.59287C3.56522 3.50188 3.50998 3.4192 3.44033 3.34955C3.37069 3.27991 3.28801 3.22466 3.19702 3.18697C3.10602 3.14928 3.0085 3.12988 2.91 3.12988C2.81151 3.12988 2.71399 3.14928 2.62299 3.18697C2.532 3.22466 2.44932 3.27991 2.37967 3.34955C2.31003 3.4192 2.25479 3.50188 2.21709 3.59287C2.1794 3.68386 2.16 3.78139 2.16 3.87988C2.16 4.0788 2.23902 4.26956 2.37967 4.41021C2.52033 4.55087 2.71109 4.62988 2.91 4.62988C3.10892 4.62988 3.29968 4.55087 3.44033 4.41021C3.58099 4.26956 3.66 4.0788 3.66 3.87988Z" fill="white"/>
</g>
</g>
</g>
</g>
<defs>
<clipPath id="clip0_1_348">
<rect width="12" height="12" fill="white" transform="translate(0.160004 0.629883)"/>
</clipPath>
</defs>
</svg>
