<svg width="13" height="13" viewBox="0 0 13 13" fill="none" xmlns="http://www.w3.org/2000/svg">
<g id="ke4t3Xmp2LSljVpH9IXftVXjuM.svg" clip-path="url(#clip0_1_429)">
<g id="Clip path group">
<mask id="mask0_1_429" style="mask-type:luminance" maskUnits="userSpaceOnUse" x="0" y="0" width="13" height="13">
<g id="a">
<path id="Vector" d="M0.840027 0.629883H12.84V12.6299H0.840027V0.629883Z" fill="white"/>
</g>
</mask>
<g mask="url(#mask0_1_429)">
<g id="Group">
<path id="Vector_2" d="M10.34 0.629883H3.34003C2.67723 0.630677 2.04181 0.894324 1.57314 1.36299C1.10447 1.83166 0.840821 2.46709 0.840027 3.12988L0.840027 10.1299C0.840027 11.5089 1.96103 12.6299 3.34003 12.6299H10.34C11.719 12.6299 12.84 11.5089 12.84 10.1299V3.12988C12.84 1.75088 11.719 0.629883 10.34 0.629883ZM6.22503 5.99688L5.34003 5.04988V9.12988C5.34003 9.26249 5.28735 9.38967 5.19358 9.48344C5.09981 9.5772 4.97264 9.62988 4.84003 9.62988C4.70742 9.62988 4.58024 9.5772 4.48647 9.48344C4.39271 9.38967 4.34003 9.26249 4.34003 9.12988V5.02588L3.38303 5.98388C3.33654 6.03031 3.28136 6.06712 3.22065 6.09221C3.15993 6.11731 3.09487 6.13021 3.02917 6.13016C2.96348 6.13011 2.89843 6.11713 2.83775 6.09194C2.77707 6.06676 2.72195 6.02987 2.67553 5.98338C2.6291 5.93689 2.59229 5.88172 2.56719 5.821C2.5421 5.76029 2.5292 5.69523 2.52925 5.62953C2.5293 5.56383 2.54228 5.49879 2.56747 5.43811C2.59265 5.37743 2.62954 5.32231 2.67603 5.27588L3.95603 3.99588C4.0721 3.87977 4.20992 3.78767 4.3616 3.72483C4.51327 3.66199 4.67585 3.62965 4.84003 3.62965C5.00421 3.62965 5.16678 3.66199 5.31846 3.72483C5.47014 3.78767 5.60795 3.87977 5.72403 3.99588L6.95503 5.31388C7.04178 5.41133 7.08701 5.53882 7.08106 5.66916C7.07511 5.79949 7.01846 5.92233 6.92319 6.01147C6.82792 6.10061 6.70158 6.14897 6.57114 6.14625C6.4407 6.14352 6.31649 6.08992 6.22503 5.99688ZM11.005 7.98388L9.72403 9.26388C9.60798 9.37995 9.47015 9.47194 9.31844 9.53458C9.16674 9.59721 9.00415 9.62926 8.84003 9.62888C8.52003 9.62888 8.20003 9.50688 7.95603 9.26388L6.67603 7.98388C6.62954 7.93746 6.59265 7.88234 6.56747 7.82166C6.54228 7.76098 6.52929 7.69593 6.52925 7.63024C6.52915 7.49755 6.58177 7.37027 6.67553 7.27638C6.76928 7.1825 6.89649 7.1297 7.02917 7.1296C7.16186 7.12951 7.28914 7.18213 7.38303 7.27588L8.34003 8.23388V4.12988C8.34003 3.99727 8.39271 3.8701 8.48647 3.77633C8.58024 3.68256 8.70742 3.62988 8.84003 3.62988C8.97264 3.62988 9.09981 3.68256 9.19358 3.77633C9.28735 3.8701 9.34003 3.99727 9.34003 4.12988V8.23388L10.297 7.27588C10.3435 7.22946 10.3987 7.19265 10.4594 7.16755C10.5201 7.14245 10.5852 7.12956 10.6509 7.1296C10.7166 7.12965 10.7816 7.14264 10.8423 7.16782C10.903 7.19301 10.9581 7.2299 11.0045 7.27638C11.0509 7.32287 11.0878 7.37805 11.1129 7.43876C11.138 7.49948 11.1509 7.56454 11.1508 7.63024C11.1508 7.69593 11.1378 7.76098 11.1126 7.82166C11.0874 7.88234 11.0505 7.93746 11.004 7.98388H11.005Z" fill="white"/>
</g>
</g>
</g>
</g>
<defs>
<clipPath id="clip0_1_429">
<rect width="12" height="12" fill="white" transform="translate(0.840027 0.629883)"/>
</clipPath>
</defs>
</svg>
