<svg width="25" height="25" viewBox="0 0 25 25" fill="none" xmlns="http://www.w3.org/2000/svg">
<g id="KQpaVp5rX56u4Q2AVNtfsT3ZRU.svg" clip-path="url(#clip0_1_208)">
<path id="Vector" fill-rule="evenodd" clip-rule="evenodd" d="M7.58399 3.48514C8.5102 3.41141 9.38954 3.04733 10.0968 2.44474C10.8956 1.76417 11.9106 1.39038 12.96 1.39038C14.0094 1.39038 15.0244 1.76417 15.8232 2.44474C16.5312 3.04714 17.4096 3.41194 18.336 3.48514C19.3821 3.56883 20.3642 4.02243 21.1061 4.76461C21.8481 5.50679 22.3014 6.48901 22.3848 7.53514C22.4592 8.46105 22.8237 9.33993 23.4264 10.0467C24.107 10.8455 24.4808 11.8606 24.4808 12.9099C24.4808 13.9593 24.107 14.9744 23.4264 15.7731C22.8234 16.4803 22.4589 17.3596 22.3848 18.2859C22.3011 19.3319 21.8477 20.3138 21.1058 21.0557C20.3638 21.7977 19.3819 22.2511 18.336 22.3347C17.4097 22.4089 16.5303 22.7734 15.8232 23.3763C15.0244 24.0569 14.0094 24.4307 12.96 24.4307C11.9106 24.4307 10.8956 24.0569 10.0968 23.3763C9.38998 22.7736 8.5111 22.4091 7.58519 22.3347C6.53906 22.2514 5.55684 21.7981 4.81466 21.0561C4.07248 20.3141 3.61888 19.332 3.53519 18.2859C3.46146 17.3597 3.09737 16.4804 2.49479 15.7731C1.81422 14.9744 1.44043 13.9593 1.44043 12.9099C1.44043 11.8606 1.81422 10.8455 2.49479 10.0467C3.09742 9.33999 3.46153 8.46101 3.53519 7.53514C3.6186 6.48882 4.07209 5.50645 4.81429 4.76425C5.5565 4.02204 6.53767 3.56856 7.58399 3.48514ZM18.3 11.0499C18.5664 10.7791 18.715 10.414 18.7135 10.0342C18.7119 9.65429 18.5603 9.29042 18.2917 9.0218C18.0231 8.75318 17.6592 8.60159 17.2794 8.60005C16.8995 8.5985 16.5344 8.74712 16.2636 9.01354L11.52 13.7535L9.65999 11.8923C9.3892 11.6259 9.0241 11.4773 8.64422 11.4788C8.26434 11.4804 7.90047 11.632 7.63185 11.9006C7.36323 12.1692 7.21164 12.5331 7.2101 12.913C7.20855 13.2928 7.35717 13.6579 7.62359 13.9287L10.5036 16.8087C10.7736 17.0788 11.1399 17.2305 11.5218 17.2305C11.9037 17.2305 12.2699 17.0788 12.54 16.8087L18.3 11.0499Z" fill="white"/>
</g>
<defs>
<clipPath id="clip0_1_208">
<rect width="24" height="24" fill="white" transform="translate(0.960022 0.909912)"/>
</clipPath>
</defs>
</svg>
