<svg width="73" height="73" viewBox="0 0 73 73" fill="none" xmlns="http://www.w3.org/2000/svg">
<g id="2RVGs6iirSVS0R8U9oAMT30VV6k.svg" clip-path="url(#clip0_1_167)">
<g id="Clip path group">
<mask id="mask0_1_167" style="mask-type:luminance" maskUnits="userSpaceOnUse" x="0" y="0" width="73" height="73">
<g id="a">
<path id="Vector" d="M0.0299683 0.72998H72.03V72.73H0.0299683V0.72998Z" fill="white"/>
</g>
</mask>
<g mask="url(#mask0_1_167)">
<g id="Group">
<path id="Vector_2" d="M50.936 72.73H55.155V67.808C55.143 67.2565 54.9154 66.7316 54.5211 66.3458C54.1268 65.96 53.5971 65.7439 53.0455 65.7439C52.4938 65.7439 51.9641 65.96 51.5698 66.3458C51.1755 66.7316 50.948 67.2565 50.936 67.808V72.73ZM42.499 72.73H46.717V63.59C46.7257 63.3076 46.6776 63.0263 46.5755 62.7628C46.4734 62.4993 46.3195 62.259 46.1228 62.0562C45.9261 61.8533 45.6906 61.692 45.4304 61.5819C45.1702 61.4718 44.8905 61.415 44.608 61.415C44.3254 61.415 44.0457 61.4718 43.7855 61.5819C43.5253 61.692 43.2899 61.8533 43.0932 62.0562C42.8965 62.259 42.7425 62.4993 42.6405 62.7628C42.5384 63.0263 42.4903 63.3076 42.499 63.59V72.73ZM59.374 63.59V72.73H63.592V63.59C63.6007 63.3076 63.5526 63.0263 63.4505 62.7628C63.3484 62.4993 63.1945 62.259 62.9978 62.0562C62.8011 61.8533 62.5656 61.692 62.3054 61.5819C62.0452 61.4718 61.7655 61.415 61.483 61.415C61.2004 61.415 60.9207 61.4718 60.6605 61.5819C60.4003 61.692 60.1649 61.8533 59.9682 62.0562C59.7715 62.259 59.6175 62.4993 59.5155 62.7628C59.4134 63.0263 59.3653 63.3076 59.374 63.59ZM34.06 72.73H38.279V67.808C38.267 67.2565 38.0394 66.7316 37.6451 66.3458C37.2508 65.96 36.7211 65.7439 36.1695 65.7439C35.6178 65.7439 35.0881 65.96 34.6938 66.3458C34.2995 66.7316 34.072 67.2565 34.06 67.808V72.73ZM25.623 72.73H29.841V63.59C29.8497 63.3076 29.8016 63.0263 29.6995 62.7628C29.5974 62.4993 29.4435 62.259 29.2468 62.0562C29.0501 61.8533 28.8146 61.692 28.5544 61.5819C28.2942 61.4718 28.0145 61.415 27.732 61.415C27.4494 61.415 27.1697 61.4718 26.9095 61.5819C26.6493 61.692 26.4139 61.8533 26.2172 62.0562C26.0205 62.259 25.8665 62.4993 25.7645 62.7628C25.6624 63.0263 25.6143 63.3076 25.623 63.59V72.73ZM17.185 72.73H21.404V67.808C21.392 67.2565 21.1644 66.7316 20.7701 66.3458C20.3758 65.96 19.8461 65.7439 19.2945 65.7439C18.7428 65.7439 18.2131 65.96 17.8188 66.3458C17.4245 66.7316 17.197 67.2565 17.185 67.808V72.73ZM19.013 0.72998H2.13997C1.58036 0.72998 1.04367 0.952283 0.647973 1.34799C0.252271 1.74369 0.0299683 2.28037 0.0299683 2.83998L0.0299683 70.62C0.0299683 71.203 0.265968 71.73 0.647968 72.112L21.124 51.636V2.83998C21.124 2.28037 20.9017 1.74369 20.506 1.34799C20.1103 0.952283 19.5726 0.72998 19.013 0.72998ZM10.576 10.574C10.2989 10.574 10.0245 10.5194 9.76851 10.4134C9.51251 10.3073 9.2799 10.1519 9.08397 9.95598C8.88804 9.76004 8.73262 9.52744 8.62658 9.27144C8.52055 9.01545 8.46597 8.74107 8.46597 8.46398C8.46597 8.18689 8.52055 7.91252 8.62658 7.65652C8.73262 7.40052 8.88804 7.16792 9.08397 6.97199C9.2799 6.77605 9.51251 6.62063 9.76851 6.51459C10.0245 6.40856 10.2989 6.35398 10.576 6.35398C11.1356 6.35398 11.6723 6.57628 12.068 6.97199C12.4637 7.36769 12.686 7.90437 12.686 8.46398C12.686 9.02359 12.4637 9.56027 12.068 9.95598C11.6723 10.3517 11.1356 10.574 10.576 10.574Z" fill="url(#paint0_linear_1_167)"/>
<path id="Vector_3" d="M72.03 53.746V70.62C72.03 71.1796 71.8077 71.7163 71.412 72.112C71.0163 72.5077 70.4796 72.73 69.92 72.73H63.592V63.59C63.6007 63.3076 63.5526 63.0263 63.4505 62.7628C63.3484 62.4993 63.1945 62.259 62.9978 62.0562C62.8011 61.8533 62.5656 61.692 62.3054 61.5819C62.0452 61.4718 61.7655 61.415 61.483 61.415C61.2004 61.415 60.9207 61.4718 60.6605 61.5819C60.4003 61.692 60.1649 61.8533 59.9682 62.0562C59.7715 62.259 59.6175 62.4993 59.5155 62.7628C59.4134 63.0263 59.3653 63.3076 59.374 63.59V72.73H55.155V67.808C55.143 67.2565 54.9154 66.7316 54.5211 66.3458C54.1268 65.96 53.5971 65.7439 53.0455 65.7439C52.4938 65.7439 51.9641 65.96 51.5698 66.3458C51.1755 66.7316 50.948 67.2565 50.936 67.808V72.73H46.718V63.59C46.718 63.0304 46.4957 62.4937 46.1 62.098C45.7043 61.7023 45.1676 61.48 44.608 61.48C44.0484 61.48 43.5117 61.7023 43.116 62.098C42.7203 62.4937 42.498 63.0304 42.498 63.59V72.73H38.28V67.808C38.268 67.2565 38.0404 66.7316 37.6461 66.3458C37.2518 65.96 36.7221 65.7439 36.1705 65.7439C35.6188 65.7439 35.0891 65.96 34.6948 66.3458C34.3005 66.7316 34.073 67.2565 34.061 67.808V72.73H29.843V63.59C29.843 63.0304 29.6207 62.4937 29.225 62.098C28.8293 61.7023 28.2926 61.48 27.733 61.48C27.1734 61.48 26.6367 61.7023 26.241 62.098C25.8453 62.4937 25.623 63.0304 25.623 63.59V72.73H21.405V67.808C21.393 67.2565 21.1654 66.7316 20.7711 66.3458C20.3768 65.96 19.8471 65.7439 19.2955 65.7439C18.7438 65.7439 18.2141 65.96 17.8198 66.3458C17.4255 66.7316 17.198 67.2565 17.186 67.808V72.73H2.13997C1.86297 72.7304 1.58862 72.676 1.33273 72.5699C1.07683 72.4639 0.844453 72.3082 0.648968 72.112L21.125 51.636H69.92C70.4796 51.636 71.0163 51.8583 71.412 52.254C71.8077 52.6497 72.03 53.1864 72.03 53.746ZM7.06097 19.714C7.06097 20.2736 6.83867 20.8103 6.44296 21.206C6.04726 21.6017 5.51058 21.824 4.95097 21.824H0.0299683V17.605H4.95197C5.22906 17.605 5.50343 17.6596 5.75943 17.7656C6.01543 17.8716 6.24803 18.0271 6.44396 18.223C6.63989 18.4189 6.79532 18.6515 6.90135 18.9075C7.00739 19.1635 7.06197 19.4379 7.06197 19.715L7.06097 19.714ZM0.0299683 26.042H9.16997C9.72958 26.042 10.2663 26.2643 10.662 26.66C11.0577 27.0557 11.28 27.5924 11.28 28.152C11.28 28.7116 11.0577 29.2483 10.662 29.644C10.2663 30.0397 9.72958 30.262 9.16997 30.262H0.0299683V26.042ZM7.06097 36.59C7.06097 37.1496 6.83867 37.6863 6.44296 38.082C6.04726 38.4777 5.51058 38.7 4.95097 38.7H0.0299683V34.48H4.95197C5.22906 34.48 5.50343 34.5346 5.75943 34.6406C6.01543 34.7466 6.24803 34.9021 6.44396 35.098C6.63989 35.2939 6.79532 35.5265 6.90135 35.7825C7.00739 36.0385 7.06097 36.3129 7.06097 36.59ZM0.0299683 51.355H4.95197C5.50349 51.367 6.02838 51.5945 6.41418 51.9888C6.79999 52.3831 7.01604 52.9128 7.01604 53.4645C7.01604 54.0161 6.79999 54.5458 6.41418 54.9401C6.02838 55.3344 5.50349 55.562 4.95197 55.574H0.0299683V51.355ZM0.0299683 42.917H9.16997C9.72958 42.917 10.2663 43.1393 10.662 43.535C11.0577 43.9307 11.28 44.4674 11.28 45.027C11.28 45.5866 11.0577 46.1233 10.662 46.519C10.2663 46.9147 9.72958 47.137 9.16997 47.137H0.0299683V42.917Z" fill="url(#paint1_linear_1_167)"/>
</g>
</g>
</g>
</g>
<defs>
<linearGradient id="paint0_linear_1_167" x1="31.811" y1="72.73" x2="31.811" y2="0.72998" gradientUnits="userSpaceOnUse">
<stop stop-color="#DBD2FF"/>
<stop offset="0.997" stop-color="#F5F2FF"/>
</linearGradient>
<linearGradient id="paint1_linear_1_167" x1="36.03" y1="72.73" x2="36.03" y2="17.605" gradientUnits="userSpaceOnUse">
<stop stop-color="#B880FC"/>
<stop offset="1" stop-color="#B880FC"/>
</linearGradient>
<clipPath id="clip0_1_167">
<rect width="72" height="72" fill="white" transform="translate(0.0299683 0.72998)"/>
</clipPath>
</defs>
</svg>
