<svg width="13" height="13" viewBox="0 0 13 13" fill="none" xmlns="http://www.w3.org/2000/svg">
<g id="Nod1sepcQY3T45kxx5NER9LnzI.svg" clip-path="url(#clip0_1_359)">
<g id="Clip path group">
<mask id="mask0_1_359" style="mask-type:luminance" maskUnits="userSpaceOnUse" x="0" y="0" width="13" height="13">
<g id="a">
<path id="Vector" d="M0.160004 0.629883H12.16V12.6299H0.160004V0.629883Z" fill="white"/>
</g>
</mask>
<g mask="url(#mask0_1_359)">
<g id="Group">
<path id="Vector_2" d="M5.66 0.629883H1.66C1.26218 0.629883 0.880648 0.787918 0.599343 1.06922C0.318039 1.35053 0.160004 1.73206 0.160004 2.12988L0.160004 12.6299H7.16V2.12988C7.16 1.73206 7.00197 1.35053 6.72066 1.06922C6.43936 0.787918 6.05783 0.629883 5.66 0.629883ZM3.16 10.1299H1.66V9.12988H3.16V10.1299ZM3.16 8.12988H1.66V7.12988H3.16V8.12988ZM3.16 6.12988H1.66V5.12988H3.16V6.12988ZM3.16 4.12988H1.66V3.12988H3.16V4.12988ZM5.66 10.1299H4.16V9.12988H5.66V10.1299ZM5.66 8.12988H4.16V7.12988H5.66V8.12988ZM5.66 6.12988H4.16V5.12988H5.66V6.12988ZM5.66 4.12988H4.16V3.12988H5.66V4.12988ZM10.66 3.12988H8.16V12.6299H12.16V4.62988C12.16 4.23206 12.002 3.85053 11.7207 3.56922C11.4394 3.28792 11.0578 3.12988 10.66 3.12988ZM10.66 10.1299H9.66V9.12988H10.66V10.1299ZM10.66 8.12988H9.66V7.12988H10.66V8.12988ZM10.66 6.12988H9.66V5.12988H10.66V6.12988Z" fill="white"/>
</g>
</g>
</g>
</g>
<defs>
<clipPath id="clip0_1_359">
<rect width="12" height="12" fill="white" transform="translate(0.160004 0.629883)"/>
</clipPath>
</defs>
</svg>
