<svg width="28" height="28" viewBox="0 0 28 28" fill="none" xmlns="http://www.w3.org/2000/svg">
<g id="iconoir:leaderboard-star">
<path id="Vector" d="M17.5 24.4999H10.5M17.5 24.4999V14.6999C17.5 14.5142 17.4263 14.3362 17.295 14.2049C17.1637 14.0736 16.9857 13.9999 16.8 13.9999H11.2C11.0143 13.9999 10.8363 14.0736 10.705 14.2049C10.5737 14.3362 10.5 14.5142 10.5 14.6999V24.4999M17.5 24.4999H23.8C23.9857 24.4999 24.1637 24.4261 24.295 24.2948C24.4263 24.1636 24.5 23.9855 24.5 23.7999V21.1165C24.5 20.9309 24.4263 20.7528 24.295 20.6215C24.1637 20.4903 23.9857 20.4165 23.8 20.4165H18.2C18.0143 20.4165 17.8363 20.4903 17.705 20.6215C17.5737 20.7528 17.5 20.9309 17.5 21.1165V24.4999ZM10.5 24.4999V18.7832C10.5 18.5975 10.4263 18.4195 10.295 18.2882C10.1637 18.1569 9.98565 18.0832 9.8 18.0832H4.2C4.01435 18.0832 3.8363 18.1569 3.70503 18.2882C3.57375 18.4195 3.5 18.5975 3.5 18.7832V23.7999C3.5 23.9855 3.57375 24.1636 3.70503 24.2948C3.8363 24.4261 4.01435 24.4999 4.2 24.4999H10.5ZM12.607 5.96502L13.6675 3.71686C13.6961 3.65259 13.7428 3.59799 13.8018 3.55968C13.8608 3.52137 13.9296 3.50098 14 3.50098C14.0704 3.50098 14.1392 3.52137 14.1982 3.55968C14.2572 3.59799 14.3039 3.65259 14.3325 3.71686L15.3942 5.96502L17.7648 6.32786C18.0693 6.37452 18.1907 6.76652 17.9702 6.99052L16.2552 8.74052L16.66 11.2115C16.7113 11.5289 16.394 11.7715 16.121 11.621L14 10.4544L11.879 11.621C11.6072 11.7704 11.2887 11.5289 11.34 11.2115L11.7448 8.74052L10.0298 6.99052C9.80817 6.76652 9.93067 6.37452 10.234 6.32786L12.607 5.96502Z" stroke="white" stroke-width="1.5" stroke-linecap="round" stroke-linejoin="round"/>
</g>
</svg>
