<svg width="13" height="13" viewBox="0 0 13 13" fill="none" xmlns="http://www.w3.org/2000/svg">
<g id="hSLRYmxK8rkocCvb1l3GIIlOVg.svg" clip-path="url(#clip0_1_324)">
<g id="Clip path group">
<mask id="mask0_1_324" style="mask-type:luminance" maskUnits="userSpaceOnUse" x="0" y="0" width="13" height="13">
<g id="a">
<path id="Vector" d="M0.480003 0.629883H12.48V12.6299H0.480003V0.629883Z" fill="white"/>
</g>
</mask>
<g mask="url(#mask0_1_324)">
<g id="Group">
<path id="Vector_2" d="M4.23 7.12988C3.63327 7.12988 3.06097 6.89283 2.63901 6.47087C2.21706 6.04892 1.98 5.47662 1.98 4.87988C1.98 4.28315 2.21706 3.71085 2.63901 3.28889C3.06097 2.86694 3.63327 2.62988 4.23 2.62988C4.82674 2.62988 5.39904 2.86694 5.82099 3.28889C6.24295 3.71085 6.48 4.28315 6.48 4.87988C6.48 5.47662 6.24295 6.04892 5.82099 6.47087C5.39904 6.89283 4.82674 7.12988 4.23 7.12988ZM7.48 12.6299H0.980003C0.847395 12.6299 0.720218 12.5772 0.62645 12.4834C0.532682 12.3897 0.480003 12.2625 0.480003 12.1299V11.8799C0.480003 10.8853 0.875091 9.93149 1.57835 9.22823C2.28161 8.52497 3.23544 8.12988 4.23 8.12988C5.22457 8.12988 6.17839 8.52497 6.88165 9.22823C7.58492 9.93149 7.98 10.8853 7.98 11.8799V12.1299C7.98 12.2625 7.92732 12.3897 7.83356 12.4834C7.73979 12.5772 7.61261 12.6299 7.48 12.6299ZM9.23 5.12988C8.63327 5.12988 8.06097 4.89283 7.63901 4.47087C7.21706 4.04892 6.98 3.47662 6.98 2.87988C6.98 2.28315 7.21706 1.71085 7.63901 1.28889C8.06097 0.866936 8.63327 0.629883 9.23 0.629883C9.82674 0.629883 10.399 0.866936 10.821 1.28889C11.243 1.71085 11.48 2.28315 11.48 2.87988C11.48 3.47662 11.243 4.04892 10.821 4.47087C10.399 4.89283 9.82674 5.12988 9.23 5.12988ZM8.52 6.13988C8.05427 6.20239 7.60647 6.36043 7.20466 6.60409C6.80286 6.84776 6.45572 7.17179 6.185 7.55588C7.305 8.06488 8.185 8.98688 8.642 10.1299H11.98C12.1126 10.1299 12.2398 10.0772 12.3336 9.98344C12.4273 9.88967 12.48 9.76249 12.48 9.62988V9.61088C12.4794 9.11258 12.3725 8.62013 12.1665 8.1664C11.9605 7.71268 11.6601 7.30811 11.2853 6.97971C10.9105 6.6513 10.47 6.40661 9.99314 6.26196C9.51629 6.11731 9.01407 6.07503 8.52 6.13988Z" fill="white"/>
</g>
</g>
</g>
</g>
<defs>
<clipPath id="clip0_1_324">
<rect width="12" height="12" fill="white" transform="translate(0.480003 0.629883)"/>
</clipPath>
</defs>
</svg>
