<svg width="22" height="25" viewBox="0 0 22 25" fill="none" xmlns="http://www.w3.org/2000/svg">
<g id="xxUYIDrftDTh0oHcpjEz0f6Js3E.svg" clip-path="url(#clip0_1_201)">
<path id="Vector" d="M12.4 22.6C12.3999 22.8454 12.4626 23.0868 12.582 23.3012C12.7014 23.5156 12.8737 23.6959 13.0824 23.825C13.2911 23.9542 13.5293 24.0278 13.7745 24.039C14.0197 24.0501 14.2636 23.9984 14.4832 23.8888L20.2432 21.0088C20.4827 20.8893 20.6841 20.7053 20.8248 20.4777C20.9656 20.25 21.0401 19.9877 21.04 19.72V11.4208C21.0402 11.1752 20.9775 10.9337 20.8581 10.7191C20.7386 10.5046 20.5662 10.3242 20.3573 10.195C20.1484 10.0658 19.91 9.99226 19.6646 9.98124C19.4193 9.97022 19.1752 10.0221 18.9556 10.132L13.1956 13.012C12.9564 13.1317 12.7552 13.3157 12.6147 13.5434C12.4741 13.771 12.3998 14.0333 12.4 14.3008V22.6ZM18.4636 7.15842C18.7029 7.03887 18.9042 6.85502 19.0449 6.62749C19.1856 6.39995 19.2601 6.13773 19.2601 5.87022C19.2601 5.60271 19.1856 5.34049 19.0449 5.11295C18.9042 4.88542 18.7029 4.70157 18.4636 4.58202L11.6032 1.15242C11.4033 1.0525 11.1829 1.00049 10.9594 1.00049C10.7359 1.00049 10.5155 1.0525 10.3156 1.15242L3.45521 4.58202C3.21589 4.70157 3.01462 4.88542 2.87394 5.11295C2.73326 5.34049 2.65874 5.60271 2.65874 5.87022C2.65874 6.13773 2.73326 6.39995 2.87394 6.62749C3.01462 6.85502 3.21589 7.03887 3.45521 7.15842L10.3156 10.588C10.5155 10.6879 10.7359 10.74 10.9594 10.74C11.1829 10.74 11.4033 10.6879 11.6032 10.588L18.4636 7.15842ZM2.9632 10.132C2.74363 10.0224 2.49968 9.97072 2.25451 9.98188C2.00935 9.99304 1.7711 10.0667 1.56239 10.1958C1.35369 10.3249 1.18144 10.5052 1.06201 10.7196C0.942583 10.934 0.879931 11.1754 0.880005 11.4208V19.72C0.880005 20.266 1.1872 20.764 1.6756 21.0088L7.43561 23.8888C7.65523 23.9987 7.89931 24.0506 8.14464 24.0396C8.38998 24.0286 8.62842 23.955 8.8373 23.8258C9.04618 23.6967 9.21856 23.5163 9.33805 23.3017C9.45755 23.0872 9.52018 22.8456 9.52001 22.6V14.3008C9.52009 14.0332 9.44557 13.7708 9.30482 13.5431C9.16408 13.3155 8.96267 13.1316 8.72321 13.012L2.9632 10.132Z" fill="white"/>
</g>
<defs>
<clipPath id="clip0_1_201">
<rect width="21.6" height="24" fill="white" transform="translate(0.160034 0.52002)"/>
</clipPath>
</defs>
</svg>
