<svg width="32" height="32" viewBox="0 0 32 32" fill="none" xmlns="http://www.w3.org/2000/svg">
<g id="Badges">
<g id="Group">
<path id="Vector" d="M26.13 9.3401L25 8.2301V6.6601C24.9974 5.67869 24.607 4.73807 23.914 4.04316C23.221 3.34826 22.2814 2.95538 21.3 2.9501H19.74L18.63 1.8401C17.9324 1.14273 16.9864 0.750977 16 0.750977C15.0136 0.750977 14.0676 1.14273 13.37 1.8401L12.26 2.9501H10.7C9.7186 2.95538 8.77904 3.34826 8.08601 4.04316C7.39298 4.73807 7.00263 5.67869 7.00001 6.6601V8.2301L5.87001 9.3401C5.17264 10.0377 4.78088 10.9837 4.78088 11.9701C4.78088 12.9565 5.17264 13.9025 5.87001 14.6001L7.00001 15.7101V17.2801C7 18.2633 7.38918 19.2064 8.08249 19.9035C8.77581 20.6006 9.71687 20.9948 10.7 21.0001H10.81V30.0001C10.8119 30.2555 10.8901 30.5045 11.0347 30.7151C11.1792 30.9256 11.3835 31.0881 11.6211 31.1817C11.8588 31.2752 12.119 31.2956 12.3683 31.24C12.6175 31.1845 12.8445 31.0557 13.02 30.8701L15.45 28.2701C15.5171 28.1884 15.6009 28.1221 15.6958 28.0755C15.7906 28.0289 15.8944 28.0032 16 28.0001C16.0993 28.0009 16.1973 28.0217 16.2884 28.0612C16.3794 28.1008 16.4616 28.1582 16.53 28.2301L19 30.8401C19.1743 31.0206 19.3977 31.146 19.6427 31.2005C19.8876 31.2551 20.1431 31.2364 20.3775 31.1469C20.6119 31.0574 20.8149 30.901 20.9611 30.6971C21.1073 30.4932 21.1904 30.2508 21.2 30.0001V21.0001H21.31C22.2931 20.9922 23.2332 20.5954 23.9246 19.8964C24.616 19.1975 25.0027 18.2533 25 17.2701V15.7101L26.11 14.6001C26.8074 13.9025 27.1991 12.9565 27.1991 11.9701C27.1991 10.9837 26.8074 10.0377 26.11 9.3401H26.13ZM14.72 27.5601L12.29 30.1601C12.2539 30.2015 12.2064 30.2314 12.1534 30.246C12.1004 30.2606 12.0443 30.2593 11.9921 30.2422C11.9398 30.2252 11.8938 30.1931 11.8596 30.1501C11.8255 30.107 11.8047 30.0549 11.8 30.0001V21.0001H12.26L13.37 22.1101C13.9514 22.6676 14.6997 23.0189 15.5 23.1101V27.1101C15.2033 27.1849 14.9333 27.3407 14.72 27.5601ZM20.2 30.0001C20.1988 30.0552 20.1814 30.1088 20.15 30.154C20.1185 30.1993 20.0744 30.2343 20.0231 30.2546C19.9719 30.2748 19.9158 30.2796 19.8618 30.2681C19.8079 30.2566 19.7586 30.2295 19.72 30.1901L17.29 27.5901C17.0768 27.3707 16.8067 27.2149 16.51 27.1401V23.1401C17.3103 23.0489 18.0586 22.6976 18.64 22.1401L19.74 21.0001H20.2V30.0001ZM25.43 13.9201L24.18 15.1701C24.0858 15.2624 24.0319 15.3882 24.03 15.5201V17.2901C24.0287 17.6473 23.957 18.0007 23.8191 18.3302C23.6812 18.6597 23.4798 18.9589 23.2263 19.2105C22.9728 19.4622 22.6722 19.6614 22.3417 19.7969C22.0112 19.9324 21.6572 20.0014 21.3 20.0001H19.53C19.3981 20.002 19.2723 20.0559 19.18 20.1501L17.93 21.4001C17.4202 21.9082 16.7298 22.1934 16.01 22.1934C15.2903 22.1934 14.5998 21.9082 14.09 21.4001L12.84 20.1501C12.7477 20.0559 12.6219 20.002 12.49 20.0001H10.7C9.98036 19.9948 9.29213 19.7045 8.78606 19.1929C8.28 18.6812 7.99734 17.9898 8.00001 17.2701V15.5001C7.99813 15.3682 7.94422 15.2424 7.85001 15.1501L6.58001 13.8901C6.07194 13.3803 5.78666 12.6899 5.78666 11.9701C5.78666 11.2503 6.07194 10.5599 6.58001 10.0501L7.83001 8.7901C7.8803 8.74609 7.92125 8.69243 7.95045 8.63232C7.97965 8.5722 7.9965 8.50684 8.00001 8.4401V6.6601C8.00262 5.9439 8.28761 5.25763 8.79311 4.75026C9.29861 4.24289 9.98382 3.95536 10.7 3.9501H12.48C12.6119 3.94822 12.7377 3.89431 12.83 3.8001L14.08 2.5501C14.5898 2.04204 15.2803 1.75676 16 1.75676C16.7198 1.75676 17.4102 2.04204 17.92 2.5501L19.18 3.8001C19.2723 3.89431 19.3981 3.94822 19.53 3.9501H21.3C22.0162 3.95536 22.7014 4.24289 23.2069 4.75026C23.7124 5.25763 23.9974 5.9439 24 6.6601V8.4401C24.0019 8.57199 24.0558 8.69779 24.15 8.7901L25.42 10.0001C25.9281 10.5099 26.2134 11.2003 26.2134 11.9201C26.2134 12.6399 25.9281 13.3303 25.42 13.8401L25.43 13.9201Z" fill="white"/>
<path id="Vector_2" d="M21.71 9.6001V8.7201C21.71 8.06501 21.4498 7.43676 20.9866 6.97354C20.5233 6.51033 19.8951 6.2501 19.24 6.2501H18.36L17.74 5.6301C17.2769 5.16783 16.6493 4.9082 15.995 4.9082C15.3407 4.9082 14.7131 5.16783 14.25 5.6301L13.63 6.2501H12.75C12.0949 6.2501 11.4667 6.51033 11.0035 6.97354C10.5402 7.43676 10.28 8.06501 10.28 8.7201V9.6001L9.66 10.2201C9.19774 10.6832 8.93811 11.3108 8.93811 11.9651C8.93811 12.6194 9.19774 13.247 9.66 13.7101L10.28 14.3301V15.2101C10.28 15.8652 10.5402 16.4934 11.0035 16.9567C11.4667 17.4199 12.0949 17.6801 12.75 17.6801H13.63L14.25 18.3001C14.7131 18.7624 15.3407 19.022 15.995 19.022C16.6493 19.022 17.2769 18.7624 17.74 18.3001L18.36 17.6801H19.24C19.8951 17.6801 20.5233 17.4199 20.9866 16.9567C21.4498 16.4934 21.71 15.8652 21.71 15.2101V14.3301L22.33 13.7101C22.7923 13.247 23.0519 12.6194 23.0519 11.9651C23.0519 11.3108 22.7923 10.6832 22.33 10.2201L21.71 9.6001ZM21.63 13.0001L20.86 13.7701C20.7658 13.8624 20.7119 13.9882 20.71 14.1201V15.2101C20.71 15.6 20.5551 15.9739 20.2795 16.2495C20.0038 16.5252 19.6299 16.6801 19.24 16.6801H18.16C18.0281 16.682 17.9023 16.7359 17.81 16.8301L17 17.6001C16.8635 17.7368 16.7014 17.8452 16.5229 17.9192C16.3445 17.9931 16.1532 18.0312 15.96 18.0312C15.7668 18.0312 15.5755 17.9931 15.3971 17.9192C15.2186 17.8452 15.0565 17.7368 14.92 17.6001L14.15 16.8301C14.0577 16.7359 13.9319 16.682 13.8 16.6801H12.75C12.3601 16.6801 11.9862 16.5252 11.7106 16.2495C11.4349 15.9739 11.28 15.6 11.28 15.2101V14.1301C11.2781 13.9982 11.2242 13.8724 11.13 13.7801L10.37 13.0001C10.2333 12.8636 10.1249 12.7015 10.0509 12.523C9.97697 12.3446 9.9389 12.1533 9.9389 11.9601C9.9389 11.7669 9.97697 11.5756 10.0509 11.3972C10.1249 11.2187 10.2333 11.0566 10.37 10.9201L11.14 10.1501C11.2342 10.0578 11.2881 9.93198 11.29 9.8001V8.7201C11.29 8.33023 11.4449 7.95633 11.7206 7.68065C11.9962 7.40497 12.3701 7.2501 12.76 7.2501H13.85C13.9819 7.24822 14.1077 7.1943 14.2 7.1001L15 6.3401C15.1365 6.20343 15.2986 6.09501 15.4771 6.02104C15.6555 5.94706 15.8468 5.90899 16.04 5.90899C16.2332 5.90899 16.4245 5.94706 16.6029 6.02104C16.7814 6.09501 16.9435 6.20343 17.08 6.3401L17.85 7.1101C17.9423 7.2043 18.0681 7.25822 18.2 7.2601H19.29C19.6799 7.2601 20.0538 7.41497 20.3295 7.69065C20.6051 7.96633 20.76 8.34023 20.76 8.7301V9.8101C20.7619 9.94198 20.8158 10.0678 20.91 10.1601L21.68 10.9301C21.9464 11.2119 22.0907 11.5877 22.0813 11.9754C22.0719 12.3631 21.9097 12.7314 21.63 13.0001Z" fill="white"/>
<path id="Vector_3" d="M16 8.52002C15.3189 8.52005 14.6531 8.72165 14.0864 9.09943C13.5197 9.47721 13.0775 10.0143 12.8156 10.6429C12.5536 11.2716 12.4835 11.9637 12.6142 12.6321C12.7449 13.3005 13.0706 13.9153 13.5501 14.399C14.0296 14.8826 14.6415 15.2135 15.3087 15.35C15.976 15.4865 16.6687 15.4225 17.2996 15.1659C17.9305 14.9094 18.4714 14.4719 18.854 13.9085C19.2367 13.3451 19.4441 12.6811 19.45 12C19.4539 11.5444 19.3676 11.0926 19.196 10.6705C19.0244 10.2485 18.7709 9.86463 18.4502 9.54108C18.1294 9.21754 17.7477 8.96073 17.3272 8.78547C16.9067 8.61022 16.4556 8.52 16 8.52002ZM16 14.42C15.5141 14.42 15.0393 14.2755 14.6358 14.0049C14.2322 13.7344 13.9183 13.35 13.7337 12.9005C13.5492 12.4511 13.5025 11.957 13.5995 11.4809C13.6965 11.0049 13.9328 10.5684 14.2785 10.227C14.6241 9.88556 15.0635 9.65461 15.5407 9.56349C16.0179 9.47238 16.5114 9.5252 16.9585 9.71524C17.4057 9.90528 17.7862 10.224 18.0517 10.6308C18.3173 11.0376 18.4559 11.5142 18.45 12C18.4421 12.6446 18.1805 13.2601 17.7219 13.7131C17.2633 14.1661 16.6446 14.4201 16 14.42Z" fill="white"/>
</g>
</g>
</svg>
