<svg width="13" height="13" viewBox="0 0 13 13" fill="none" xmlns="http://www.w3.org/2000/svg">
<g id="O7iaXqm5lUIIGpAeAyI8wOZbM.svg" clip-path="url(#clip0_1_301)">
<g id="Clip path group">
<mask id="mask0_1_301" style="mask-type:luminance" maskUnits="userSpaceOnUse" x="0" y="0" width="13" height="13">
<g id="a">
<path id="Vector" d="M0.480003 0.629883H12.48V12.6299H0.480003V0.629883Z" fill="white"/>
</g>
</mask>
<g mask="url(#mask0_1_301)">
<g id="Group">
<path id="Vector_2" d="M9.836 6.62963H7.48C7.21478 6.62963 6.96043 6.52427 6.77289 6.33674C6.58536 6.1492 6.48 5.89485 6.48 5.62963V3.26663C6.4806 3.03671 6.42834 2.80972 6.32725 2.60321C6.22617 2.3967 6.07896 2.21619 5.897 2.07563C5.72456 1.93915 5.52307 1.84409 5.30808 1.7978C5.09309 1.75151 4.87033 1.75521 4.657 1.80863C3.44443 2.10905 2.37077 2.81446 1.61368 3.80814C0.856587 4.80181 0.461445 6.02419 0.493636 7.27301C0.525827 8.52183 0.983423 9.72222 1.7907 10.6756C2.59798 11.6289 3.70656 12.2781 4.933 12.5156C6.31155 12.7795 7.73882 12.5063 8.92252 11.7521C10.1062 10.9979 10.9568 9.8196 11.3 8.45863C11.3536 8.24483 11.3574 8.02157 11.3111 7.80607C11.2648 7.59057 11.1697 7.38857 11.033 7.21563C10.8907 7.03389 10.7091 6.88674 10.5018 6.78525C10.2944 6.68376 10.0668 6.63055 9.836 6.62963Z" fill="white"/>
<path id="Vector_3" d="M12.305 4.35279C12.0741 3.50696 11.6267 2.73593 11.007 2.11569C10.3873 1.49545 9.61663 1.04743 8.771 0.815785C8.68117 0.798138 8.59033 0.786114 8.499 0.779785C8.432 0.779785 8.142 0.779785 7.913 0.965785C7.577 1.23079 7.523 1.53179 7.519 1.55579C7.50104 1.6291 7.49197 1.70431 7.492 1.77979V4.12979C7.492 4.52761 7.65004 4.90914 7.93134 5.19045C8.21264 5.47175 8.59418 5.62979 8.992 5.62979H11.352C11.5062 5.63011 11.6582 5.59405 11.7959 5.52455C11.9335 5.45505 12.0528 5.35406 12.144 5.22978C12.281 5.04578 12.352 4.81979 12.344 4.58979C12.3401 4.50956 12.327 4.43004 12.305 4.35279Z" fill="white"/>
</g>
</g>
</g>
</g>
<defs>
<clipPath id="clip0_1_301">
<rect width="12" height="12" fill="white" transform="translate(0.480003 0.629883)"/>
</clipPath>
</defs>
</svg>
