<svg width="73" height="73" viewBox="0 0 73 73" fill="none" xmlns="http://www.w3.org/2000/svg">
<g id="y5OdnLQ6YLTVtGDTD8F0Tn6x2XE.svg" clip-path="url(#clip0_1_181)">
<path id="Vector" d="M61.467 28.242C61.0713 27.8466 60.5348 27.6245 59.9755 27.6245C59.4161 27.6245 58.8796 27.8466 58.484 28.242L49.526 37.2C49.1306 37.5957 48.9085 38.1321 48.9085 38.6915C48.9085 39.2509 49.1306 39.7874 49.526 40.183C52.1644 42.8088 53.9691 46.1549 54.714 49.802C54.8112 50.2783 55.0699 50.7064 55.4463 51.014C55.8228 51.3215 56.2939 51.4897 56.78 51.49H69.598C69.897 51.49 70.1927 51.4265 70.4653 51.3036C70.7379 51.1807 70.9813 51.0012 71.1793 50.7771C71.3773 50.553 71.5254 50.2894 71.6138 50.0037C71.7022 49.718 71.7288 49.4168 71.692 49.12C70.712 41.271 67.082 33.857 61.467 28.242ZM36.095 49.392C35.0386 49.387 34.0192 49.7808 33.2405 50.4947C32.4619 51.2087 31.9814 52.1901 31.895 53.243C31.8446 53.8258 31.9158 54.4127 32.1041 54.9666C32.2924 55.5204 32.5938 56.0291 32.989 56.4603C33.3842 56.8916 33.8648 57.236 34.4001 57.4718C34.9355 57.7076 35.514 57.8296 36.099 57.83C37.1555 57.835 38.1751 57.4411 38.9537 56.727C39.7324 56.0128 40.2128 55.0311 40.299 53.978C40.3492 53.3953 40.2779 52.8085 40.0895 52.2548C39.9011 51.7011 39.5998 51.1925 39.2046 50.7614C38.8093 50.3302 38.3288 49.9859 37.7936 49.7502C37.2583 49.5144 36.6799 49.3925 36.095 49.392ZM10.657 13.52H2.21898C1.66745 13.532 1.14257 13.7595 0.75676 14.1538C0.370952 14.5481 0.154907 15.0779 0.154907 15.6295C0.154907 16.1812 0.370952 16.7109 0.75676 17.1052C1.14257 17.4995 1.66745 17.727 2.21898 17.739H10.657C11.2085 17.727 11.7334 17.4995 12.1192 17.1052C12.505 16.7109 12.721 16.1812 12.721 15.6295C12.721 15.0779 12.505 14.5481 12.1192 14.1538C11.7334 13.7595 11.2085 13.532 10.657 13.52ZM61.563 17.739H63.673V19.849C63.6643 20.1314 63.7124 20.4127 63.8145 20.6762C63.9165 20.9397 64.0705 21.18 64.2672 21.3828C64.4639 21.5857 64.6993 21.7469 64.9595 21.8571C65.2197 21.9672 65.4994 22.024 65.782 22.024C66.0645 22.024 66.3442 21.9672 66.6044 21.8571C66.8646 21.7469 67.1001 21.5857 67.2968 21.3828C67.4935 21.18 67.6474 20.9397 67.7495 20.6762C67.8516 20.4127 67.8997 20.1314 67.891 19.849V17.739H70.001C70.5525 17.727 71.0774 17.4995 71.4632 17.1052C71.849 16.7109 72.065 16.1812 72.065 15.6295C72.065 15.0779 71.849 14.5481 71.4632 14.1538C71.0774 13.7595 70.5525 13.532 70.001 13.52H67.891V11.41C67.879 10.8585 67.6514 10.3336 67.2571 9.9478C66.8628 9.56199 66.3331 9.34595 65.7815 9.34595C65.2298 9.34595 64.7001 9.56199 64.3058 9.9478C63.9115 10.3336 63.684 10.8585 63.672 11.41V13.52H61.563C61.0115 13.532 60.4866 13.7595 60.1008 14.1538C59.715 14.5481 59.4989 15.0779 59.4989 15.6295C59.4989 16.1812 59.715 16.7109 60.1008 17.1052C60.4866 17.4995 61.0115 17.727 61.563 17.739Z" fill="url(#paint0_linear_1_181)"/>
<path id="Vector_2" d="M49.526 40.183L54.673 35.036L61.467 28.242C54.693 21.469 45.687 17.74 36.11 17.74C18.056 17.74 2.76 31.23 0.529996 49.12C0.493158 49.4167 0.519786 49.7178 0.608117 50.0034C0.696449 50.289 0.844466 50.5526 1.04236 50.7767C1.24026 51.0008 1.48352 51.1803 1.75601 51.3032C2.02851 51.4262 2.32404 51.4899 2.623 51.49H15.44C15.9263 51.4899 16.3976 51.3219 16.7743 51.0143C17.1509 50.7067 17.4097 50.2784 17.507 49.802C19.301 41.002 27.125 34.615 36.11 34.615C41.172 34.615 45.937 36.592 49.526 40.183ZM53.311 41.237L43.989 46.619C42.2051 44.5923 39.7073 43.333 37.017 43.104C35.6371 42.9825 34.2468 43.1341 32.9256 43.5503C31.6044 43.9664 30.3781 44.6389 29.317 45.5293C28.2558 46.4197 27.3805 47.5105 26.7412 48.7393C26.1019 49.9682 25.711 51.311 25.591 52.691C25.4632 54.1306 25.6334 55.5811 26.091 56.952L24.085 58.11C22.224 59.185 22.988 62.047 25.142 62.047C26.05 62.047 26.427 61.552 28.205 60.603C29.9891 62.6299 32.4874 63.8893 35.178 64.118C36.558 64.2395 37.9483 64.0878 39.2696 63.6716C40.5909 63.2554 41.8172 62.5828 42.8784 61.6923C43.9395 60.8019 44.8148 59.7109 45.4541 58.482C46.0933 57.253 46.4841 55.9101 46.604 54.53C46.7317 53.0907 46.5615 51.6406 46.104 50.27L55.42 44.89C55.8891 44.6026 56.2275 44.1433 56.3629 43.6101C56.4983 43.0769 56.4201 42.5118 56.1449 42.0354C55.8697 41.559 55.4194 41.2089 54.8898 41.0598C54.3602 40.9106 53.7944 40.9742 53.311 41.237ZM38.198 53.795C38.1794 54.0752 38.105 54.3488 37.9792 54.5999C37.8535 54.8509 37.6789 55.0744 37.4656 55.2571C37.2524 55.4398 37.0049 55.5781 36.7375 55.6639C36.4701 55.7497 36.1883 55.7813 35.9086 55.7568C35.6289 55.7324 35.3569 55.6523 35.1085 55.5213C34.8601 55.3903 34.6404 55.2111 34.4621 54.9941C34.2839 54.7771 34.1508 54.5267 34.0706 54.2576C33.9904 53.9885 33.9647 53.7061 33.995 53.427C34.0546 52.8782 34.3269 52.3747 34.7534 52.0244C35.18 51.674 35.7268 51.5048 36.2767 51.5529C36.8266 51.6011 37.3357 51.8628 37.6948 52.2819C38.054 52.701 38.2346 53.2442 38.198 53.795Z" fill="url(#paint1_linear_1_181)"/>
</g>
<defs>
<linearGradient id="paint0_linear_1_181" x1="36.11" y1="57.83" x2="36.11" y2="9.30202" gradientUnits="userSpaceOnUse">
<stop offset="0.9" stop-color="#E6FFF1"/>
<stop offset="0.9969" stop-color="#C3FFE8"/>
<stop offset="0.997" stop-color="#F0FFF4"/>
</linearGradient>
<linearGradient id="paint1_linear_1_181" x1="30.99" y1="64.158" x2="30.99" y2="17.74" gradientUnits="userSpaceOnUse">
<stop stop-color="#B880FC"/>
<stop offset="1" stop-color="#B880FC"/>
</linearGradient>
<clipPath id="clip0_1_181">
<rect width="72" height="72" fill="white" transform="translate(0.109985 0.72998)"/>
</clipPath>
</defs>
</svg>
