<svg width="13" height="13" viewBox="0 0 13 13" fill="none" xmlns="http://www.w3.org/2000/svg">
<g id="dgfxV4Hwmwq3tkDCZQkfeo7A.svg" clip-path="url(#clip0_1_313)">
<g id="Clip path group">
<mask id="mask0_1_313" style="mask-type:luminance" maskUnits="userSpaceOnUse" x="0" y="0" width="13" height="13">
<g id="a">
<path id="Vector" d="M0.480003 0.629883H12.48V12.6299H0.480003V0.629883Z" fill="white"/>
</g>
</mask>
<g mask="url(#mask0_1_313)">
<g id="Group">
<path id="Vector_2" d="M0.480003 11.6299V5.62988C0.480003 5.09945 0.690717 4.59074 1.06579 4.21567C1.44086 3.8406 1.94957 3.62988 2.48 3.62988V11.6299C2.48 11.8951 2.37465 12.1495 2.18711 12.337C1.99957 12.5245 1.74522 12.6299 1.48 12.6299C1.21479 12.6299 0.960433 12.5245 0.772897 12.337C0.58536 12.1495 0.480003 11.8951 0.480003 11.6299ZM12.48 3.12988V10.1299C12.48 10.4582 12.4153 10.7833 12.2897 11.0866C12.1641 11.3899 11.9799 11.6655 11.7478 11.8976C11.5156 12.1298 11.24 12.3139 10.9367 12.4396C10.6334 12.5652 10.3083 12.6299 9.98 12.6299H3.202C3.38194 12.3272 3.47791 11.982 3.48 11.6299V3.12988C3.48 2.46684 3.7434 1.83096 4.21224 1.36212C4.68108 0.893275 5.31696 0.629883 5.98 0.629883L9.98 0.629883C10.3083 0.629883 10.6334 0.694547 10.9367 0.820184C11.24 0.945821 11.5156 1.12997 11.7478 1.36212C11.9799 1.59426 12.1641 1.86986 12.2897 2.17317C12.4153 2.47649 12.48 2.80158 12.48 3.12988ZM5.48 4.62988H6.48C6.61261 4.62988 6.73979 4.5772 6.83356 4.48344C6.92732 4.38967 6.98 4.26249 6.98 4.12988V3.12988C6.98 2.99727 6.92732 2.8701 6.83356 2.77633C6.73979 2.68256 6.61261 2.62988 6.48 2.62988H5.48C5.34739 2.62988 5.22022 2.68256 5.12645 2.77633C5.03268 2.8701 4.98 2.99727 4.98 3.12988V4.12988C4.98 4.26249 5.03268 4.38967 5.12645 4.48344C5.22022 4.5772 5.34739 4.62988 5.48 4.62988ZM10.48 9.62988H5.48C5.34739 9.62988 5.22022 9.68256 5.12645 9.77633C5.03268 9.8701 4.98 9.99727 4.98 10.1299C4.98 10.2625 5.03268 10.3897 5.12645 10.4834C5.22022 10.5772 5.34739 10.6299 5.48 10.6299H10.48C10.6126 10.6299 10.7398 10.5772 10.8336 10.4834C10.9273 10.3897 10.98 10.2625 10.98 10.1299C10.98 9.99727 10.9273 9.8701 10.8336 9.77633C10.7398 9.68256 10.6126 9.62988 10.48 9.62988ZM10.48 7.62988H5.48C5.34739 7.62988 5.22022 7.68256 5.12645 7.77633C5.03268 7.8701 4.98 7.99727 4.98 8.12988C4.98 8.26249 5.03268 8.38967 5.12645 8.48344C5.22022 8.5772 5.34739 8.62988 5.48 8.62988H10.48C10.6126 8.62988 10.7398 8.5772 10.8336 8.48344C10.9273 8.38967 10.98 8.26249 10.98 8.12988C10.98 7.99727 10.9273 7.8701 10.8336 7.77633C10.7398 7.68256 10.6126 7.62988 10.48 7.62988ZM10.48 5.62988H5.48C5.34739 5.62988 5.22022 5.68256 5.12645 5.77633C5.03268 5.8701 4.98 5.99727 4.98 6.12988C4.98 6.26249 5.03268 6.38967 5.12645 6.48344C5.22022 6.5772 5.34739 6.62988 5.48 6.62988H10.48C10.6126 6.62988 10.7398 6.5772 10.8336 6.48344C10.9273 6.38967 10.98 6.26249 10.98 6.12988C10.98 5.99727 10.9273 5.8701 10.8336 5.77633C10.7398 5.68256 10.6126 5.62988 10.48 5.62988ZM10.48 3.62988H8.48C8.34739 3.62988 8.22022 3.68256 8.12645 3.77633C8.03268 3.8701 7.98 3.99727 7.98 4.12988C7.98 4.26249 8.03268 4.38967 8.12645 4.48344C8.22022 4.5772 8.34739 4.62988 8.48 4.62988H10.48C10.6126 4.62988 10.7398 4.5772 10.8336 4.48344C10.9273 4.38967 10.98 4.26249 10.98 4.12988C10.98 3.99727 10.9273 3.8701 10.8336 3.77633C10.7398 3.68256 10.6126 3.62988 10.48 3.62988Z" fill="white"/>
</g>
</g>
</g>
</g>
<defs>
<clipPath id="clip0_1_313">
<rect width="12" height="12" fill="white" transform="translate(0.480003 0.629883)"/>
</clipPath>
</defs>
</svg>
