<svg width="73" height="73" viewBox="0 0 73 73" fill="none" xmlns="http://www.w3.org/2000/svg">
<g id="24PjHL1CHhT58TsPfV5MFy1Gxc.svg" clip-path="url(#clip0_1_156)">
<path id="Vector" d="M58.044 49.5969H41.169C40.6094 49.5969 40.0727 49.3746 39.677 48.9789C39.2813 48.5832 39.059 48.0465 39.059 47.4869V36.7999H30.622V47.4879C30.622 48.0475 30.3997 48.5842 30.004 48.9799C29.6083 49.3756 29.0716 49.5979 28.512 49.5979H15.856C7.63598 49.5969 0.949982 42.9099 0.949982 34.6899C0.949982 28.9699 4.28898 23.7729 9.40098 21.3099C9.78198 11.0989 18.209 2.90991 28.512 2.90991C34.839 2.90991 40.771 6.12691 44.314 11.3949C44.684 11.3629 45.036 11.3469 45.388 11.3469C51.11 11.3469 56.308 14.6869 58.77 19.8019C66.654 20.1819 72.95 26.7149 72.95 34.6909C72.95 42.9109 66.263 49.5969 58.044 49.5969Z" fill="url(#paint0_linear_1_156)"/>
<path id="Vector_2" d="M34.84 70.5501C34.5308 70.5499 34.2255 70.4819 33.9455 70.3507C33.6656 70.2196 33.4179 70.0285 33.22 69.7911L22.673 57.1351C22.4165 56.827 22.2531 56.4523 22.2019 56.0548C22.1506 55.6572 22.2137 55.2533 22.3837 54.8903C22.5536 54.5273 22.8234 54.2203 23.1616 54.005C23.4997 53.7898 23.8922 53.6754 24.293 53.6751H26.403V34.6911C26.403 34.1314 26.6253 33.5948 27.021 33.1991C27.4167 32.8034 27.9534 32.5811 28.513 32.5811H41.169C41.7286 32.5811 42.2653 32.8034 42.661 33.1991C43.0567 33.5948 43.279 34.1314 43.279 34.6911V53.6751H45.387C45.7878 53.6754 46.1802 53.7898 46.5184 54.005C46.8565 54.2203 47.1263 54.5273 47.2963 54.8903C47.4662 55.2533 47.5293 55.6572 47.4781 56.0548C47.4268 56.4523 47.2634 56.827 47.007 57.1351L36.462 69.7911C36.062 70.2721 35.468 70.5511 34.842 70.5511L34.84 70.5501Z" fill="url(#paint1_linear_1_156)"/>
<path id="Vector_3" d="M34.84 70.5501C34.5308 70.5499 34.2255 70.4819 33.9455 70.3507C33.6656 70.2196 33.4179 70.0285 33.22 69.7911L22.673 57.1351C22.4165 56.827 22.2531 56.4523 22.2019 56.0548C22.1506 55.6572 22.2137 55.2533 22.3837 54.8903C22.5536 54.5273 22.8234 54.2203 23.1616 54.005C23.4997 53.7898 23.8922 53.6754 24.293 53.6751H26.403V34.6911C26.403 34.1314 26.6253 33.5948 27.021 33.1991C27.4167 32.8034 27.9534 32.5811 28.513 32.5811H41.169C41.7286 32.5811 42.2653 32.8034 42.661 33.1991C43.0567 33.5948 43.279 34.1314 43.279 34.6911V53.6751H45.387C45.7878 53.6754 46.1802 53.7898 46.5184 54.005C46.8565 54.2203 47.1263 54.5273 47.2963 54.8903C47.4662 55.2533 47.5293 55.6572 47.4781 56.0548C47.4268 56.4523 47.2634 56.827 47.007 57.1351L36.462 69.7911C36.062 70.2721 35.468 70.5511 34.842 70.5511L34.84 70.5501Z" fill="url(#paint2_linear_1_156)"/>
</g>
<defs>
<linearGradient id="paint0_linear_1_156" x1="36.95" y1="49.5969" x2="36.95" y2="2.90991" gradientUnits="userSpaceOnUse">
<stop stop-color="#B880FC"/>
<stop offset="1" stop-color="#B880FC"/>
</linearGradient>
<linearGradient id="paint1_linear_1_156" x1="34.841" y1="70.5501" x2="34.841" y2="32.5821" gradientUnits="userSpaceOnUse">
<stop stop-color="#C3FFE8"/>
<stop offset="0.997" stop-color="#F0FFF4"/>
</linearGradient>
<linearGradient id="paint2_linear_1_156" x1="34.841" y1="70.5501" x2="34.841" y2="32.5821" gradientUnits="userSpaceOnUse">
<stop stop-color="#DBD2FF"/>
<stop offset="0.997" stop-color="#F5F2FF"/>
</linearGradient>
<clipPath id="clip0_1_156">
<rect width="72" height="72" fill="white" transform="translate(0.949982 0.72998)"/>
</clipPath>
</defs>
</svg>
