<svg width="152" height="38" viewBox="0 0 152 38" fill="none" xmlns="http://www.w3.org/2000/svg">
<g id="qEEfcBu3VyAPDSVbdSv6lSFpfxI.svg" clip-path="url(#clip0_1_93)">
<path id="Vector" d="M14.3819 10.2026C14.295 10.082 14.195 10.0184 14.0847 10.0184C14.0028 10.0222 13.9239 10.0498 13.8575 10.0979C13.02 10.7859 11.8749 13.7004 10.9355 17.5423L11.7665 17.5516C13.4088 17.5712 15.1035 17.5918 16.7805 17.6189C16.4089 16.1124 15.9943 14.6168 15.5373 13.134C14.9783 11.3542 14.6007 10.5578 14.3819 10.2026Z" fill="white"/>
<path id="Vector_2" d="M16.2449 2.79553C7.55913 2.79553 0.517639 10.1614 0.517639 19.2481C0.517639 28.3349 7.55913 35.7016 16.2458 35.7016C24.9306 35.7016 31.9721 28.3358 31.9721 19.2481C31.9721 10.1623 24.9297 2.79553 16.2449 2.79553ZM27.5535 19.5463L27.5488 19.55C27.532 19.5645 27.5145 19.5782 27.4965 19.5912L27.4787 19.6043C27.4559 19.6195 27.4325 19.6339 27.4086 19.6473L27.4067 19.6491C27.288 19.7147 27.1545 19.7492 27.0188 19.7492H19.5698C19.6287 20.0071 19.6941 20.3007 19.7651 20.6194C20.1727 22.4637 21.2579 27.3636 22.4105 27.3636H22.4329L22.4451 27.3618H22.4675C23.3677 27.3618 23.8266 26.0008 24.8334 23.018L24.8455 22.9815C25.0072 22.5029 25.1895 21.9626 25.3877 21.3906L25.4382 21.2448C25.4621 21.174 25.5075 21.1125 25.5679 21.0686C25.6284 21.0248 25.7009 21.0007 25.7756 20.9998C25.9747 20.9998 26.1364 21.169 26.1364 21.3775C26.1363 21.4141 26.1313 21.4506 26.1215 21.4859L26.0794 21.6327C25.9747 21.9879 25.8625 22.4712 25.7335 23.0311C25.1344 25.6325 24.2286 29.5622 21.902 29.5622H21.8852C20.383 29.55 19.4828 27.0365 19.0996 25.9634C18.3808 23.9574 17.8377 21.8187 17.3142 19.7473H10.4559L9.0323 24.5145L9.01174 24.4977C8.94869 24.6039 8.8593 24.6921 8.7522 24.7537C8.64511 24.8152 8.52394 24.8481 8.40041 24.8492C8.00314 24.8492 7.67785 24.5108 7.67598 24.0948L7.67785 24.0696L7.76384 23.5302C7.96014 22.3057 8.1957 21.0344 8.46491 19.7482H5.56905L5.55876 19.7379C5.03343 19.6585 4.62962 19.1733 4.62962 18.6069C4.62962 18.0535 5.00445 17.5805 5.52137 17.4852C5.6337 17.4725 5.74673 17.4672 5.85975 17.4693C5.90182 17.4693 5.94855 17.4693 5.99997 17.4712C6.91883 17.488 7.89191 17.5029 8.96033 17.5179C10.4718 11.0924 12.2226 7.83011 14.165 7.8217C16.2486 7.8217 17.7947 12.7852 19.0314 17.6403L19.037 17.66C21.5795 17.7133 24.2884 17.7908 26.9225 17.9881L27.0328 17.9993C27.0758 17.9993 27.117 18.004 27.1581 18.0105L27.1731 18.0124L27.1861 18.0152L27.1927 18.0171C27.3853 18.061 27.5568 18.17 27.6786 18.3256C27.8003 18.4812 27.8647 18.6739 27.861 18.8714C27.8615 18.9997 27.8341 19.1265 27.7809 19.2431C27.7276 19.3598 27.6497 19.4636 27.5526 19.5472L27.5535 19.5463ZM40.6989 23.3657L39.4529 26.5887H35.8307L42.7227 9.75851H45.9214L52.789 26.5897H49.1902L47.9433 23.3666L40.6989 23.3657ZM44.2977 14.0154L41.9459 20.1427H46.6972L44.2977 14.0154ZM73.204 20.1184V26.5897H69.9343V20.4128C69.9343 18.5433 69.0649 17.5338 67.5357 17.5338C66.8533 17.5338 66.1008 17.8544 65.4185 18.8387C65.4652 19.2565 65.512 19.6753 65.512 20.1184V26.5897H62.245V20.4128C62.245 18.5433 61.3747 17.5338 59.8221 17.5338C59.1865 17.5338 58.4807 17.9283 57.8227 18.863V26.5897H54.5538V14.8024H57.8227V15.5166C58.5284 14.8267 59.2809 14.4332 60.5989 14.4332C62.0328 14.4332 63.3022 15.024 64.1977 16.1064C65.396 14.9501 66.5252 14.4332 68.2891 14.4332C71.041 14.4332 73.204 16.6729 73.204 20.1184ZM87.5731 20.7073C87.5731 24.1275 85.0801 26.8336 81.9758 26.8336C80.7054 26.8336 79.6473 26.4897 78.777 25.8989V32.272H75.5091V14.8015H78.778V15.4904C79.6482 14.8997 80.7073 14.5557 81.9767 14.5557C85.0801 14.5557 87.5731 17.2384 87.5731 20.7073ZM84.351 20.7073C84.351 18.9602 83.1283 17.4347 81.4345 17.4347C80.4699 17.4347 79.5052 17.7787 78.777 18.8125V22.5777C79.5061 23.5863 80.4699 23.9303 81.4345 23.9303C83.1274 23.9312 84.351 22.43 84.351 20.7073ZM92.6777 26.5887H89.4089V9.1182H92.6777V26.5887ZM95.6185 10.6447C95.6185 9.48836 96.4887 8.62652 97.5936 8.62652C98.6761 8.62652 99.5463 9.48743 99.5463 10.6456C99.5463 11.7766 98.6761 12.6132 97.5936 12.6132C96.4887 12.6132 95.6185 11.7766 95.6185 10.6447ZM99.2406 14.8034V26.5897H95.9709V14.8024H99.2406V14.8034ZM111.118 26.4167C109.753 26.8598 109.142 26.958 108.083 26.958C105.355 26.958 103.568 24.9398 103.568 21.8897V17.6815H101.191V14.8024H103.568V10.5951H106.813V14.8024H110.882V17.6815H106.813V21.8645C106.813 23.1937 107.589 23.8088 108.788 23.8088C109.4 23.8088 110.059 23.6611 110.693 23.4891L111.118 26.4167ZM124.24 26.5878H120.97V25.7521C120.053 26.514 119.018 26.958 117.748 26.958C114.785 26.958 112.809 24.7183 112.809 21.298V14.8015H116.077V20.9784C116.077 22.8479 116.972 23.8574 118.5 23.8574C119.324 23.8574 120.217 23.3405 120.97 22.3805V14.8024H124.24V26.5878ZM138.118 26.5887H134.848V25.8998C133.978 26.4906 132.92 26.8346 131.649 26.8346C128.545 26.8346 126.029 24.1518 126.029 20.683C126.029 17.2627 128.545 14.5557 131.649 14.5557C132.92 14.5557 133.978 14.8997 134.848 15.4904V9.11914H138.118V26.5887ZM134.848 22.5786V18.8135C134.119 17.8039 133.154 17.4599 132.191 17.4599C130.474 17.4599 129.273 18.9612 129.273 20.683C129.273 22.431 130.473 23.9565 132.191 23.9565C133.154 23.9565 134.119 23.6116 134.848 22.5786ZM151.381 21.57H143.079C143.338 22.9469 144.208 24.0303 145.995 24.0303C146.912 24.0303 147.548 23.7349 147.9 23.1442H151.311C150.7 25.4081 148.583 26.958 145.925 26.958C142.303 26.958 139.857 24.2276 139.857 20.7082C139.857 17.0664 142.279 14.4332 145.831 14.4332C149.053 14.4332 151.451 16.8196 151.451 20.4624C151.451 20.954 151.428 21.2261 151.381 21.57ZM143.102 19.551H148.206C148.018 18.0759 147.171 17.2636 145.854 17.2636C144.278 17.2636 143.408 18.2218 143.102 19.551Z" fill="white"/>
</g>
<defs>
<clipPath id="clip0_1_93">
<rect width="151.43" height="37.3901" fill="white" transform="translate(0.140015 0.184814)"/>
</clipPath>
</defs>
</svg>
