<svg width="114" height="41" viewBox="0 0 114 41" fill="none" xmlns="http://www.w3.org/2000/svg">
<g id="4GzFoH55plK8wMrd7JdrYFUVZg.svg" clip-path="url(#clip0_1_80)">
<path id="Vector" d="M23.622 14.8469C19.537 14.8469 16.345 17.9339 16.345 22.0669C16.345 26.2009 19.456 29.2619 23.622 29.2619C27.788 29.2619 30.954 26.1479 30.954 22.0419C30.954 17.9609 27.842 14.8469 23.622 14.8469ZM23.65 26.2829C21.323 26.2829 19.618 24.4839 19.618 22.0679C19.618 19.6249 21.296 17.8279 23.622 17.8279C25.976 17.8279 27.68 19.6529 27.68 22.0679C27.68 24.4839 25.976 26.2829 23.65 26.2829ZM31.846 17.9879H33.876V28.9949H37.121V15.1149H31.846V17.9879ZM8.17505 17.8259C9.88005 17.8259 11.232 18.8729 11.745 20.4299H15.182C14.559 17.1019 11.8 14.8469 8.20205 14.8469C4.11705 14.8469 0.925049 17.9339 0.925049 22.0689C0.925049 26.2029 4.03605 29.2629 8.20205 29.2629C11.719 29.2629 14.532 27.0079 15.155 23.6519H11.745C11.259 25.2089 9.90605 26.2829 8.20105 26.2829C5.84705 26.2829 4.19805 24.4839 4.19805 22.0679C4.19805 19.6249 5.82205 17.8259 8.17505 17.8259ZM93.526 20.7259L91.146 20.3769C90.01 20.2169 89.1981 19.8409 89.1981 18.9549C89.1981 17.9879 90.2541 17.5049 91.687 17.5049C93.2561 17.5049 94.257 18.1759 94.4741 19.2769H97.612C97.26 16.4849 95.095 14.8469 91.7691 14.8469C88.3321 14.8469 86.0601 16.5929 86.0601 19.0619C86.0601 21.4239 87.548 22.7939 90.55 23.2229L92.931 23.5719C94.095 23.7319 94.744 24.1899 94.744 25.0479C94.744 26.1489 93.608 26.6049 92.039 26.6049C90.118 26.6049 89.036 25.8269 88.873 24.6449H85.681C85.98 27.3569 88.1161 29.2629 92.011 29.2629C95.556 29.2629 97.909 27.6529 97.909 24.8869C97.909 22.4169 96.205 21.1279 93.526 20.7259ZM35.4981 9.39694C34.3081 9.39694 33.4151 10.2559 33.4151 11.4369C33.4151 12.6169 34.3071 13.4769 35.4981 13.4769C36.688 13.4769 37.5821 12.6169 37.5821 11.4369C37.5821 10.2559 36.689 9.39694 35.4981 9.39694ZM83.138 19.8669C83.138 16.8609 81.299 14.8469 77.403 14.8469C73.724 14.8469 71.668 16.6999 71.263 19.5459H74.482C74.6441 18.4459 75.5101 17.5329 77.3491 17.5329C79.0001 17.5329 79.8111 18.2569 79.8111 19.1429C79.8111 20.2979 78.323 20.5929 76.484 20.7809C73.994 21.0489 70.911 21.9079 70.911 25.1299C70.911 27.6269 72.7781 29.2369 75.7541 29.2369C78.08 29.2369 79.541 28.2699 80.272 26.7399C80.3801 28.1089 81.4081 28.9949 82.842 28.9949H84.736V26.1229H83.139L83.138 19.8669ZM79.9461 23.3569C79.9461 25.2099 78.323 26.5789 76.348 26.5789C75.13 26.5789 74.1021 26.0689 74.1021 24.9949C74.1021 23.6259 75.7521 23.2499 77.2681 23.0899C78.7281 22.9559 79.5401 22.6339 79.9461 22.0159V23.3569ZM62.7141 14.8469C60.9011 14.8469 59.3861 15.5989 58.3041 16.8599V9.26294H55.058V28.9949H58.25V27.1689C59.3311 28.4849 60.8741 29.2629 62.7141 29.2629C66.609 29.2629 69.5581 26.2029 69.5581 22.0689C69.5581 17.9339 66.5551 14.8469 62.7141 14.8469ZM62.227 26.2829C59.9 26.2829 58.196 24.4839 58.196 22.0679C58.196 19.6529 59.927 17.8279 62.253 17.8279C64.607 17.8279 66.257 19.6259 66.257 22.0679C66.257 24.4839 64.553 26.2829 62.227 26.2829ZM47.293 14.8469C45.183 14.8469 43.8031 15.7049 42.9911 16.9139V15.1139H39.771V28.9939H43.018V21.4499C43.018 19.3289 44.37 17.8249 46.372 17.8249C48.239 17.8249 49.4021 19.1409 49.4021 21.0469V28.9939H52.648V20.8059C52.65 17.3159 50.8381 14.8469 47.293 14.8469ZM113.384 21.6119C113.384 17.6389 110.462 14.8479 106.539 14.8479C102.373 14.8479 99.316 17.9619 99.316 22.0679C99.316 26.3909 102.589 29.2629 106.593 29.2629C109.975 29.2629 112.626 27.2759 113.302 24.4579H109.92C109.433 25.6929 108.243 26.3909 106.646 26.3909C104.563 26.3909 102.993 25.1019 102.642 22.8469H113.383L113.384 21.6119ZM102.832 20.5379C103.347 18.6049 104.807 17.6659 106.485 17.6659C108.324 17.6659 109.731 18.7129 110.056 20.5379H102.832Z" fill="#FCFDF2"/>
</g>
<defs>
<clipPath id="clip0_1_80">
<rect width="113" height="40" fill="white" transform="translate(0.925049 0.929932)"/>
</clipPath>
</defs>
</svg>
