<svg width="152" height="38" viewBox="0 0 152 38" fill="none" xmlns="http://www.w3.org/2000/svg">
<g id="2efvscZcKjI7rNXf2bhafJvOvOM.svg" clip-path="url(#clip0_1_67)">
<path id="Vector" d="M28.0467 9.06263L27.0556 8.07145C26.0625 7.01328 25.0044 5.95418 23.6828 5.2934C22.1621 4.49954 20.5092 4.69777 18.8554 4.69777H6.36288L8.87479 8.06961H23.8829C25.2705 8.06961 26.4618 8.33393 27.5851 9.06079C27.7833 9.12779 27.9816 9.12779 28.0477 9.06079L28.0467 9.06263Z" fill="#66C61C"/>
<path id="Vector_2" d="M30.8239 14.4839L29.8327 13.4927C28.8415 12.4346 27.7834 11.3764 26.4609 10.7156C24.9401 9.92267 23.2873 10.1209 21.6344 10.1209H10.5277L13.0396 13.4927H26.7252C28.1138 13.4927 29.3041 13.7571 30.4274 14.4839C30.4885 14.5164 30.5565 14.5334 30.6257 14.5334C30.6948 14.5334 30.7629 14.5164 30.8239 14.4839Z" fill="#4CA30D"/>
<path id="Vector_3" d="M33.9314 19.7729L32.9402 18.7817C31.9491 17.7235 30.8909 16.6654 29.5684 16.0046C28.0477 15.2107 26.3948 15.409 24.7419 15.409H14.5603L17.0731 18.7808H29.7666C31.1552 18.7808 32.3455 19.0451 33.4689 19.772C33.6671 19.839 33.7993 19.906 33.9314 19.7729Z" fill="#3B7C0F"/>
<path id="Vector_4" d="M6.09857 28.6981L7.08975 29.6893C8.08093 30.7474 9.14002 31.8047 10.4616 32.4664C11.9823 33.2593 13.6352 33.0611 15.2881 33.0611H27.7833L25.2705 29.6893H10.2634C8.87479 29.6893 7.68446 29.4249 6.56112 28.6981C6.36289 28.6311 6.23073 28.6311 6.09857 28.6981Z" fill="#66C61C"/>
<path id="Vector_5" d="M3.32144 23.2769L4.31354 24.2681C5.30472 25.3272 6.36289 26.3844 7.68538 27.0452C9.2061 27.8391 10.859 27.6408 12.5109 27.6408H23.6186L21.1057 24.269H7.42106C6.0325 24.269 4.84217 24.0047 3.71883 23.2778C3.65768 23.2452 3.58944 23.2281 3.52014 23.2281C3.45083 23.2281 3.38259 23.2443 3.32144 23.2769Z" fill="#4CA30D"/>
<path id="Vector_6" d="M0.279999 17.9209L1.27118 18.9121C2.26327 19.9712 3.32145 21.0284 4.64302 21.6892C6.16374 22.4831 7.81662 22.2848 9.47042 22.2848H19.6511L17.1383 18.913H4.44662C3.05805 18.913 1.86772 18.6487 0.743466 17.9218C0.545231 17.8548 0.413074 17.8548 0.280917 17.9218L0.279999 17.9209Z" fill="#3B7C0F"/>
<path id="Vector_7" d="M41.5268 11.2378V26.5276H44.8895V20.2107H51.2917V17.5979H44.8895V14.0645H52.2774V11.2378H41.5268ZM60.7098 19.8032H55.7631C55.7768 19.5894 55.82 19.3462 55.8915 19.0754C55.9769 18.8038 56.1118 18.5468 56.2981 18.3045C56.4982 18.0613 56.7551 17.8622 57.069 17.7043C57.3976 17.5336 57.8041 17.4473 58.2896 17.4473C59.0321 17.4473 59.5818 17.6474 59.9388 18.0476C60.3096 18.4468 60.5666 19.0323 60.7098 19.8032ZM55.7631 21.7305H63.7503C63.8101 20.9036 63.7379 20.0724 63.5365 19.2682C63.3495 18.5104 63.0145 17.7971 62.5508 17.1693C62.1056 16.5529 61.5181 16.0532 60.8382 15.7128C60.138 15.342 59.3175 15.1566 58.375 15.1566C57.5334 15.1566 56.7625 15.3062 56.0622 15.6063C55.392 15.8957 54.7876 16.3181 54.2855 16.848C53.7772 17.3758 53.3835 18.0029 53.1291 18.69C52.853 19.4295 52.7149 20.2134 52.7216 21.0027C52.7216 21.859 52.8501 22.6446 53.1071 23.3586C53.3595 24.0416 53.7454 24.6674 54.2423 25.1996C54.7278 25.7136 55.3198 26.1137 56.02 26.3991C56.7194 26.6699 57.504 26.8057 58.375 26.8057C59.6323 26.8057 60.7024 26.5212 61.5871 25.9494C62.4728 25.3786 63.129 24.4287 63.5576 23.1007H60.8805C60.7804 23.444 60.5097 23.7725 60.0673 24.0864C59.6241 24.3865 59.0963 24.5361 58.4824 24.5361C57.6261 24.5361 56.969 24.3149 56.5119 23.8716C56.0558 23.4293 55.8053 22.7153 55.7631 21.7305ZM64.7828 18.8616C64.8259 18.1476 65.0039 17.5547 65.3187 17.0839C65.6262 16.6188 66.0362 16.2304 66.5173 15.9486C67.0211 15.6564 67.5716 15.4537 68.1445 15.3493C68.7502 15.2217 69.3675 15.1571 69.9865 15.1566C70.5435 15.1566 71.107 15.1988 71.6779 15.2851C72.2496 15.3567 72.77 15.5063 73.2417 15.7348C73.7017 15.9543 74.0993 16.2856 74.3981 16.6984C74.6973 17.0977 74.8478 17.6336 74.8478 18.3045V24.0644C74.8478 24.5646 74.8763 25.0427 74.9332 25.4997C74.9901 25.9568 75.0901 26.2991 75.2333 26.5276H72.1496C72.0932 26.3583 72.0433 26.1868 72 26.0137C71.9716 25.8289 71.9502 25.643 71.9358 25.4566C71.4642 25.9477 70.8741 26.3089 70.2223 26.5056C69.5697 26.705 68.8911 26.8062 68.2088 26.8057C67.7097 26.8095 67.2125 26.7447 66.7312 26.613C66.2957 26.4951 65.8882 26.2913 65.5326 26.0137C65.1862 25.7378 64.9077 25.3862 64.7185 24.9858C64.5331 24.5719 64.4405 24.0791 64.4405 23.5082C64.4405 22.8795 64.5478 22.3656 64.7617 21.9664C64.9902 21.5525 65.2756 21.2239 65.6179 20.9816C65.9837 20.7348 66.3895 20.5534 66.8174 20.4457C67.2745 20.3172 67.7306 20.2171 68.1876 20.1465C68.6447 20.0749 69.0944 20.018 69.5368 19.9748C69.9791 19.9317 70.3719 19.8675 70.7152 19.7821C71.0575 19.6968 71.3282 19.5747 71.5283 19.4178C71.7284 19.2471 71.822 19.0048 71.8064 18.69C71.8064 18.3614 71.7495 18.1045 71.6357 17.9191C71.5439 17.7277 71.3938 17.5702 71.2071 17.4694C71.0199 17.3497 70.8069 17.2764 70.5858 17.2555C70.3386 17.2111 70.0879 17.1896 69.8369 17.1913C69.2366 17.1913 68.7658 17.3198 68.4235 17.5767C68.0803 17.8337 67.8811 18.2614 67.8242 18.8616H64.7828ZM71.8064 21.1101C71.6779 21.2239 71.5145 21.3166 71.3145 21.3882C71.1103 21.4497 70.9029 21.4996 70.6931 21.5378C70.4664 21.5827 70.238 21.6185 70.0085 21.6452C69.7653 21.6736 69.5221 21.7094 69.2798 21.7516C69.0481 21.7953 68.8192 21.8526 68.5942 21.9232C68.3865 21.9914 68.1913 22.0927 68.016 22.2234C67.8551 22.342 67.7232 22.4958 67.6306 22.6731C67.5315 22.8584 67.481 23.0943 67.481 23.3797C67.481 23.6505 67.5315 23.879 67.6306 24.0653C67.7315 24.2507 67.8664 24.4003 68.0381 24.515C68.2088 24.6141 68.4088 24.6857 68.6374 24.7288C68.8668 24.771 69.1017 24.7931 69.344 24.7931C69.9433 24.7931 70.4086 24.693 70.7363 24.493C71.0648 24.2929 71.3071 24.0579 71.464 23.7863C71.621 23.5018 71.7137 23.2154 71.7421 22.93C71.7853 22.6446 71.8064 22.4161 71.8064 22.2445V21.1101ZM80.4204 15.4567V12.1372H77.379V15.4567H75.538V17.4905H77.379V24.0222C77.379 24.5783 77.4717 25.028 77.658 25.3713C77.8434 25.7136 78.093 25.9779 78.4069 26.1633C78.7354 26.3487 79.1071 26.4707 79.521 26.5276C79.9487 26.5992 80.3984 26.635 80.8701 26.635C81.1693 26.635 81.4759 26.6277 81.7907 26.613C82.1045 26.5992 82.3899 26.5708 82.6469 26.5276V24.1718C82.4983 24.2011 82.3482 24.2226 82.1972 24.236C82.0412 24.2507 81.876 24.258 81.7053 24.258C81.1914 24.258 80.8481 24.1718 80.6774 24.001C80.5058 23.8294 80.4204 23.4871 80.4204 22.9732V17.4905H82.6469V15.4567H80.4204ZM83.4518 11.2378V26.5276H86.4923V20.7247C86.4923 19.5958 86.6777 18.79 87.0494 18.3045C87.4202 17.8043 88.0204 17.5547 88.8482 17.5547C89.576 17.5547 90.0826 17.7842 90.368 18.2403C90.6534 18.6826 90.7966 19.3609 90.7966 20.274V26.5276H93.8371V19.7179C93.8371 19.0323 93.7729 18.411 93.6444 17.8548C93.5306 17.284 93.3232 16.8058 93.024 16.4204C92.7239 16.0202 92.31 15.7137 91.7814 15.4989C91.2674 15.2704 90.6039 15.1566 89.7898 15.1566C89.219 15.1566 88.6334 15.3062 88.0342 15.6063C87.4349 15.8917 86.942 16.3561 86.5566 16.9986H86.4923V11.2378H83.4518ZM102.955 19.8032H98.0083C98.0283 19.5571 98.0713 19.3135 98.1368 19.0754C98.2261 18.7966 98.3637 18.5357 98.5434 18.3045C98.7435 18.0613 99.0004 17.8622 99.3143 17.7043C99.6429 17.5336 100.05 17.4473 100.535 17.4473C101.277 17.4473 101.827 17.6474 102.184 18.0476C102.556 18.4468 102.813 19.0323 102.955 19.8032ZM98.0083 21.7305H105.996C106.056 20.9036 105.984 20.0723 105.782 19.2682C105.595 18.5105 105.26 17.7972 104.797 17.1693C104.352 16.5528 103.764 16.0532 103.084 15.7128C102.384 15.342 101.563 15.1566 100.621 15.1566C99.7787 15.1566 99.0078 15.3062 98.3085 15.6063C97.638 15.8957 97.0332 16.3181 96.5308 16.848C96.0227 17.3759 95.629 18.003 95.3744 18.69C95.0989 19.4296 94.9611 20.2135 94.9678 21.0027C94.9678 21.859 95.0963 22.6446 95.3533 23.3586C95.6055 24.0415 95.9911 24.6673 96.4876 25.1996C96.9731 25.7136 97.566 26.1137 98.2653 26.3991C98.9646 26.6699 99.7503 26.8057 100.621 26.8057C101.878 26.8057 102.948 26.5212 103.833 25.9494C104.718 25.3786 105.375 24.4287 105.803 23.1007H103.127C103.027 23.444 102.755 23.7725 102.313 24.0864C101.87 24.3865 101.342 24.5361 100.728 24.5361C99.8714 24.5361 99.2152 24.3149 98.7582 23.8716C98.3011 23.4293 98.0515 22.7153 98.0083 21.7305ZM107.157 15.4567V26.5276H110.198V21.5378C110.198 21.0385 110.248 20.5741 110.348 20.1455C110.435 19.7451 110.603 19.3665 110.84 19.0323C111.086 18.7014 111.41 18.4365 111.783 18.2614C112.168 18.076 112.639 17.9833 113.196 17.9833C113.382 17.9833 113.574 17.9971 113.775 18.0264C113.974 18.0402 114.145 18.0613 114.288 18.0907V15.264C114.073 15.1969 113.849 15.1607 113.624 15.1566C113.239 15.1566 112.868 15.2135 112.511 15.3282C112.153 15.4426 111.814 15.6083 111.504 15.8202C111.19 16.0202 110.912 16.2699 110.669 16.57C110.429 16.8521 110.234 17.1697 110.091 17.5116H110.048V15.4558H107.157V15.4567ZM118.521 23.7009V14.0645H120.919C121.747 14.0645 122.44 14.1856 122.997 14.4279C123.568 14.6574 124.025 14.9923 124.367 15.4347C124.71 15.8771 124.953 16.413 125.095 17.0408C125.252 17.6557 125.331 18.3477 125.331 19.1186C125.331 19.9602 125.224 20.6742 125.01 21.2597C124.796 21.8452 124.51 22.3234 124.153 22.6942C123.811 23.0415 123.394 23.3053 122.933 23.4651C122.478 23.6218 122 23.7015 121.519 23.7009H118.521ZM115.159 11.2378V26.5276H121.754C122.925 26.5276 123.939 26.3349 124.796 25.9494C125.666 25.5493 126.387 25.0069 126.958 24.3223C127.544 23.6367 127.979 22.8226 128.265 21.881C128.55 20.9385 128.693 19.9106 128.693 18.7974C128.693 17.5263 128.515 16.4204 128.158 15.4778C127.815 14.5353 127.33 13.7506 126.701 13.1219C126.082 12.4905 125.328 12.0073 124.496 11.7086C123.653 11.3947 122.74 11.2378 121.754 11.2378H115.159ZM137.52 19.8032H132.573C132.593 19.5572 132.636 19.3136 132.701 19.0754C132.788 18.8038 132.924 18.5468 133.109 18.3045C133.309 18.0613 133.566 17.8622 133.88 17.7043C134.208 17.5336 134.615 17.4473 135.1 17.4473C135.843 17.4473 136.393 17.6474 136.749 18.0476C137.12 18.4468 137.377 19.0323 137.52 19.8032ZM132.573 21.7305H140.561C140.621 20.9035 140.548 20.0724 140.346 19.2682C140.16 18.5103 139.825 17.797 139.362 17.1693C138.916 16.5526 138.328 16.0529 137.648 15.7128C136.949 15.342 136.128 15.1566 135.186 15.1566C134.343 15.1566 133.572 15.3062 132.873 15.6063C132.203 15.8957 131.598 16.3181 131.095 16.848C130.587 17.3759 130.194 18.003 129.939 18.69C129.663 19.4296 129.526 20.2135 129.532 21.0027C129.532 21.859 129.661 22.6446 129.918 23.3586C130.17 24.0415 130.556 24.6673 131.053 25.1996C131.539 25.7136 132.131 26.1137 132.83 26.3991C133.53 26.6699 134.315 26.8057 135.186 26.8057C136.442 26.8057 137.513 26.5212 138.398 25.9494C139.284 25.3786 139.94 24.4287 140.368 23.1007H137.691C137.591 23.444 137.32 23.7725 136.877 24.0864C136.435 24.3865 135.907 24.5361 135.293 24.5361C134.436 24.5361 133.78 24.3149 133.323 23.8716C132.866 23.4293 132.616 22.7153 132.573 21.7305ZM147.846 26.5276L151.594 15.4567H148.575L146.24 23.0154H146.198L143.863 15.4567H140.673L144.463 26.5276H147.846Z" fill="#FCFCFD"/>
</g>
<defs>
<clipPath id="clip0_1_67">
<rect width="151.43" height="36.7103" fill="white" transform="translate(0.279999 0.52478)"/>
</clipPath>
</defs>
</svg>
