<svg width="111" height="41" viewBox="0 0 111 41" fill="none" xmlns="http://www.w3.org/2000/svg">
<g id="kRjTFBt6la3WsaAblsHqWH7A1rc.svg" clip-path="url(#clip0_1_54)">
<g id="Clip path group">
<mask id="mask0_1_54" style="mask-type:luminance" maskUnits="userSpaceOnUse" x="0" y="0" width="111" height="41">
<g id="a">
<path id="Vector" d="M0.565002 0.819946H110.565V40.8199H0.565002V0.819946Z" fill="white"/>
</g>
</mask>
<g mask="url(#mask0_1_54)">
<g id="Group">
<path id="Vector_2" d="M0.565002 0.821946V31.8079L4.43 31.8199V17.0639H13.748V13.1639H4.43V4.71995H16.565V0.819946L0.565002 0.821946ZM24.065 6.81995C24.728 6.81995 25.3639 6.55655 25.8328 6.08771C26.3016 5.61887 26.565 4.98299 26.565 4.31995C26.565 3.65691 26.3016 3.02102 25.8328 2.55218C25.3639 2.08334 24.728 1.81995 24.065 1.81995C23.402 1.81995 22.7661 2.08334 22.2972 2.55218C21.8284 3.02102 21.565 3.65691 21.565 4.31995C21.565 4.98299 21.8284 5.61887 22.2972 6.08771C22.7661 6.55655 23.402 6.81995 24.065 6.81995ZM22.565 10.8199V31.8199H26.565V10.8199H22.565Z" fill="white"/>
<path id="Vector_3" fill-rule="evenodd" clip-rule="evenodd" d="M40.625 10.8199C35.289 10.8199 31.565 15.2799 31.565 20.5749C31.565 25.8709 35.289 30.3309 40.625 30.3309C43.068 30.3309 45.081 29.3959 46.547 27.8749V30.6329C46.547 34.0659 43.818 36.9349 40.257 36.9349C38.977 36.9349 37.705 36.4449 36.692 35.7549L34.679 39.2009C36.3457 40.262 38.2813 40.8237 40.257 40.8199C45.95 40.8199 50.565 36.2599 50.565 30.6329V11.4239H46.547V13.2759C45.081 11.7549 43.068 10.8199 40.625 10.8199ZM35.583 20.5749C35.583 17.2879 38.127 14.7049 41.062 14.7049C43.996 14.7049 46.54 17.2879 46.54 20.5749C46.54 23.8619 43.996 26.4449 41.062 26.4449C38.128 26.4449 35.583 23.8619 35.583 20.5749Z" fill="white"/>
<path id="Vector_4" d="M64.811 14.6459C62.456 14.6459 60.547 16.6059 60.547 18.9179V31.8199H56.565V11.4149H60.547V13.2849C61.715 11.8019 63.433 10.8199 65.677 10.8199C68.467 10.8199 70.607 12.1809 71.848 14.2639C73.228 12.2519 75.478 10.8199 78.185 10.8199C82.717 10.8199 85.538 14.4109 85.565 18.8539V31.8199H81.583V18.9179C81.583 16.6059 79.674 14.6459 77.319 14.6459C74.965 14.6459 73.056 16.6059 73.056 18.9179V31.8199H69.074V18.9179C69.074 16.6059 67.165 14.6459 64.811 14.6459Z" fill="white"/>
<path id="Vector_5" fill-rule="evenodd" clip-rule="evenodd" d="M106.606 13.7829C105.708 12.8391 104.626 12.0893 103.427 11.5797C102.228 11.0701 100.938 10.8115 99.635 10.8199C93.745 10.8199 89.565 15.8379 89.565 21.8199C89.565 27.8019 93.745 32.8199 99.635 32.8199C100.938 32.8283 102.228 32.5697 103.427 32.0601C104.626 31.5505 105.708 30.8007 106.606 29.8569V32.2139H110.565V11.4259H106.606V13.7829ZM93.524 21.8199C93.524 17.8519 96.544 14.7179 100.065 14.7179C103.587 14.7179 106.606 17.8519 106.606 21.8199C106.606 25.7879 103.587 28.9219 100.065 28.9219C96.543 28.9219 93.524 25.7879 93.524 21.8199Z" fill="white"/>
</g>
</g>
</g>
</g>
<defs>
<clipPath id="clip0_1_54">
<rect width="110" height="40" fill="white" transform="translate(0.565002 0.819946)"/>
</clipPath>
</defs>
</svg>
