<svg width="153" height="38" viewBox="0 0 153 38" fill="none" xmlns="http://www.w3.org/2000/svg">
<g id="ilPpf6qDDVTDAwwYfJkKmFCfKY.svg" clip-path="url(#clip0_1_86)">
<path id="Vector" d="M24.1004 1.89209H11.1421L0.710022 12.3352V25.3056L11.1421 35.7487H24.1004L34.5315 25.3056V12.3343L24.1004 1.89209ZM12.9352 25.469L6.25199 18.7793L12.9352 12.0896C15.4615 9.56054 19.6175 9.56054 22.1438 12.0896L28.8271 18.7793L22.1438 25.469C19.6175 27.999 15.5428 27.999 12.9352 25.469Z" fill="#444CE7"/>
<path id="Vector_2" d="M49.3985 26.6999C51.4742 26.6999 53.1805 25.638 53.7105 24.0452V26.5152H56.7779V20.2825C56.7779 18.8744 55.6708 17.6741 54.1722 17.6741H49.7909V20.2825H52.9035C53.296 20.2825 53.5499 20.5365 53.5499 20.9289C53.5499 22.4293 51.5665 23.8836 49.5601 23.8836C46.8851 23.8836 44.7632 21.783 44.7632 18.4358C44.7632 15.0887 46.8851 13.1496 49.6293 13.1496C51.7041 13.1496 53.1344 14.2807 53.3874 16.012H56.8241C56.6163 12.5495 53.7105 10.1718 49.6524 10.1718C45.3865 10.1718 41.4659 12.9188 41.4659 18.4358C41.4659 23.9529 45.2711 26.6999 49.3985 26.6999ZM58.0946 26.5152H61.2996V9.82556H58.0946V26.5152ZM68.2146 26.6999C71.788 26.6999 74.3484 24.1606 74.3484 20.6981C74.3484 17.2355 71.788 14.6963 68.2137 14.6963C64.6403 14.6963 62.0798 17.2355 62.0798 20.6981C62.0798 24.1606 64.6394 26.6999 68.2146 26.6999ZM68.2146 23.9298C66.4842 23.9298 65.3088 22.614 65.3088 20.6981C65.3088 18.759 66.4842 17.4432 68.2146 17.4432C69.944 17.4432 71.1194 18.759 71.1194 20.6981C71.1194 22.614 69.9449 23.9298 68.2146 23.9298ZM81.521 26.6999C84.9559 26.6999 87.0094 24.3222 87.0094 20.6981C87.0094 17.0739 84.9568 14.6963 81.5672 14.6963C80.1138 14.6963 78.9836 15.2503 78.3382 16.1044V9.82556H75.1333V26.5152H78.3382V25.2456C78.9846 26.1458 80.1831 26.6999 81.521 26.6999ZM81.0132 23.9298C79.2837 23.9298 78.1536 22.6371 78.1536 20.6981C78.1536 18.7359 79.2837 17.4432 81.0132 17.4432C82.6965 17.4432 83.8497 18.7359 83.8497 20.6981C83.8497 22.6371 82.6965 23.9298 81.0132 23.9298ZM92.375 14.6963C89.1922 14.6963 87.3012 16.566 87.1627 18.8975H90.0223C90.0685 17.928 90.7832 17.0508 92.1904 17.0508C93.5043 17.0508 94.2661 17.7202 94.2661 18.6898C94.2661 19.1745 93.966 19.5439 93.3898 19.5439H91.4295C88.8922 19.5439 87.1858 20.9289 87.1858 23.2142C87.1858 25.1994 88.7315 26.6999 90.9909 26.6999C92.5819 26.6999 93.8736 25.9843 94.2661 24.8993V26.5152H97.4479V19.036C97.4479 16.4045 95.303 14.6963 92.375 14.6963ZM91.798 24.3684C90.8986 24.3684 90.2532 23.8375 90.2532 23.0757C90.2532 22.1754 90.9457 21.5752 91.9134 21.5752H94.2661V21.7368C94.2661 23.2142 93.3667 24.3684 91.798 24.3684ZM98.6797 26.5152H101.886V9.82556H98.6797V26.5152ZM103.588 26.5152H110.183C113.596 26.5152 115.948 24.7608 115.948 21.6907C115.948 19.5669 114.703 18.2742 113.227 17.6972C114.173 17.1893 115.118 16.0351 115.118 14.5116C115.118 11.8108 112.927 10.3565 109.999 10.3565H103.588V26.5152ZM107.001 16.5199V13.1035H109.676C111.221 13.1035 111.912 13.7267 111.912 14.8117C111.912 15.8966 111.221 16.5199 109.745 16.5199H107.001ZM107.001 23.5143V19.4515H109.884C111.798 19.4515 112.651 20.1902 112.651 21.506C112.651 22.8218 111.798 23.5143 109.884 23.5143H107.001ZM121.524 14.6963C118.343 14.6963 116.451 16.566 116.313 18.8975H119.173C119.219 17.928 119.933 17.0508 121.34 17.0508C122.655 17.0508 123.415 17.7202 123.415 18.6898C123.415 19.1745 123.115 19.5439 122.539 19.5439H120.579C118.042 19.5439 116.336 20.9289 116.336 23.2142C116.336 25.1994 117.881 26.6999 120.141 26.6999C121.732 26.6999 123.023 25.9843 123.415 24.8993V26.5152H126.598V19.036C126.598 16.4045 124.453 14.6963 121.524 14.6963ZM120.948 24.3684C120.049 24.3684 119.403 23.8375 119.403 23.0757C119.403 22.1754 120.095 21.5752 121.064 21.5752H123.415V21.7368C123.415 23.2142 122.516 24.3684 120.948 24.3684ZM127.645 26.5152H130.873V20.144C130.873 18.6436 131.865 17.5587 133.272 17.5587C134.609 17.5587 135.509 18.5743 135.509 19.9825V26.5152H138.738V19.2669C138.738 16.5891 137.03 14.6963 134.401 14.6963C132.811 14.6963 131.519 15.3657 130.873 16.4968V14.8809H127.645V26.5152ZM147.939 26.5152H151.812L146.809 19.4515L151.444 14.8809H147.385L143.35 18.8513V9.82556H140.121V26.5152H143.35V22.8679L144.641 21.5983L147.939 26.5152Z" fill="white"/>
</g>
<defs>
<clipPath id="clip0_1_86">
<rect width="151.43" height="36.9341" fill="white" transform="translate(0.710022 0.352905)"/>
</clipPath>
</defs>
</svg>
