<svg width="124" height="41" viewBox="0 0 124 41" fill="none" xmlns="http://www.w3.org/2000/svg">
<g id="7wSOARqArcV0qHqWF9NShgMvKc.svg" clip-path="url(#clip0_1_48)">
<path id="Vector" d="M72.578 13.9299C70.058 13.9299 67.594 16.2629 67.311 19.6329V14.2079H63.691V30.5659H67.355V22.6479C67.355 20.4299 68.893 17.3009 72.578 17.3009V13.9309V13.9299ZM111.011 27.9469V16.7399H113.133C115.963 16.7399 118.262 18.5479 118.262 22.2529C118.262 25.9589 115.963 27.9469 113.133 27.9469H111.011ZM107.385 30.5679H113.575C117.378 30.5679 122.065 28.0379 122.065 22.2529C122.065 16.5589 117.378 14.2099 113.575 14.2099H107.385V30.5679ZM93.511 22.4339C93.511 19.4519 95.014 17.0109 97.491 17.0109C99.878 17.0109 101.205 19.4509 101.205 22.4339C101.205 25.4169 99.878 27.8569 97.49 27.8569C95.014 27.8569 93.511 25.4169 93.511 22.4339ZM89.797 22.6149C89.797 27.4949 92.273 30.9299 96.164 30.9299C98.994 30.9299 100.674 29.0319 101.559 25.9599V30.5679H105.184V14.2099H101.559V18.5479C100.763 15.6559 99.082 13.9379 96.429 13.9379C92.449 13.9379 89.797 17.6439 89.797 22.6149ZM7.228 30.9299C2.718 30.9299 0.0650024 27.2239 0.0650024 22.6149C0.0650024 17.8249 2.983 13.9389 8.555 13.9389C14.303 13.9389 16.249 17.9149 16.337 20.1749H12.181C12.092 18.9099 11.031 17.0109 8.466 17.0109C5.725 17.0109 3.956 19.4509 3.956 22.4339C3.956 25.4169 5.725 27.8569 8.466 27.8569C10.943 27.8569 12.004 25.8689 12.446 23.8799H8.466V22.2529H16.817V30.5689H13.155V25.3259C12.888 27.2239 11.739 30.9299 7.228 30.9299ZM24.245 30.9299C20.795 30.9299 18.673 28.5799 18.673 23.8799V14.2099H22.388V23.8799C22.388 26.3199 23.538 27.4949 25.483 27.4949C29.286 27.4949 30.701 22.7049 30.701 19.3609V14.2099H34.415V30.5699H30.789V24.5139C30.082 27.8569 28.136 30.9299 24.245 30.9299ZM56.611 13.9299C53.441 13.9299 51.443 17.0579 50.791 19.9509C50.678 16.0749 48.812 13.9299 45.828 13.9299C43.249 13.9299 40.857 16.2799 40.235 19.9979V14.2079H36.615V30.5679H40.282V24.7029C40.282 23.2489 40.875 17.2829 44.567 17.2829C46.958 17.2829 47.207 19.4869 47.207 22.4999V30.5669H50.873V24.7029C50.873 23.2489 51.491 17.2829 55.183 17.2829C57.572 17.2829 57.819 19.4869 57.819 22.4999V30.5669H61.489V20.8909C61.507 16.2499 59.903 13.9299 56.61 13.9299H56.611ZM80.446 13.9299C75.699 13.9299 72.482 17.7339 72.482 22.4299C72.482 27.6039 75.542 30.9299 80.446 30.9299C85.194 30.9299 88.468 27.1259 88.468 22.4299C88.468 17.2559 85.349 13.9299 80.446 13.9299ZM80.446 28.0339C77.683 28.0339 75.892 25.6429 75.892 22.4299C75.892 19.2169 77.689 16.8259 80.446 16.8259C83.203 16.8259 84.928 19.2169 84.928 22.4299C84.928 25.6429 83.202 28.0339 80.446 28.0339Z" fill="white"/>
</g>
<defs>
<clipPath id="clip0_1_48">
<rect width="123" height="40" fill="white" transform="translate(0.0650024 0.929932)"/>
</clipPath>
</defs>
</svg>
