<svg width="14" height="15" viewBox="0 0 14 15" fill="none" xmlns="http://www.w3.org/2000/svg">
<g id="SVG">
<path id="Vector" d="M9.91667 1.40723H4.08333C2.4725 1.40723 1.16667 2.71306 1.16667 4.32389V10.1572C1.16667 11.7681 2.4725 13.0739 4.08333 13.0739H9.91667C11.5275 13.0739 12.8333 11.7681 12.8333 10.1572V4.32389C12.8333 2.71306 11.5275 1.40723 9.91667 1.40723Z" stroke="white" stroke-width="1.16667" stroke-linecap="round" stroke-linejoin="round"/>
<path id="Vector_2" d="M9.33333 6.87291C9.40532 7.35839 9.3224 7.8542 9.09636 8.28984C8.87032 8.72547 8.51267 9.07873 8.07428 9.29939C7.63589 9.52004 7.13909 9.59684 6.65454 9.51887C6.16999 9.4409 5.72236 9.21213 5.37532 8.86509C5.02828 8.51805 4.79951 8.07042 4.72154 7.58587C4.64357 7.10132 4.72037 6.60452 4.94102 6.16613C5.16168 5.72774 5.51494 5.37009 5.95057 5.14405C6.38621 4.91801 6.88202 4.83509 7.3675 4.90708C7.8627 4.98051 8.32116 5.21126 8.67515 5.56526C9.02915 5.91925 9.2599 6.37771 9.33333 6.87291Z" stroke="white" stroke-width="1.16667" stroke-linecap="round" stroke-linejoin="round"/>
<path id="Vector_3" d="M10.2083 4.03223H10.2142" stroke="white" stroke-width="1.16667" stroke-linecap="round" stroke-linejoin="round"/>
</g>
</svg>
