<svg width="14" height="15" viewBox="0 0 14 15" fill="none" xmlns="http://www.w3.org/2000/svg">
<g id="SVG">
<path id="Vector" d="M9.33333 4.90723C10.2616 4.90723 11.1518 5.27598 11.8082 5.93235C12.4646 6.58873 12.8333 7.47897 12.8333 8.40723V12.4906H10.5V8.40723C10.5 8.09781 10.3771 7.80106 10.1583 7.58227C9.9395 7.36348 9.64275 7.24056 9.33333 7.24056C9.02391 7.24056 8.72717 7.36348 8.50837 7.58227C8.28958 7.80106 8.16667 8.09781 8.16667 8.40723V12.4906H5.83333V8.40723C5.83333 7.47897 6.20208 6.58873 6.85846 5.93235C7.51484 5.27598 8.40507 4.90723 9.33333 4.90723Z" stroke="white" stroke-width="1.16667" stroke-linecap="round" stroke-linejoin="round"/>
<path id="Vector_2" d="M3.5 5.49023H1.16667V12.4902H3.5V5.49023Z" stroke="white" stroke-width="1.16667" stroke-linecap="round" stroke-linejoin="round"/>
<path id="Vector_3" d="M2.33333 3.74056C2.97766 3.74056 3.5 3.21823 3.5 2.57389C3.5 1.92956 2.97766 1.40723 2.33333 1.40723C1.689 1.40723 1.16667 1.92956 1.16667 2.57389C1.16667 3.21823 1.689 3.74056 2.33333 3.74056Z" stroke="white" stroke-width="1.16667" stroke-linecap="round" stroke-linejoin="round"/>
</g>
</svg>
