<svg width="14" height="15" viewBox="0 0 14 15" fill="none" xmlns="http://www.w3.org/2000/svg">
<g id="SVG">
<path id="Vector" d="M13.4167 1.99024C12.8581 2.38427 12.2396 2.68564 11.585 2.88274C11.2337 2.47879 10.7668 2.19248 10.2474 2.06253C9.72809 1.93258 9.18137 1.96527 8.68121 2.15617C8.18105 2.34707 7.75159 2.68697 7.45091 3.12991C7.15022 3.57284 6.99282 4.09744 7 4.63274V5.21607C5.97487 5.24266 4.95908 5.0153 4.04309 4.55425C3.1271 4.0932 2.33935 3.41278 1.75 2.57357C1.75 2.57357 -0.583335 7.82357 4.66667 10.1569C3.46531 10.9724 2.03417 11.3813 0.583332 11.3236C5.83333 14.2402 12.25 11.3236 12.25 4.61524C12.2495 4.45276 12.2338 4.29067 12.2033 4.13107C12.7987 3.54395 13.2188 2.80266 13.4167 1.99024Z" stroke="white" stroke-width="1.16667" stroke-linecap="round" stroke-linejoin="round"/>
</g>
</svg>
