<svg width="148" height="41" viewBox="0 0 148 41" fill="none" xmlns="http://www.w3.org/2000/svg">
<g id="ocTsKdPlViS0VKmmmiZLBEb9bDg.svg" clip-path="url(#clip0_1_36)">
<g id="Clip path group">
<mask id="mask0_1_36" style="mask-type:luminance" maskUnits="userSpaceOnUse" x="0" y="0" width="148" height="41">
<g id="a">
<path id="Vector" d="M0.634998 0.879883H147.635V40.8799H0.634998V0.879883Z" fill="white"/>
</g>
</mask>
<g mask="url(#mask0_1_36)">
<g id="Group">
<path id="Vector_2" d="M35.115 29.0068L35.094 28.9408L48.42 16.7528V10.8798H27.04V16.7528H39.81L39.832 16.8088L26.635 29.0068V34.8798H48.635V29.0068H35.115ZM61.327 9.87982C58.866 9.87982 56.861 10.2498 55.31 10.9918C53.8668 11.6383 52.6509 12.7033 51.82 14.0488C51.025 15.4029 50.5257 16.9099 50.355 18.4708L56.828 19.3798C57.062 18.0018 57.53 17.0248 58.232 16.4498C59.0307 15.8477 60.0148 15.5435 61.014 15.5898C62.328 15.5898 63.281 15.9398 63.874 16.6418C64.46 17.3438 64.758 18.3158 64.758 19.5968V20.2358H58.535C55.367 20.2358 53.091 20.9378 51.707 22.3408C50.323 23.7448 49.633 25.5978 49.635 27.9008C49.635 30.2578 50.325 32.0128 51.707 33.1638C53.088 34.3148 54.826 34.8868 56.919 34.8798C59.516 34.8798 61.513 33.9878 62.911 32.2028C63.7363 31.1058 64.3257 29.8498 64.642 28.5138H64.878L65.77 34.3738H71.635V19.5338C71.635 16.4668 70.825 14.0908 69.208 12.4068C67.59 10.7218 64.963 9.87982 61.327 9.87982ZM63.377 28.1738C62.447 28.9488 61.229 29.3348 59.711 29.3348C58.461 29.3348 57.592 29.1168 57.105 28.6788C56.8678 28.4718 56.6791 28.2152 56.5523 27.9271C56.4254 27.639 56.3635 27.3265 56.371 27.0118C56.3572 26.7151 56.404 26.4187 56.5085 26.1407C56.613 25.8627 56.7731 25.6089 56.979 25.3948C57.2014 25.1859 57.4639 25.0243 57.7506 24.9198C58.0374 24.8153 58.3423 24.77 58.647 24.7868H64.769V25.1908C64.7815 25.7614 64.6626 26.3273 64.4214 26.8445C64.1801 27.3618 63.8222 27.8166 63.377 28.1738ZM106.635 10.8798H99.635V34.8798H106.635V10.8798ZM146.525 10.8798C144.657 10.8798 143.184 11.5718 142.107 12.9548C141.333 13.9488 140.746 15.4168 140.343 17.3608H140.149L139.284 10.8798H133.635V34.8798H140.25V22.5718C140.25 21.0198 140.596 19.8308 141.289 19.0028C141.982 18.1748 143.26 17.7618 145.124 17.7618H147.635V10.8798H146.525ZM126.861 11.3028C125.269 10.3528 123.261 9.87782 120.836 9.87982C117.019 9.87982 114.032 10.9708 111.875 13.1538C109.718 15.3368 108.639 18.3448 108.639 22.1798C108.584 24.4977 109.088 26.7948 110.108 28.8768C111.04 30.7297 112.495 32.2687 114.292 33.3038C116.098 34.3518 118.248 34.8778 120.739 34.8798C122.894 34.8798 124.694 34.5468 126.139 33.8798C127.499 33.2806 128.682 32.3423 129.575 31.1548C130.428 29.9873 131.06 28.6742 131.442 27.2798L125.565 25.6278C125.318 26.5342 124.842 27.3615 124.182 28.0298C123.518 28.6968 122.406 29.0298 120.846 29.0298C118.991 29.0298 117.608 28.4968 116.697 27.4298C116.037 26.6588 115.623 25.5578 115.439 24.1318H131.532C131.598 23.4648 131.632 22.9058 131.632 22.4548V20.9788C131.671 18.9973 131.264 17.0324 130.44 15.2298C129.67 13.5899 128.423 12.221 126.861 11.3028ZM120.639 15.5288C123.404 15.5288 124.973 16.8948 125.344 19.6288H115.56C115.715 18.7175 116.092 17.8581 116.656 17.1258C117.553 16.0588 118.88 15.5258 120.639 15.5288ZM102.661 0.881823C102.13 0.863692 101.6 0.952616 101.104 1.14331C100.607 1.334 100.155 1.62256 99.772 1.99182C99.3949 2.36482 99.0994 2.81208 98.9042 3.30525C98.709 3.79843 98.6183 4.32678 98.638 4.85682C98.619 5.39012 98.71 5.92161 98.9055 6.41816C99.101 6.9147 99.3967 7.36563 99.7742 7.74283C100.152 8.12002 100.603 8.41539 101.099 8.61049C101.596 8.8056 102.128 8.89626 102.661 8.87682C103.191 8.89671 103.719 8.80607 104.212 8.61066C104.705 8.41526 105.152 8.11937 105.525 7.74182C105.894 7.36017 106.182 6.90791 106.372 6.41217C106.562 5.91642 106.65 5.3874 106.631 4.85682C106.655 4.32932 106.569 3.80254 106.379 3.31009C106.188 2.81764 105.897 2.37034 105.524 1.9967C105.151 1.62307 104.704 1.33132 104.211 1.14005C103.719 0.948778 103.193 0.862196 102.665 0.885823L102.661 0.881823ZM88.185 9.87982C85.907 9.87982 84.075 10.6088 82.692 12.0668C81.668 13.1468 80.916 14.7588 80.437 16.9028H80.223L79.349 10.5358H73.635V40.8798H80.325V28.3818H80.569C80.773 29.2148 81.059 30.0248 81.424 30.7998C81.9852 32.0561 82.9131 33.1134 84.086 33.8328C85.2929 34.5047 86.6582 34.8398 88.039 34.8028C90.84 34.8028 92.973 33.6928 94.438 31.4698C95.902 29.2478 96.635 26.1468 96.635 22.1668C96.635 18.3238 95.926 15.3148 94.509 13.1408C93.092 10.9668 90.984 9.87982 88.185 9.87982ZM88.863 26.9648C88.083 28.1168 86.863 28.6928 85.201 28.6928C84.515 28.7247 83.8315 28.5899 83.209 28.2998C82.5832 28.0078 82.0363 27.5703 81.614 27.0238C80.748 25.9168 80.316 24.3998 80.318 22.4738V22.0258C80.318 20.0698 80.75 18.5738 81.614 17.5348C82.477 16.4958 83.673 15.9828 85.201 15.9948C86.892 15.9948 88.121 16.5408 88.887 17.6348C89.653 18.7288 90.037 20.2548 90.037 22.2118C90.041 24.2358 89.652 25.8208 88.87 26.9648H88.863Z" fill="#FFFDF9"/>
<path id="Vector_3" d="M24.635 27.8799H0.634998V33.8799H24.635V27.8799Z" fill="#FF4F00"/>
</g>
</g>
</g>
</g>
<defs>
<clipPath id="clip0_1_36">
<rect width="147" height="40" fill="white" transform="translate(0.634998 0.879883)"/>
</clipPath>
</defs>
</svg>
