<svg width="107" height="11" viewBox="0 0 107 11" fill="none" xmlns="http://www.w3.org/2000/svg">
<path id="Vector" d="M8.30288 4.09798H6.89471C6.80401 3.54686 6.5011 3.05317 6.05087 2.72264C5.83463 2.56173 5.5921 2.43956 5.33408 2.3616C5.06339 2.27897 4.78173 2.23791 4.49871 2.23983C3.96615 2.23983 3.4897 2.37324 3.06831 2.6411C2.6501 2.90897 2.31976 3.30178 2.07624 3.81846C1.8359 4.3362 1.7152 4.96724 1.7152 5.71367C1.7152 6.4654 1.8359 7.10067 2.07624 7.61735C2.31976 8.13509 2.65221 8.52577 3.0736 8.79047C3.49394 9.05516 3.96827 9.18751 4.49448 9.18751C4.78564 9.18751 5.06304 9.14832 5.32455 9.06997C5.58228 8.99296 5.82502 8.87266 6.0424 8.71423C6.4903 8.38758 6.79546 7.90122 6.89471 7.35582L8.30288 7.36005C8.23189 7.80084 8.08349 8.22561 7.86455 8.61471C7.65331 8.99141 7.37317 9.32505 7.03871 9.59829C6.69751 9.87653 6.30963 10.092 5.89312 10.2346C5.43984 10.3888 4.96371 10.4651 4.48495 10.4601C3.68557 10.4601 2.97197 10.2706 2.34729 9.89158C1.72156 9.50937 1.22816 8.9641 0.867124 8.25367C0.509259 7.54429 0.330322 6.69727 0.330322 5.71367C0.330322 4.72689 0.510315 3.87987 0.871356 3.17367C1.2324 2.46324 1.72579 1.91903 2.35152 1.53999C2.97726 1.15777 3.68875 0.967193 4.48495 0.967193C4.97516 0.967193 5.43255 1.03813 5.85711 1.17894C6.2838 1.31764 6.66708 1.52199 7.008 1.79303C7.34787 2.0609 7.62844 2.38806 7.85078 2.77663C8.07419 3.16203 8.22453 3.60248 8.30288 4.09798ZM9.86245 10.3341V3.40342H11.1658V4.50455H11.2389C11.3648 4.13187 11.5872 3.83858 11.9059 3.6247C12.2285 3.4076 12.6097 3.2942 12.9985 3.29967C13.1899 3.30024 13.3811 3.31084 13.5713 3.33143V4.62207C13.4761 4.59969 13.3795 4.58308 13.2823 4.57231C13.1449 4.55121 13.0062 4.54059 12.8672 4.54055C12.5486 4.54055 12.2637 4.60831 12.0149 4.74383C11.7686 4.874 11.5632 5.0698 11.4213 5.30957C11.2795 5.54934 11.2068 5.8237 11.2113 6.10224V10.3341H9.86245ZM17.4771 10.4739C16.7942 10.4739 16.2066 10.3278 15.7132 10.0356C15.2226 9.7405 14.8278 9.30995 14.5761 8.79575C14.3114 8.26001 14.1791 7.63323 14.1791 6.91432C14.1791 6.20388 14.3114 5.57814 14.5761 5.03711C14.8235 4.51818 15.2112 4.07881 15.6952 3.7687C16.1759 3.46483 16.7392 3.31344 17.3829 3.31344C17.7736 3.31344 18.1526 3.37802 18.519 3.50719C18.8864 3.63636 19.2156 3.83965 19.5079 4.11705C19.799 4.39339 20.0298 4.7523 20.1982 5.19487C20.3665 5.63426 20.4502 6.16788 20.4502 6.79679V7.2743H14.9414V6.26424H19.1288C19.1288 5.90955 19.0558 5.59508 18.9118 5.32086C18.7733 5.05063 18.5625 4.82413 18.303 4.66655C18.0275 4.50312 17.7116 4.42056 17.3914 4.42832C17.0123 4.42832 16.682 4.5215 16.3993 4.70784C16.1187 4.89101 15.9027 5.13134 15.7492 5.42991C15.5982 5.72734 15.5209 6.05667 15.5237 6.39022V7.18006C15.5237 7.64275 15.6052 8.03767 15.7672 8.36165C15.9324 8.68669 16.1632 8.93551 16.4575 9.10704C16.7519 9.27538 17.097 9.35901 17.4909 9.35901C17.7461 9.35901 17.979 9.32303 18.1897 9.25103C18.396 9.18159 18.584 9.06638 18.7395 8.91401C18.8949 8.76164 19.0139 8.57606 19.0875 8.37118L20.3644 8.60095C20.2628 8.97681 20.0785 9.30608 19.8138 9.58983C19.5379 9.87912 19.2002 10.1024 18.826 10.2431C18.3947 10.4033 17.9372 10.4816 17.4771 10.4739ZM23.9642 10.4877C23.5248 10.4877 23.1278 10.4061 22.7731 10.2431C22.4302 10.0879 22.1378 9.83957 21.9293 9.52631C21.7249 9.21291 21.6222 8.82963 21.6222 8.37541C21.6222 7.98473 21.6974 7.66287 21.8478 7.40983C21.9981 7.15784 22.2014 6.95772 22.4565 6.81055C22.7128 6.66232 22.9986 6.55116 23.3141 6.47599C23.6297 6.40081 23.9515 6.34364 24.2797 6.30446L25.2909 6.18695C25.5492 6.15413 25.7366 6.10224 25.8541 6.02919C25.9717 5.95719 26.0299 5.83967 26.0299 5.67767V5.64591C26.0299 5.25205 25.9187 4.94712 25.6964 4.73007C25.4772 4.51408 25.149 4.40502 24.7128 4.40502C24.2586 4.40502 23.9007 4.50561 23.6392 4.70784C23.4042 4.87678 23.2188 5.10565 23.1024 5.37062L21.834 5.08158C21.9646 4.69167 22.1915 4.341 22.4936 4.06199C22.7848 3.80047 23.1204 3.61095 23.4994 3.49342C23.8785 3.37378 24.2766 3.31344 24.6948 3.31344C24.9711 3.31344 25.2644 3.34625 25.5746 3.41295C25.888 3.47542 26.1792 3.59295 26.4502 3.76447C26.7234 3.93599 26.9479 4.18163 27.1226 4.50032C27.2962 4.81583 27.3841 5.22663 27.3841 5.73167V10.3341H26.0669V9.38654H26.0119C25.9111 9.57881 25.7787 9.75276 25.6202 9.90111C25.4248 10.0824 25.1966 10.2247 24.9478 10.3204C24.6338 10.4389 24.2998 10.4957 23.9642 10.4877ZM24.2575 9.40454C24.6302 9.40454 24.9489 9.33043 25.2136 9.18326C25.4814 9.03609 25.6847 8.84339 25.8224 8.60623C25.9642 8.36483 26.0352 8.10756 26.0352 7.8344V6.94078C25.9532 7.00614 25.8578 7.05244 25.7557 7.07631C25.6202 7.11549 25.4645 7.15042 25.2909 7.18006C24.9831 7.22834 24.6746 7.27212 24.3655 7.31136C24.1208 7.34008 23.8801 7.39583 23.6477 7.47758C23.4507 7.54546 23.274 7.66199 23.1342 7.81638C23.0071 7.96038 22.9446 8.15309 22.9446 8.39343C22.9446 8.728 23.0674 8.97997 23.3141 9.1515C23.5608 9.31984 23.8753 9.40454 24.2575 9.40454ZM32.4153 3.40342V4.48656H28.6302V3.40342H32.4153ZM29.6456 1.74327H30.9945V8.29919C30.9945 8.56071 31.0336 8.75764 31.112 8.88999C31.1797 9.01008 31.2861 9.10373 31.4138 9.15573C31.5408 9.20126 31.6774 9.2235 31.8246 9.2235C31.9326 9.2235 32.0278 9.21608 32.1094 9.20125L32.2989 9.16526L32.5424 10.2802C32.2606 10.3768 31.9647 10.4254 31.6668 10.4242C31.326 10.433 30.9873 10.3684 30.6737 10.2346C30.3716 10.1059 30.1131 9.89269 29.9294 9.62054C29.7398 9.3442 29.6456 8.99691 29.6456 8.5787V1.74327ZM36.8209 10.4739C36.138 10.4739 35.5493 10.3278 35.0559 10.0356C34.5653 9.7405 34.1705 9.30995 33.9188 8.79575C33.6541 8.26001 33.5218 7.63323 33.5218 6.91432C33.5218 6.20388 33.6541 5.57814 33.9188 5.03711C34.1665 4.51836 34.5541 4.07907 35.0379 3.7687C35.5197 3.46483 36.0819 3.31344 36.7256 3.31344C37.1163 3.31344 37.4953 3.37802 37.8627 3.50719C38.2291 3.63636 38.5594 3.83965 38.8506 4.11705C39.1428 4.39339 39.3725 4.7523 39.5409 5.19487C39.7092 5.63426 39.7939 6.16788 39.7939 6.79679V7.2743H34.2851V6.26424H38.4715C38.4715 5.90955 38.3995 5.59508 38.2555 5.32086C38.1167 5.05056 37.9056 4.82407 37.6457 4.66655C37.3705 4.50326 37.055 4.4207 36.7351 4.42832C36.3561 4.42832 36.0247 4.5215 35.742 4.70784C35.4656 4.8872 35.2414 5.13625 35.0919 5.42991C34.9409 5.72734 34.8636 6.05667 34.8664 6.39022V7.18006C34.8664 7.64275 34.9479 8.03767 35.1099 8.36165C35.2761 8.68669 35.5059 8.93551 35.8003 9.10704C36.0956 9.27538 36.4397 9.35901 36.8336 9.35901C37.0898 9.35901 37.3228 9.32303 37.5335 9.25103C37.7441 9.17586 37.9263 9.06468 38.0787 8.91751C38.2322 8.76929 38.3498 8.58823 38.4313 8.37118L39.7082 8.60095C39.6055 8.97681 39.4223 9.30608 39.1576 9.58983C38.8817 9.87912 38.544 10.1024 38.1698 10.2431C37.7384 10.4033 37.281 10.4816 36.8209 10.4739ZM46.5701 10.3341L44.0078 1.09319H45.4742L47.2742 8.24943H47.3599L49.2329 1.09319H50.6855L52.5574 8.25367H52.6432L54.4389 1.09319H55.9095L53.343 10.3341H51.9391L49.9952 3.41295H49.9232L47.9782 10.3341H46.5701ZM57.0731 10.3341V3.40342H58.422V10.3341H57.0731ZM57.7539 2.33407C57.5296 2.33783 57.3127 2.25389 57.1493 2.10009C57.0706 2.02789 57.0079 1.93998 56.9652 1.84205C56.9225 1.74412 56.9008 1.63834 56.9016 1.53152C56.9016 1.30918 56.9842 1.11966 57.1493 0.96296C57.2294 0.885221 57.324 0.824067 57.4277 0.783003C57.5315 0.74194 57.6423 0.721778 57.7539 0.72368C57.9889 0.72368 58.189 0.803086 58.3542 0.96296C58.4347 1.03403 58.499 1.12159 58.5426 1.21969C58.5863 1.31779 58.6083 1.42415 58.6073 1.53152C58.6073 1.75069 58.5226 1.94021 58.3542 2.10009C58.1929 2.25442 57.9771 2.33855 57.7539 2.33407ZM60.2367 10.3341V3.40342H61.5411V4.50455H61.6131C61.7391 4.13187 61.9614 3.83858 62.2801 3.6247C62.6027 3.4076 62.984 3.2942 63.3728 3.29967C63.5641 3.30024 63.7553 3.31084 63.9456 3.33143V4.62207C63.8503 4.59969 63.7538 4.58308 63.6565 4.57231C63.5192 4.55121 63.3805 4.54059 63.2415 4.54055C62.9228 4.54055 62.638 4.60831 62.3892 4.74383C62.1429 4.874 61.9374 5.0698 61.7956 5.30957C61.6538 5.54934 61.5811 5.8237 61.5856 6.10224V10.3341H60.2367ZM67.8514 10.4739C67.1685 10.4739 66.5809 10.3278 66.0875 10.0356C65.5969 9.7405 65.202 9.30995 64.9504 8.79575C64.6857 8.26001 64.5533 7.63323 64.5533 6.91432C64.5533 6.20388 64.6857 5.57814 64.9504 5.03711C65.1978 4.51818 65.5854 4.07881 66.0695 3.7687C66.5502 3.46483 67.1134 3.31344 67.7572 3.31344C68.1479 3.31344 68.5269 3.37802 68.8932 3.50719C69.2606 3.63636 69.5899 3.83965 69.8821 4.11705C70.1733 4.39339 70.4041 4.7523 70.5724 5.19487C70.7408 5.63426 70.8244 6.16788 70.8244 6.79679V7.2743H65.3156V6.26424H69.5031C69.5031 5.90955 69.4311 5.59508 69.286 5.32086C69.1475 5.05063 68.9368 4.82413 68.6772 4.66655C68.4018 4.50312 68.0858 4.42056 67.7656 4.42832C67.3866 4.42832 67.0563 4.5215 66.7736 4.70784C66.493 4.89101 66.277 5.13134 66.1235 5.42991C65.9725 5.72734 65.8951 6.05667 65.898 6.39022V7.18006C65.898 7.64275 65.9795 8.03767 66.1415 8.36165C66.3066 8.68669 66.5374 8.93551 66.8318 9.10704C67.1261 9.27538 67.4713 9.35901 67.8652 9.35901C68.1203 9.35901 68.3543 9.32303 68.5639 9.25103C68.7703 9.18159 68.9582 9.06638 69.1137 8.91401C69.2692 8.76164 69.3882 8.57606 69.4618 8.37118L70.7387 8.60095C70.6402 8.97097 70.4513 9.31075 70.1892 9.58983C69.9266 9.86934 69.5973 10.0875 69.2003 10.2431C68.7689 10.4033 68.3115 10.4816 67.8514 10.4739ZM75.6196 3.40342V4.48656H71.7032V3.40342H75.6196ZM72.7768 10.3341V2.60088C72.7768 2.16784 72.8721 1.80786 73.0616 1.52199C73.2511 1.23295 73.5021 1.01801 73.8155 0.87719C74.1278 0.732139 74.4677 0.660156 74.8351 0.660156C75.105 0.660156 75.3369 0.683444 75.5296 0.727913C75.7223 0.770264 75.8652 0.80943 75.9584 0.845428L75.6418 1.93703C75.5612 1.91421 75.48 1.89337 75.3983 1.87455C75.2804 1.84471 75.1589 1.83082 75.0373 1.83326C74.7101 1.83326 74.4751 1.9148 74.3342 2.07679C74.1955 2.23984 74.1267 2.47382 74.1267 2.78087V10.3341H72.7768ZM77.0119 10.3341V3.40342H78.3152V4.50455H78.3872C78.5143 4.13187 78.7366 3.83858 79.0553 3.6247C79.3776 3.40774 79.7584 3.29435 80.1469 3.29967C80.3386 3.3002 80.5302 3.3108 80.7208 3.33143V4.62207C80.6255 4.59979 80.529 4.58318 80.4317 4.57231C80.2944 4.55121 80.1556 4.54059 80.0167 4.54055C79.698 4.54055 79.4132 4.60831 79.1633 4.74383C78.9169 4.87376 78.7114 5.06955 78.5697 5.30939C78.428 5.54923 78.3557 5.82372 78.3608 6.10224V10.3341H77.0119ZM83.842 10.4877C83.4037 10.4877 83.0067 10.4061 82.6509 10.2431C82.3083 10.0879 82.0163 9.83954 81.8081 9.52631C81.6027 9.21291 81.5011 8.82963 81.5011 8.37541C81.5011 7.98473 81.5763 7.66287 81.7266 7.40983C81.8769 7.15784 82.0802 6.95772 82.3354 6.81055C82.5916 6.66232 82.8775 6.55116 83.193 6.47599C83.5085 6.40081 83.8304 6.34364 84.1586 6.30446L85.1687 6.18695C85.4281 6.15413 85.6155 6.10224 85.733 6.02919C85.8505 5.95719 85.9087 5.83967 85.9087 5.67767V5.64591C85.9087 5.25205 85.7976 4.94712 85.5752 4.73007C85.355 4.51408 85.0278 4.40502 84.5916 4.40502C84.1374 4.40502 83.7796 4.50561 83.518 4.70784C83.2586 4.90583 83.0797 5.1271 82.9812 5.37062L81.7128 5.08158C81.8632 4.66125 82.0834 4.32139 82.3714 4.06199C82.6636 3.80047 82.9992 3.61095 83.3783 3.49342C83.7563 3.37378 84.1554 3.31344 84.5736 3.31344C84.85 3.31344 85.1433 3.34625 85.4535 3.41295C85.7658 3.47542 86.058 3.59295 86.328 3.76447C86.6022 3.93599 86.8267 4.18163 87.0003 4.50032C87.175 4.81583 87.2629 5.22663 87.2629 5.73167V10.3341H85.9447V9.38654H85.8907C85.7899 9.57907 85.6571 9.75307 85.4979 9.90111C85.3029 10.0828 85.0746 10.2252 84.8256 10.3204C84.5116 10.4389 84.1776 10.4957 83.842 10.4877ZM84.1353 9.40454C84.509 9.40454 84.8277 9.33043 85.0924 9.18326C85.3603 9.03609 85.5625 8.84339 85.7012 8.60623C85.8431 8.36483 85.913 8.10756 85.913 7.8344V6.94078C85.8653 6.98949 85.7722 7.03396 85.6335 7.07631C85.4979 7.11549 85.3434 7.15042 85.1687 7.18006C84.8613 7.2286 84.5531 7.27238 84.2443 7.31136C83.9997 7.34008 83.7589 7.39583 83.5265 7.47758C83.3292 7.54543 83.1522 7.66195 83.012 7.81638C82.886 7.96038 82.8224 8.15309 82.8224 8.39343C82.8224 8.728 82.9463 8.97997 83.193 9.1515C83.4397 9.31984 83.7541 9.40454 84.1353 9.40454ZM89.0596 10.3341V3.40342H90.3545V4.53208H90.4403C90.5843 4.14987 90.8204 3.85234 91.1486 3.63847C91.4758 3.42142 91.8686 3.31344 92.326 3.31344C92.7887 3.31344 93.1772 3.42142 93.4896 3.63847C93.8061 3.85446 94.0391 4.15304 94.1894 4.53208H94.2614C94.4266 4.16151 94.6902 3.86718 95.0512 3.64695C95.4123 3.42461 95.8421 3.31344 96.3419 3.31344C96.9697 3.31344 97.4832 3.51037 97.8803 3.90423C98.2794 4.29809 98.4795 4.89206 98.4795 5.68614V10.3341H97.1307V5.81319C97.1307 5.34415 97.0036 5.00429 96.7474 4.79359C96.4898 4.58198 96.1649 4.46967 95.8316 4.47702C95.3922 4.47702 95.0512 4.61255 94.8077 4.8836C94.5642 5.15147 94.4414 5.49556 94.4414 5.91695V10.3341H93.0978V5.72743C93.0978 5.35157 92.9803 5.04877 92.7452 4.82007C92.5112 4.59138 92.2053 4.47702 91.8294 4.47702C91.5787 4.47578 91.3329 4.54632 91.1211 4.68031C90.9072 4.81266 90.7346 4.99794 90.6023 5.23511C90.4691 5.48967 90.4025 5.77374 90.4085 6.06095V10.3341H89.0596ZM103.275 10.4739C102.592 10.4739 102.004 10.3278 101.511 10.0356C101.02 9.7405 100.625 9.30995 100.374 8.79575C100.109 8.26001 99.9767 7.63323 99.9767 6.91432C99.9767 6.20388 100.109 5.57814 100.374 5.03711C100.621 4.51818 101.009 4.07881 101.493 3.7687C101.973 3.46483 102.537 3.31344 103.18 3.31344C103.571 3.31344 103.95 3.37802 104.318 3.50719C104.686 3.63794 105.023 3.84585 105.305 4.11705C105.597 4.39339 105.827 4.7523 105.996 5.19487C106.164 5.63426 106.248 6.16788 106.248 6.79679V7.2743H100.739V6.26424H104.926C104.926 5.90955 104.854 5.59508 104.709 5.32086C104.571 5.05063 104.36 4.82413 104.101 4.66655C103.825 4.50312 103.509 4.42056 103.189 4.42832C102.81 4.42832 102.48 4.5215 102.197 4.70784C101.916 4.89101 101.7 5.13134 101.547 5.42991C101.396 5.72734 101.318 6.05667 101.321 6.39022V7.18006C101.321 7.64275 101.403 8.03767 101.565 8.36165C101.73 8.68669 101.961 8.93551 102.255 9.10704C102.549 9.27538 102.895 9.35901 103.288 9.35901C103.544 9.35901 103.778 9.32303 103.987 9.25103C104.194 9.18159 104.382 9.06638 104.537 8.91401C104.693 8.76164 104.812 8.57606 104.885 8.37118L106.162 8.60095C106.063 8.97097 105.875 9.31075 105.612 9.58983C105.35 9.86934 105.021 10.0875 104.624 10.2431C104.192 10.4033 103.735 10.4816 103.275 10.4739Z" fill="white"/>
</svg>
