<svg width="48" height="14" viewBox="0 0 48 14" fill="none" xmlns="http://www.w3.org/2000/svg">
<path id="Vector" d="M5.03604 10.3923L6.55221 1.15138H7.45428L5.93812 10.3923H5.03604ZM0.831665 7.82905L0.975652 6.92698H7.86932L7.72532 7.82905H0.831665ZM1.78774 10.3923L3.3039 1.15138H4.20597L2.68981 10.3923H1.78774ZM1.37269 4.61674L1.51669 3.71466H8.41141L8.26636 4.61674H1.37269ZM12.2209 10.5363C11.679 10.5464 11.1466 10.3941 10.692 10.0991C10.2494 9.80367 9.90427 9.38862 9.6544 8.85394C9.40453 8.31502 9.2796 7.67871 9.2796 6.94498C9.2796 6.21654 9.40453 5.58551 9.6544 5.04977C9.90427 4.51509 10.2516 4.10111 10.6962 3.80889C11.1557 3.51347 11.6927 3.36127 12.2389 3.37162C12.691 3.37162 13.0467 3.44679 13.3082 3.59714C13.5729 3.74431 13.7751 3.91266 13.9128 4.10218C14.0547 4.28852 14.1648 4.44204 14.2431 4.56274H14.3331V1.15138H15.3972V10.3923H14.3691V9.32722H14.2431C14.1648 9.45321 14.0536 9.61308 13.9086 9.80578C13.7394 10.016 13.529 10.1893 13.2902 10.3151C13.0234 10.4622 12.6666 10.5363 12.2209 10.5363ZM12.3659 9.58026C12.7926 9.58026 13.1537 9.4691 13.449 9.2457C13.7559 9.00347 13.9885 8.67989 14.1203 8.31185C14.2738 7.91164 14.3511 7.45002 14.3511 6.92698C14.3511 6.40924 14.2759 5.95714 14.1256 5.56857C13.9959 5.20639 13.7638 4.8897 13.4575 4.65698C13.1632 4.43781 12.799 4.3277 12.3659 4.3277C11.9149 4.3277 11.539 4.44416 11.2373 4.67603C10.9298 4.91761 10.697 5.2414 10.566 5.60987C10.4178 6.00055 10.3447 6.43995 10.3447 6.92698C10.3447 7.42037 10.4199 7.86822 10.5702 8.27161C10.7238 8.67183 10.9493 8.99052 11.2468 9.22768C11.5475 9.46273 11.9202 9.58026 12.3659 9.58026ZM20.4009 10.5363C19.7339 10.5363 19.1579 10.3892 18.673 10.0938C18.1901 9.79399 17.8035 9.36182 17.5592 8.84866C17.2998 8.31398 17.1706 7.69141 17.1706 6.98097C17.1706 6.2716 17.2998 5.64587 17.5592 5.10378C17.7977 4.58662 18.1757 4.14625 18.6508 3.83219C19.1198 3.52514 19.6672 3.37162 20.2929 3.37162C20.654 3.37162 21.0108 3.43197 21.3623 3.55161C21.7138 3.67231 22.0346 3.86819 22.3237 4.13817C22.6117 4.40604 22.8425 4.76073 23.014 5.2033C23.1855 5.64586 23.2713 6.19007 23.2713 6.83698V7.28801H17.9287V6.36795H22.1882C22.1882 5.97621 22.1098 5.62787 21.9531 5.32083C21.8067 5.02129 21.5784 4.76942 21.2945 4.59451C20.9931 4.41143 20.6455 4.31882 20.2929 4.3277C19.8684 4.3277 19.502 4.43357 19.1918 4.64426C18.8848 4.85178 18.6487 5.12177 18.4835 5.45634C18.3183 5.78998 18.2335 6.15765 18.2358 6.52994V7.14297C18.2358 7.66706 18.3257 8.11068 18.5068 8.4749C18.69 8.83488 18.9441 9.11017 19.2691 9.29969C19.6147 9.49224 20.0054 9.5891 20.4009 9.58026C20.6805 9.58026 20.9335 9.54108 21.159 9.46273C21.3795 9.38607 21.581 9.26295 21.7498 9.1017C21.9209 8.93094 22.0521 8.72451 22.1341 8.49714L23.1622 8.78618C23.0558 9.13169 22.8689 9.44703 22.617 9.70626C22.3607 9.96778 22.0452 10.1721 21.6694 10.3193C21.2636 10.4693 20.8335 10.5429 20.4009 10.5363ZM29.7997 5.01377L28.8425 5.28482C28.7781 5.11728 28.6885 4.96055 28.5768 4.82002C28.4524 4.65861 28.2917 4.52875 28.1077 4.44098C27.9087 4.34145 27.6546 4.2917 27.3454 4.2917C26.9209 4.2917 26.5672 4.39016 26.2845 4.58497C26.005 4.77767 25.8653 5.02331 25.8653 5.32083C25.8653 5.58552 25.9616 5.79409 26.1543 5.94762C26.3459 6.10114 26.6466 6.22925 27.0564 6.33089L28.0844 6.58394C28.7049 6.73428 29.1665 6.96403 29.4704 7.27425C29.7742 7.58129 29.9257 7.97621 29.9257 8.46113C29.9257 8.85817 29.8113 9.21287 29.5826 9.5252C29.3393 9.85285 29.0118 10.1086 28.635 10.2653C28.2295 10.4463 27.7573 10.5363 27.2184 10.5363C26.5122 10.5363 25.9267 10.3828 25.464 10.0758C25.0002 9.76978 24.707 9.32086 24.5842 8.73112L25.5942 8.47913C25.6906 8.85182 25.8727 9.13134 26.1405 9.31769C26.4105 9.50509 26.7642 9.59826 27.2004 9.59826C27.6969 9.59826 28.0908 9.49239 28.383 9.28169C28.6774 9.06888 28.8245 8.81266 28.8245 8.51514C28.8273 8.40234 28.8062 8.2902 28.7628 8.18605C28.7194 8.0819 28.6546 7.98805 28.5725 7.91058C28.4042 7.74541 28.1448 7.62153 27.7965 7.54001L26.6413 7.27001C26.0061 7.11967 25.5402 6.88674 25.2427 6.57017C24.9473 6.25148 24.8001 5.85338 24.8001 5.37482C24.8001 4.98413 24.9103 4.63792 25.1294 4.33723C25.3518 4.03654 25.6546 3.80042 26.0368 3.6289C26.4499 3.45159 26.8959 3.3639 27.3454 3.37162C28.0304 3.37162 28.5694 3.52197 28.9601 3.82266C29.3539 4.12335 29.6334 4.52039 29.7997 5.01377ZM31.5286 10.3923V3.46161H32.5938V10.3923H31.5286ZM32.0697 2.3065C31.9707 2.30819 31.8723 2.29035 31.7802 2.25401C31.6881 2.21768 31.6041 2.16356 31.5329 2.09474C31.4622 2.02996 31.406 1.95105 31.3679 1.86313C31.3298 1.77521 31.3106 1.68024 31.3116 1.58441C31.3116 1.38642 31.3857 1.21596 31.5329 1.07514C31.6041 1.00632 31.6881 0.952197 31.7802 0.915864C31.8723 0.879531 31.9707 0.861705 32.0697 0.863391C32.2772 0.863391 32.4551 0.933266 32.6022 1.07514C32.674 1.13903 32.7312 1.21754 32.7701 1.30537C32.809 1.39321 32.8287 1.48835 32.8278 1.58441C32.8286 1.68062 32.8089 1.7759 32.77 1.86391C32.7312 1.95191 32.674 2.0306 32.6022 2.09474C32.532 2.16372 32.4488 2.21799 32.3573 2.25435C32.2659 2.29072 32.1681 2.30845 32.0697 2.3065ZM37.3413 13.1356C36.8267 13.1356 36.3842 13.0689 36.0146 12.9366C35.3874 12.7296 34.8535 12.3077 34.507 11.7454L35.3561 11.1504C35.4514 11.2764 35.5742 11.4204 35.7214 11.5835C35.8685 11.7486 36.0697 11.8916 36.3259 12.0112C36.5843 12.1351 36.9231 12.1965 37.3413 12.1965C37.9003 12.1965 38.3619 12.061 38.7262 11.791C39.0904 11.5199 39.2714 11.0954 39.2714 10.5183V9.11017H39.1814C39.1031 9.23722 38.9919 9.39286 38.8479 9.58026C38.6798 9.78511 38.4706 9.95247 38.2338 10.0715C37.9691 10.2134 37.6113 10.2833 37.1602 10.2833C36.6312 10.2913 36.11 10.154 35.6536 9.88625C35.1998 9.60977 34.8349 9.20885 34.6022 8.73112C34.346 8.22609 34.219 7.61305 34.219 6.89097C34.219 6.18054 34.3439 5.56327 34.5927 5.03601C34.8426 4.50662 35.1899 4.09794 35.6356 3.80889C36.0803 3.51773 36.5949 3.37162 37.1782 3.37162C37.6293 3.37162 37.9871 3.44679 38.2518 3.59714C38.5197 3.74431 38.724 3.91266 38.8659 4.10218C39.0099 4.28852 39.1211 4.44204 39.1994 4.56274H39.3085V3.46161H40.3366V10.5903C40.3366 11.1864 40.201 11.6703 39.9311 12.043C39.6609 12.4206 39.2836 12.7083 38.8479 12.8688C38.367 13.052 37.8558 13.1426 37.3413 13.1356ZM37.3042 9.32722C37.732 9.32722 38.093 9.2298 38.3874 9.03393C38.6828 8.83806 38.9062 8.55748 39.0597 8.19009C39.2132 7.82376 39.2894 7.38436 39.2894 6.87297C39.2894 6.37323 39.2143 5.93279 39.0639 5.55058C38.9322 5.19358 38.7006 4.88194 38.3969 4.65273C38.1015 4.43674 37.7383 4.3277 37.3042 4.3277C36.8532 4.3277 36.4773 4.44203 36.1766 4.67073C35.8715 4.90951 35.6387 5.22844 35.5043 5.59187C35.3525 6.0017 35.2775 6.43597 35.283 6.87297C35.283 7.35366 35.3582 7.77929 35.5086 8.14986C35.6621 8.5162 35.8876 8.80524 36.1862 9.01593C36.4869 9.22345 36.8596 9.32722 37.3042 9.32722ZM43.3509 6.22289V10.3923H42.2858V3.46161H43.3149V4.54475H43.4049C43.5669 4.19323 43.8136 3.91053 44.145 3.69666C44.4753 3.47961 44.903 3.37162 45.4261 3.37162C45.8951 3.37162 46.3059 3.46797 46.6574 3.66066C47.01 3.85018 47.2832 4.13818 47.479 4.52675C47.6749 4.91214 47.7723 5.39917 47.7723 5.98891V10.3923H46.7072V6.0609C46.7072 5.51669 46.5664 5.09213 46.2837 4.78826C46.001 4.48122 45.6124 4.3277 45.119 4.3277C44.7792 4.3277 44.4753 4.40181 44.2074 4.54898C43.9427 4.69615 43.7341 4.91214 43.5806 5.19483C43.4271 5.47752 43.3509 5.8195 43.3509 6.22289Z" fill="#91969E"/>
</svg>
