<svg width="199" height="57" viewBox="0 0 199 57" fill="none" xmlns="http://www.w3.org/2000/svg">
<path id="Vector" d="M5.94018 16.1055H0.953369V0.70459H6.09688C7.60563 0.70459 8.90263 1.01269 9.9847 1.62996C11.0678 2.24087 11.8968 3.1207 12.4728 4.26947C13.0551 5.41295 13.3463 6.783 13.3463 8.3828C13.3463 9.98684 13.053 11.3654 12.4665 12.5184C11.9133 13.6413 11.0319 14.5695 9.93917 15.1801C8.83698 15.7963 7.50505 16.1055 5.94018 16.1055ZM3.27843 14.0748H5.81207C6.98519 14.0748 7.96138 13.8545 8.73746 13.413C9.51037 12.9716 10.1218 12.2945 10.4823 11.4808C10.8677 10.6338 11.0615 9.60039 11.0615 8.3828C11.0615 7.17369 10.8677 6.1488 10.4823 5.30707C10.1012 4.46429 9.5326 3.82479 8.77558 3.38963C8.0175 2.95342 7.07836 2.73531 5.95501 2.73531H3.27843V14.0748ZM19.4173 16.3617C18.734 16.3712 18.0567 16.2325 17.4321 15.9551C16.8604 15.6962 16.3732 15.2816 16.026 14.7587C15.6851 14.2378 15.5147 13.5983 15.5147 12.8423C15.5147 12.1901 15.6396 11.6534 15.8905 11.233C16.136 10.8168 16.4861 10.4719 16.9059 10.2325C17.3528 9.97857 17.8343 9.79097 18.3352 9.67556C18.8657 9.54947 19.4031 9.45402 19.9446 9.38969L21.628 9.19488C22.0589 9.13982 22.3723 9.05194 22.5682 8.93124C22.763 8.81054 22.8615 8.61573 22.8615 8.34468V8.29175C22.8615 7.63531 22.6762 7.1271 22.3046 6.76606C21.9393 6.40502 21.393 6.22397 20.6656 6.22397C19.9086 6.22397 19.3125 6.39231 18.8763 6.72794C18.4443 7.05933 18.1457 7.42673 17.9805 7.8333L15.8683 7.35262C16.1182 6.65065 16.4845 6.08421 16.9662 5.65223C17.4522 5.21601 18.0112 4.9005 18.6423 4.70569C19.2873 4.50273 19.9598 4.40094 20.6359 4.40393C21.0965 4.40393 21.5857 4.46006 22.1023 4.57017C22.6233 4.67604 23.1092 4.87086 23.5603 5.15673C24.0166 5.4426 24.3903 5.85128 24.6815 6.38172C24.9716 6.90899 25.1177 7.59296 25.1177 8.43574V16.1055H22.9218V14.5258H22.8308C22.6631 14.8466 22.4422 15.1366 22.1775 15.3834C21.8519 15.6859 21.4713 15.9231 21.0563 16.0822C20.601 16.2675 20.0536 16.3606 19.4173 16.3606V16.3617ZM19.9064 14.5565C20.5279 14.5565 21.0594 14.4337 21.4999 14.1881C21.921 13.9666 22.2727 13.6332 22.5163 13.2246C22.7514 12.8243 22.8689 12.3955 22.8689 11.9392V10.4506C22.7884 10.5311 22.6328 10.6062 22.403 10.6761C22.148 10.7477 21.8893 10.8054 21.628 10.8487C21.3452 10.8924 21.0621 10.9347 20.7789 10.9757L20.0864 11.0668C19.6502 11.1218 19.2521 11.215 18.89 11.3452C18.5614 11.4579 18.2667 11.6521 18.0335 11.9096C17.8228 12.1499 17.718 12.4707 17.718 12.872C17.718 13.4278 17.9234 13.8492 18.3342 14.1351C18.746 14.4157 19.2691 14.5565 19.9064 14.5565ZM36.7674 7.37485L34.7292 7.73484C34.6389 7.46513 34.5016 7.2135 34.3237 6.99157C34.1269 6.74301 33.874 6.54456 33.5858 6.41243C33.2756 6.26208 32.887 6.18691 32.4211 6.18691C31.7838 6.18691 31.2522 6.32985 30.8266 6.61571C30.3999 6.89629 30.1871 7.25945 30.1871 7.70625C30.1871 8.09164 30.3301 8.40186 30.6159 8.63796C30.9018 8.87407 31.3634 9.06677 31.9997 9.21712L33.8346 9.6385C34.8976 9.88414 35.6896 10.2632 36.2105 10.7735C36.7324 11.2849 36.9929 11.9487 36.9929 12.7661C37.0013 13.432 36.7899 14.0821 36.3915 14.6158C35.9955 15.1526 35.4407 15.574 34.7292 15.88C34.022 16.1849 33.2025 16.3384 32.2708 16.3384C30.977 16.3384 29.9214 16.0631 29.1051 15.5115C28.2877 14.9546 27.7858 14.1648 27.6005 13.142L29.7742 12.8116C29.9087 13.3781 30.1871 13.8069 30.6085 14.097C31.0299 14.3829 31.5783 14.5258 32.2549 14.5258C32.9918 14.5258 33.5815 14.3733 34.023 14.0674C34.4635 13.7561 34.6837 13.3781 34.6837 12.9313C34.6837 12.5713 34.5493 12.2674 34.2782 12.0218C34.0125 11.7762 33.6038 11.5909 33.0522 11.4649L31.0977 11.0371C30.0198 10.7915 29.2226 10.3998 28.7059 9.86403C28.1945 9.32723 27.9393 8.64855 27.9393 7.82589C27.9393 7.14404 28.1299 6.54795 28.5111 6.03656C28.8922 5.52517 29.4174 5.12602 30.0887 4.84015C30.761 4.55005 31.5307 4.40393 32.3978 4.40393C33.6472 4.40393 34.6287 4.67499 35.3455 5.21602C36.0622 5.75282 36.5366 6.47277 36.7674 7.37485ZM41.7129 9.24676V16.1055H39.4651V0.70459H41.6833V6.43466H41.8262C42.0838 5.82878 42.5157 5.3132 43.0671 4.95344C43.6229 4.58711 44.3503 4.40393 45.2481 4.40393C46.0391 4.40393 46.7304 4.56699 47.3233 4.89309C47.9246 5.22397 48.4079 5.73392 48.7061 6.35208C49.0375 6.99369 49.2037 7.79624 49.2037 8.75866V16.1055H46.9549V9.02865C46.9549 8.18164 46.7357 7.5252 46.3006 7.05934C45.8644 6.58713 45.2577 6.35208 44.4795 6.35208C43.949 6.35208 43.4736 6.46431 43.0512 6.69089C42.6333 6.9185 42.291 7.26333 42.0665 7.68295C41.8315 8.11387 41.7129 8.63585 41.7129 9.24676ZM52.3832 16.1055V0.70459H54.632V6.42725H54.7676C54.8978 6.18691 55.0852 5.90845 55.3308 5.59294C55.5765 5.27636 55.9174 5.00109 56.3536 4.76498C56.7898 4.52464 57.3669 4.40499 58.0836 4.40499C59.0164 4.40499 59.8486 4.64004 60.5802 5.11119C61.3118 5.58235 61.8857 6.26208 62.3018 7.14933C62.7232 8.03658 62.9339 9.10383 62.9339 10.3521C62.9339 11.6015 62.7253 12.6708 62.3092 13.5634C61.8931 14.4506 61.3224 15.1346 60.595 15.6163C59.8677 16.0928 59.0387 16.331 58.1059 16.331C57.4039 16.331 56.8301 16.2124 56.3843 15.9774C55.9428 15.7413 55.5966 15.466 55.3467 15.1505C55.131 14.8858 54.9373 14.604 54.7676 14.3077H54.5791V16.1055H52.3832ZM54.5865 10.3299C54.5865 11.142 54.7051 11.8545 54.9401 12.4654C55.1763 13.0774 55.5172 13.556 55.9629 13.9022C56.4087 14.2431 56.9561 14.4136 57.6019 14.4136C58.2742 14.4136 58.8354 14.2346 59.2864 13.8789C59.7374 13.5189 60.0784 13.0298 60.3092 12.4125C60.5453 11.7963 60.6628 11.1017 60.6628 10.3299C60.6628 9.56757 60.5474 8.8836 60.3166 8.27693C60.0911 7.67025 59.7501 7.19168 59.2938 6.84123C58.8428 6.48972 58.2795 6.31396 57.6019 6.31396C56.9508 6.31396 56.3991 6.48337 55.9481 6.81794C55.5013 7.15463 55.1635 7.6226 54.9327 8.22504C54.7019 8.82643 54.5865 9.52733 54.5865 10.3299ZM70.3241 16.3384C69.241 16.3384 68.2955 16.0896 67.4887 15.5941C66.6819 15.0965 66.0551 14.403 65.6083 13.5104C65.1626 12.619 64.9392 11.5761 64.9392 10.3828C64.9392 9.18429 65.1626 8.13717 65.6083 7.23933C66.0551 6.34149 66.6819 5.64482 67.4887 5.14931C68.2955 4.65169 69.241 4.40393 70.3241 4.40393C71.4062 4.40393 72.3517 4.65275 73.1584 5.14931C73.9652 5.64482 74.592 6.34149 75.0388 7.23933C75.4846 8.13717 75.708 9.18429 75.708 10.3828C75.708 11.5761 75.4846 12.619 75.0388 13.5104C74.592 14.403 73.9652 15.0975 73.1584 15.5941C72.3517 16.0896 71.4062 16.3384 70.3241 16.3384ZM70.3315 14.4506C71.0335 14.4506 71.6147 14.2653 72.0753 13.8948C72.5369 13.5242 72.8779 13.0298 73.0981 12.4125C73.3236 11.7963 73.4369 11.1165 73.4369 10.3754C73.4443 9.68384 73.3296 8.99638 73.0981 8.34468C72.8779 7.72318 72.5369 7.22451 72.0753 6.84865C71.6147 6.47278 71.0335 6.28431 70.3315 6.28431C69.6243 6.28431 69.0377 6.47278 68.5718 6.84865C68.1102 7.22451 67.7672 7.72318 67.5416 8.34468C67.3145 8.99732 67.2024 9.68442 67.2103 10.3754C67.2103 11.1165 67.3204 11.7963 67.5416 12.4125C67.7672 13.0298 68.1102 13.5242 68.5718 13.8948C69.0377 14.2653 69.6243 14.4506 70.3315 14.4506ZM81.5788 16.3606C80.8472 16.3606 80.1855 16.2251 79.5936 15.9551C79.022 15.6962 78.5347 15.2816 78.1876 14.7587C77.8467 14.2378 77.6762 13.5983 77.6762 12.8423C77.6762 12.1901 77.8011 11.6534 78.0521 11.233C78.303 10.8116 78.6408 10.4781 79.0674 10.2325C79.514 9.97855 79.9951 9.79095 80.4957 9.67556C81.0262 9.54947 81.5636 9.45402 82.1051 9.38969L83.7896 9.19488C84.2205 9.13982 84.5339 9.05194 84.7298 8.93124C84.9246 8.81054 85.023 8.61573 85.023 8.34468V8.29175C85.023 7.63531 84.8377 7.1271 84.4661 6.76606C84.1008 6.40502 83.5535 6.22397 82.8271 6.22397C82.0701 6.22397 81.473 6.39231 81.0378 6.72794C80.6058 7.05933 80.3083 7.42673 80.1421 7.8333L78.0298 7.35262C78.2797 6.65065 78.6461 6.08421 79.1278 5.65223C79.6138 5.21601 80.1728 4.9005 80.8038 4.70569C81.4485 4.50289 82.1206 4.4011 82.7964 4.40393C83.2581 4.40393 83.7472 4.46006 84.2628 4.57017C84.7848 4.67604 85.2708 4.87086 85.7218 5.15673C86.1782 5.4426 86.5519 5.85128 86.8431 6.38172C87.1332 6.90899 87.2782 7.59296 87.2782 8.43574V16.1055H85.0834V14.5258H84.9923C84.8246 14.8468 84.6033 15.1368 84.338 15.3834C84.0128 15.686 83.6325 15.9232 83.2178 16.0822C82.7615 16.2675 82.2152 16.3606 81.5788 16.3606ZM82.068 14.5565C82.6895 14.5565 83.221 14.4337 83.6615 14.1881C84.0824 13.9669 84.4339 13.6334 84.6768 13.2246C84.9094 12.8363 85.0317 12.3919 85.0304 11.9392V10.4506C84.95 10.5311 84.7943 10.6062 84.5646 10.6761C84.3096 10.7477 84.0508 10.8053 83.7896 10.8487C83.4984 10.8942 83.2157 10.9366 82.9394 10.9757L82.248 11.0668C81.8118 11.1218 81.4137 11.215 81.0526 11.3452C80.6969 11.4755 80.411 11.6629 80.195 11.9096C79.9843 12.1499 79.8795 12.4707 79.8795 12.872C79.8795 13.4278 80.0849 13.8492 80.4957 14.1351C80.9065 14.4157 81.4306 14.5565 82.068 14.5565ZM90.2735 16.1055V4.55429H92.4461V6.38913H92.5668C92.7615 5.78898 93.1537 5.27248 93.6795 4.9238C94.217 4.56234 94.8519 4.37325 95.4996 4.3817C95.8186 4.38342 96.1373 4.40109 96.4546 4.43464V6.58501C96.2958 6.54772 96.1349 6.52014 95.9728 6.50242C95.744 6.46734 95.5129 6.44964 95.2815 6.44948C94.7868 6.44078 94.2981 6.55733 93.8606 6.7883C93.4496 7.0044 93.1067 7.33055 92.8704 7.7303C92.634 8.13005 92.5135 8.58764 92.5223 9.05194V16.1055H90.2735ZM102.311 16.331C101.378 16.331 100.546 16.0928 99.8141 15.6163C99.0867 15.1346 98.516 14.4517 98.0999 13.5634C97.6881 12.6708 97.4826 11.6004 97.4826 10.3521C97.4826 9.10383 97.6912 8.03658 98.1073 7.14933C98.5277 6.26208 99.1047 5.58235 99.8363 5.11119C100.569 4.64004 101.398 4.40393 102.325 4.40393C103.042 4.40393 103.619 4.52464 104.056 4.76498C104.496 5.00109 104.837 5.27636 105.078 5.59294C105.324 5.90845 105.513 6.18585 105.649 6.42725H105.784V0.70459H108.033V16.1055H105.837V14.3077H105.649C105.478 14.6051 105.282 14.8871 105.062 15.1505C104.813 15.466 104.466 15.7413 104.025 15.9763C103.584 16.2124 103.013 16.331 102.311 16.331ZM102.807 14.4136C103.453 14.4136 104 14.2431 104.446 13.9022C104.897 13.556 105.238 13.0763 105.469 12.4654C105.704 11.8535 105.823 11.142 105.823 10.3299C105.823 9.52733 105.707 8.82643 105.476 8.22399C105.246 7.6226 104.908 7.15463 104.461 6.81794C104.015 6.48231 103.464 6.31502 102.807 6.31502C102.13 6.31502 101.566 6.48972 101.115 6.84123C100.663 7.19168 100.323 7.67025 100.093 8.27693C99.867 8.8836 99.7537 9.56862 99.7537 10.3309C99.7537 11.1017 99.8691 11.7963 100.1 12.4125C100.331 13.0298 100.672 13.5178 101.123 13.8789C101.579 14.2357 102.14 14.4136 102.807 14.4136ZM122.012 16.1055H117.027V0.70459H122.17C123.679 0.70459 124.975 1.01269 126.058 1.62996C127.141 2.24087 127.97 3.1207 128.547 4.26947C129.128 5.41295 129.419 6.783 129.419 8.3828C129.419 9.98684 129.126 11.3654 128.54 12.5184C127.986 13.6411 127.105 14.5693 126.012 15.1801C124.91 15.7963 123.576 16.1055 122.012 16.1055ZM119.351 14.0748H121.884C123.057 14.0748 124.032 13.8545 124.81 13.413C125.582 12.9716 126.194 12.2945 126.554 11.4808C126.94 10.6338 127.133 9.60039 127.133 8.3828C127.133 7.17369 126.94 6.1488 126.554 5.30707C126.173 4.46429 125.604 3.82479 124.847 3.38963C124.09 2.95342 123.15 2.73531 122.027 2.73531H119.351V14.0748ZM137.106 16.3384C135.968 16.3384 134.988 16.0949 134.166 15.6079C133.348 15.116 132.69 14.3983 132.271 13.5411C131.829 12.6486 131.609 11.6036 131.609 10.4051C131.609 9.22241 131.829 8.17952 132.271 7.27745C132.718 6.37431 133.339 5.67023 134.135 5.16414C134.938 4.65804 135.875 4.40393 136.948 4.40393C137.594 4.40314 138.235 4.51271 138.844 4.72792C139.458 4.94563 140.02 5.29177 140.49 5.74328C140.976 6.20385 141.359 6.80312 141.641 7.54002C141.921 8.27163 142.061 9.16206 142.061 10.2102V11.0064H132.88V9.32299H139.858C139.858 8.73008 139.738 8.20705 139.497 7.75072C139.267 7.30005 138.915 6.92242 138.483 6.66018C138.051 6.39549 137.544 6.26208 136.963 6.26208C136.331 6.26208 135.781 6.41666 135.308 6.72794C134.842 7.03392 134.481 7.4352 134.226 7.93071C133.974 8.42682 133.845 8.97624 133.85 9.53263V10.8487C133.85 11.6216 133.985 12.278 134.256 12.818C134.532 13.3601 134.916 13.7741 135.407 14.0599C135.898 14.3405 136.472 14.4803 137.128 14.4803C137.555 14.4803 137.944 14.421 138.294 14.3003C138.645 14.1753 138.948 13.989 139.204 13.7434C139.46 13.4988 139.656 13.1949 139.79 12.8339L141.918 13.2172C141.754 13.8338 141.439 14.3999 141.001 14.8646C140.565 15.3305 140.016 15.6936 139.354 15.9551C138.697 16.2103 137.948 16.3384 137.106 16.3384ZM153.211 7.37485L151.173 7.73484C151.083 7.46505 150.946 7.21339 150.767 6.99157C150.571 6.7434 150.318 6.545 150.031 6.41243C149.719 6.26208 149.331 6.18691 148.865 6.18691C148.229 6.18691 147.697 6.32985 147.27 6.61571C146.845 6.89629 146.632 7.25945 146.632 7.70625C146.632 8.09164 146.775 8.40186 147.061 8.63796C147.346 8.87407 147.807 9.06677 148.443 9.21712L150.278 9.6385C151.341 9.88414 152.133 10.2632 152.655 10.7735C153.176 11.2849 153.437 11.9487 153.437 12.7661C153.437 13.4586 153.237 14.0748 152.835 14.6158C152.439 15.1526 151.886 15.574 151.173 15.88C150.467 16.1849 149.647 16.3384 148.714 16.3384C147.421 16.3384 146.366 16.0631 145.549 15.5115C144.731 14.9546 144.231 14.1648 144.045 13.142L146.218 12.8116C146.353 13.3781 146.632 13.8069 147.052 14.097C147.474 14.3829 148.023 14.5258 148.7 14.5258C149.437 14.5258 150.025 14.3733 150.467 14.0674C150.908 13.7561 151.129 13.3781 151.129 12.9313C151.129 12.5713 150.993 12.2674 150.722 12.0218C150.456 11.7762 150.048 11.5909 149.497 11.4649L147.541 11.0371C146.464 10.7915 145.666 10.3998 145.151 9.86403C144.639 9.32723 144.383 8.64855 144.383 7.82589C144.383 7.14404 144.574 6.54795 144.955 6.03656C145.336 5.52517 145.862 5.12602 146.533 4.84015C147.206 4.55005 147.975 4.40393 148.843 4.40393C150.091 4.40393 151.073 4.67499 151.79 5.21602C152.507 5.75282 152.98 6.47277 153.211 7.37485ZM157.977 12.187L157.962 9.44263H158.353L162.955 4.55429H165.647L160.398 10.1192H160.044L157.977 12.187ZM155.909 16.1044V0.705648H158.158V16.1065H155.909V16.1044ZM163.203 16.1044L159.067 10.6158L160.616 9.04454L165.963 16.1055L163.203 16.1044ZM173.087 4.55429V6.35949H166.778V4.55429H173.087ZM168.47 1.78771H170.719V12.7142C170.719 13.1494 170.785 13.4787 170.915 13.6989C171.028 13.8996 171.205 14.056 171.419 14.1425C171.628 14.2177 171.857 14.2548 172.103 14.2548C172.283 14.2548 172.441 14.2431 172.576 14.2177L172.893 14.1573L173.298 16.0144C173.117 16.0786 172.931 16.1289 172.742 16.1648C172.445 16.2259 172.143 16.2564 171.839 16.2558C171.272 16.2701 170.708 16.1622 170.185 15.9393C169.682 15.7252 169.251 15.37 168.944 14.9165C168.629 14.4559 168.47 13.8768 168.47 13.1801V1.78771ZM180.316 16.3384C179.234 16.3384 178.288 16.0896 177.481 15.5941C176.674 15.0965 176.048 14.403 175.601 13.5104C175.155 12.619 174.932 11.5761 174.932 10.3828C174.932 9.18429 175.155 8.13717 175.601 7.23933C176.048 6.34149 176.674 5.64482 177.481 5.14931C178.288 4.65169 179.234 4.40393 180.316 4.40393C181.399 4.40393 182.344 4.65275 183.151 5.14931C183.958 5.64482 184.585 6.34149 185.03 7.23933C185.477 8.13717 185.701 9.18429 185.701 10.3828C185.701 11.5761 185.477 12.619 185.03 13.5104C184.585 14.403 183.958 15.0975 183.151 15.5941C182.344 16.0896 181.399 16.3384 180.316 16.3384ZM180.323 14.4506C181.025 14.4506 181.607 14.2653 182.068 13.8948C182.53 13.5242 182.87 13.0298 183.091 12.4125C183.316 11.7963 183.43 11.1165 183.43 10.3754C183.437 9.68384 183.322 8.99638 183.091 8.34468C182.87 7.72318 182.53 7.22451 182.068 6.84865C181.607 6.47278 181.025 6.28431 180.323 6.28431C179.617 6.28431 179.03 6.47278 178.563 6.84865C178.103 7.22451 177.76 7.72318 177.533 8.34468C177.307 8.99751 177.195 9.68453 177.203 10.3754C177.203 11.1165 177.313 11.7963 177.533 12.4125C177.76 13.0298 178.103 13.5242 178.563 13.8948C179.03 14.2653 179.617 14.4506 180.323 14.4506ZM188.21 20.4359V4.55429H190.406V6.42725H190.593C190.759 6.13448 190.947 5.85548 191.157 5.59294C191.403 5.27636 191.744 5.00003 192.18 4.76498C192.616 4.52464 193.192 4.40499 193.909 4.40499C194.842 4.40499 195.674 4.64004 196.406 5.11119C197.138 5.58235 197.712 6.26208 198.128 7.14933C198.55 8.03658 198.759 9.10383 198.759 10.3521C198.759 11.6015 198.552 12.6708 198.136 13.5634C197.72 14.4506 197.148 15.1346 196.422 15.6163C195.694 16.0928 194.864 16.331 193.933 16.331C193.231 16.331 192.657 16.2124 192.21 15.9774C191.769 15.7413 191.423 15.466 191.172 15.1505C190.957 14.8858 190.763 14.604 190.593 14.3077H190.459V20.4359H188.21ZM190.413 10.3299C190.413 11.142 190.531 11.8545 190.767 12.4654C191.002 13.0774 191.343 13.556 191.79 13.9022C192.235 14.2431 192.782 14.4136 193.429 14.4136C194.1 14.4136 194.662 14.2346 195.113 13.8789C195.564 13.5189 195.905 13.0298 196.136 12.4125C196.371 11.7963 196.489 11.1017 196.489 10.3299C196.489 9.56757 196.374 8.8836 196.143 8.27693C195.918 7.67025 195.577 7.19168 195.12 6.84123C194.669 6.48972 194.105 6.31396 193.429 6.31396C192.776 6.31396 192.226 6.48337 191.774 6.81794C191.328 7.15463 190.989 7.6226 190.759 8.22504C190.529 8.82643 190.413 9.52733 190.413 10.3299ZM5.94018 52.1037H0.953369V36.7028H6.09688C7.60563 36.7028 8.90263 37.0109 9.9847 37.6282C11.0678 38.2391 11.8968 39.1189 12.4728 40.2677C13.0551 41.4101 13.3463 42.7812 13.3463 44.3811C13.3463 45.9851 13.053 47.3636 12.4665 48.5166C11.9134 49.6396 11.032 50.5679 9.93917 51.1784C8.83698 51.7946 7.50505 52.1037 5.94018 52.1037ZM3.27843 50.073H5.81207C6.98519 50.073 7.96138 49.8528 8.73746 49.4113C9.51042 48.9699 10.1219 48.2928 10.4823 47.479C10.8677 46.632 11.0615 45.5986 11.0615 44.3811C11.0615 43.173 10.8677 42.147 10.4823 41.3053C10.1012 40.4625 9.5326 39.8241 8.77558 39.3879C8.0175 38.9517 7.07836 38.7336 5.95501 38.7336H3.27843V50.073ZM21.034 52.3367C19.8959 52.3367 18.9165 52.0931 18.0938 51.6072C17.2759 51.1152 16.6177 50.397 16.1986 49.5394C15.7582 48.6468 15.5369 47.6018 15.5369 46.4033C15.5369 45.2207 15.7582 44.1778 16.1986 43.2757C16.6454 42.3726 17.2669 41.6685 18.0642 41.1624C18.8657 40.6563 19.8037 40.4032 20.8763 40.4032C21.5218 40.4019 22.1628 40.5111 22.7715 40.7262C23.3862 40.9438 23.9474 41.29 24.4179 41.7415C24.9049 42.2021 25.2882 42.8014 25.5688 43.5383C25.8493 44.2699 25.9891 45.1603 25.9891 46.2074V47.0047H16.8085V45.3202H23.7858C23.7858 44.7294 23.6661 44.2053 23.4258 43.749C23.1948 43.2981 22.8429 42.9205 22.4094 42.6584C21.9795 42.3927 21.4724 42.2603 20.8911 42.2603C20.259 42.2603 19.7085 42.416 19.2362 42.7262C18.7704 43.0322 18.4104 43.4334 18.1542 43.929C17.9025 44.4251 17.7736 44.9745 17.7783 45.5309V46.8469C17.7783 47.6188 17.9128 48.2763 18.1838 48.8173C18.4591 49.3583 18.8434 49.7723 19.3347 50.0582C19.826 50.3388 20.3998 50.4796 21.0563 50.4796C21.483 50.4796 21.8715 50.4192 22.222 50.2985C22.5735 50.1736 22.8763 49.9883 23.1325 49.7427C23.3877 49.497 23.5836 49.1932 23.718 48.8321L25.8462 49.2154C25.6816 49.832 25.3666 50.3981 24.9293 50.8629C24.493 51.3287 23.9446 51.6919 23.2829 51.9534C22.6264 52.2086 21.8758 52.3367 21.034 52.3367ZM37.139 43.3731L35.1019 43.7341C35.0115 43.464 34.8738 43.2119 34.6954 42.9898C34.499 42.7412 34.2464 42.5427 33.9585 42.4107C33.6482 42.2603 33.2597 42.1852 32.7938 42.1852C32.1564 42.1852 31.6249 42.3281 31.1982 42.614C30.7726 42.8945 30.5598 43.2577 30.5598 43.7034C30.5598 44.0899 30.7027 44.4012 30.9886 44.6362C31.2745 44.8723 31.735 45.065 32.3714 45.2154L34.2062 45.6367C35.2692 45.8824 36.0612 46.2604 36.5832 46.7718C37.1041 47.2831 37.3645 47.947 37.3645 48.7644C37.3645 49.4568 37.1634 50.073 36.7632 50.614C36.3672 51.1508 35.8134 51.5722 35.1009 51.8782C34.3947 52.1831 33.5752 52.3367 32.6424 52.3367C31.3486 52.3367 30.2941 52.0603 29.4767 51.5098C28.6593 50.9529 28.1585 50.163 27.9732 49.1402L30.1458 48.8099C30.2814 49.3763 30.5588 49.8051 30.9801 50.0952C31.4015 50.3811 31.951 50.524 32.6276 50.524C33.3645 50.524 33.9532 50.3716 34.3947 50.0656C34.8362 49.7543 35.0564 49.3763 35.0564 48.9295C35.0564 48.5695 34.9209 48.2657 34.6498 48.02C34.3852 47.7744 33.9765 47.5891 33.4248 47.4642L31.4693 47.0354C30.3915 46.7898 29.5953 46.398 29.0786 45.8623C28.5672 45.3255 28.311 44.6468 28.311 43.8241C28.311 43.1423 28.5016 42.5462 28.8827 42.0348C29.2639 41.5234 29.7901 41.1243 30.4624 40.8384C31.1337 40.5483 31.9023 40.4032 32.7705 40.4032C34.0188 40.4032 35.0014 40.6732 35.7181 41.2153C36.4349 41.7511 36.9082 42.471 37.139 43.3731ZM39.8368 52.1037V40.5536H42.0867V52.1037H39.8368ZM40.9728 38.7706C40.5987 38.7774 40.2368 38.6371 39.9649 38.3799C39.8335 38.2597 39.7288 38.1133 39.6577 37.95C39.5866 37.7868 39.5505 37.6104 39.552 37.4323C39.552 37.0618 39.6896 36.7452 39.9649 36.4847C40.2455 36.219 40.5811 36.0866 40.9728 36.0866C41.3635 36.0866 41.697 36.219 41.9723 36.4847C42.2529 36.7452 42.3937 37.0618 42.3937 37.4323C42.3937 37.7987 42.2529 38.1142 41.9723 38.3799C41.697 38.6404 41.3635 38.7706 40.9728 38.7706ZM49.9523 56.6755C49.0354 56.6755 48.2455 56.5548 47.5838 56.3145C46.9274 56.0741 46.3906 55.7554 45.9745 55.3595C45.5797 54.9927 45.2628 54.5501 45.0427 54.0582L46.975 53.261C47.1105 53.4823 47.2905 53.7152 47.516 53.9608C47.7468 54.2117 48.0581 54.4246 48.4488 54.6003C48.8448 54.775 49.3541 54.8629 49.9756 54.8629C50.8279 54.8629 51.532 54.6554 52.0889 54.2393C52.6447 53.8274 52.9232 53.171 52.9232 52.2689V49.9978H52.7803C52.6447 50.2435 52.4489 50.5166 52.1937 50.8173C51.9428 51.118 51.5976 51.3785 51.1561 51.5998C50.7146 51.82 50.1407 51.9301 49.4345 51.9301C48.5219 51.9301 47.6992 51.7173 46.9676 51.2917C46.2402 50.8597 45.6642 50.2255 45.2376 49.389C44.8172 48.5463 44.6065 47.5118 44.6065 46.2826C44.6065 45.0544 44.8141 44.002 45.2312 43.1254C45.6515 42.2476 46.2286 41.5753 46.9602 41.1094C47.6918 40.6383 48.5219 40.4032 49.4483 40.4032C50.1661 40.4032 50.7453 40.5229 51.1857 40.7632C51.6273 40.9993 51.9703 41.2746 52.2159 41.5912C52.4669 41.9067 52.6606 42.1852 52.7951 42.4255H52.9613V40.5536H55.1635V52.3589C55.1635 53.352 54.9338 54.1662 54.4722 54.8025C54.0105 55.4399 53.3869 55.9111 52.5992 56.2171C51.8178 56.522 50.9359 56.6755 49.9523 56.6755ZM49.9311 50.0656C50.5769 50.0656 51.1233 49.9153 51.569 49.6146C52.0211 49.3086 52.362 48.8724 52.5918 48.3059C52.8279 47.7342 52.9454 47.0502 52.9454 46.253C52.9454 45.4758 52.83 44.7919 52.5992 44.2C52.3694 43.6082 52.0306 43.1476 51.5849 42.8162C51.1381 42.4806 50.5875 42.3122 49.93 42.3122C49.2535 42.3122 48.6892 42.488 48.2381 42.8395C47.7871 43.1846 47.4462 43.6558 47.2154 44.2529C46.9898 44.849 46.8765 45.5161 46.8765 46.253C46.8765 47.01 46.993 47.6738 47.2228 48.2456C47.4536 48.8173 47.7945 49.2631 48.2455 49.5839C48.7019 49.9047 49.2651 50.0656 49.9311 50.0656ZM60.4278 45.245V52.1037H58.1789V40.5536H60.3378V42.4329H60.4807C60.7404 41.8281 61.1751 41.3148 61.729 40.9591C62.2997 40.5885 63.0196 40.4032 63.8868 40.4032C64.6734 40.4032 65.3627 40.5684 65.9546 40.8987C66.5464 41.2248 67.0048 41.7108 67.3309 42.3577C67.6571 43.0046 67.8201 43.804 67.8201 44.7569V52.1037H65.5713V45.0269C65.5713 44.1905 65.3532 43.5361 64.917 43.065C64.4807 42.5885 63.8815 42.3503 63.1202 42.3503C62.5982 42.3503 62.1345 42.4636 61.729 42.6891C61.3277 42.9146 61.009 43.245 60.774 43.6812C60.5432 44.1121 60.4278 44.6341 60.4278 45.245ZM78.9436 36.7028V52.1037H76.6196V36.7028H78.9436ZM86.4704 52.3292C85.5376 52.3292 84.7054 52.091 83.9738 51.6146C83.2464 51.1328 82.6757 50.4489 82.2596 49.5616C81.8478 48.6691 81.6424 47.5987 81.6424 46.3504C81.6424 45.1021 81.851 44.0348 82.2671 43.1476C82.6884 42.2603 83.2644 41.5806 83.996 41.1094C84.7287 40.6383 85.5577 40.4032 86.4852 40.4032C87.202 40.4032 87.779 40.5229 88.2152 40.7632C88.6557 40.9993 88.9966 41.2746 89.238 41.5912C89.4836 41.9067 89.6742 42.1852 89.8087 42.4255H89.9442V36.7028H92.193V52.1037H89.9971V50.3059H89.8087C89.6381 50.6034 89.4419 50.8854 89.2221 51.1487C88.9723 51.4642 88.626 51.7395 88.1845 51.9756C87.7441 52.2107 87.1723 52.3292 86.4704 52.3292ZM86.9669 50.4118C87.6138 50.4118 88.1602 50.2413 88.6059 49.9004C89.057 49.5542 89.3979 49.0756 89.6287 48.4637C89.8637 47.8517 89.9823 47.1402 89.9823 46.3281C89.9823 45.5266 89.8669 44.8247 89.6361 44.2222C89.4053 43.6208 89.0675 43.1529 88.6207 42.8162C88.175 42.4806 87.6234 42.3122 86.9669 42.3122C86.2904 42.3122 85.726 42.488 85.275 42.8395C84.824 43.1899 84.4831 43.6685 84.2523 44.2752C84.0267 44.8819 83.9134 45.5658 83.9134 46.3281C83.9134 47.1 84.0289 47.7945 84.2597 48.4107C84.4905 49.028 84.8314 49.5161 85.2824 49.8771C85.7388 50.2339 86.2999 50.4118 86.9669 50.4118ZM100.379 52.3367C99.2423 52.3367 98.2619 52.0931 97.4392 51.6072C96.6217 51.115 95.9639 50.3969 95.5451 49.5394C95.1036 48.6468 94.8834 47.6018 94.8834 46.4033C94.8834 45.2207 95.1036 44.1778 95.5451 43.2757C95.9909 42.3726 96.6123 41.6685 97.4096 41.1624C98.2121 40.6563 99.1492 40.4032 100.222 40.4032C100.874 40.4032 101.505 40.5102 102.117 40.7262C102.732 40.9432 103.293 41.2894 103.763 41.7415C104.25 42.2021 104.634 42.8014 104.914 43.5383C105.195 44.2699 105.336 45.1603 105.336 46.2074V47.0047H96.1539V45.3202H103.132C103.132 44.7294 103.012 44.2053 102.771 43.749C102.541 43.2982 102.189 42.9206 101.756 42.6584C101.325 42.3927 100.819 42.2603 100.237 42.2603C99.6055 42.2603 99.0539 42.416 98.5827 42.7262C98.1169 43.0322 97.7558 43.4334 97.4996 43.929C97.2478 44.4251 97.1189 44.9745 97.1237 45.5309V46.8469C97.1237 47.6188 97.2593 48.2763 97.5303 48.8173C97.8056 49.3583 98.1889 49.7723 98.6801 50.0582C99.1714 50.3388 99.7453 50.4796 100.403 50.4796C100.828 50.4796 101.217 50.4192 101.568 50.2985C101.919 50.1736 102.222 49.9883 102.478 49.7427C102.733 49.497 102.929 49.1932 103.064 48.8321L105.193 49.2154C105.028 49.8321 104.712 50.3983 104.275 50.8629C103.838 51.3287 103.29 51.6919 102.628 51.9534C101.972 52.2086 101.222 52.3367 100.379 52.3367ZM111.192 52.3589C110.459 52.3589 109.797 52.2234 109.206 51.9534C108.635 51.6946 108.147 51.28 107.8 50.757C107.459 50.2361 107.289 49.5966 107.289 48.8395C107.289 48.1884 107.414 47.6516 107.665 47.2302C107.915 46.8099 108.254 46.4764 108.68 46.2307C109.127 45.9771 109.608 45.7895 110.109 45.6738C110.639 45.5481 111.176 45.4527 111.718 45.3879L113.402 45.1931C113.833 45.1381 114.147 45.0502 114.343 44.9295C114.537 44.8088 114.636 44.614 114.636 44.3429V44.29C114.636 43.6336 114.449 43.1253 114.079 42.7643C113.713 42.4033 113.166 42.2222 112.44 42.2222C111.683 42.2222 111.086 42.3906 110.65 42.7262C110.219 43.0576 109.92 43.426 109.755 43.8316L107.642 43.3509C107.892 42.6489 108.259 42.0825 108.74 41.6505C109.227 41.2153 109.786 40.8988 110.417 40.7039C111.061 40.5012 111.733 40.3997 112.409 40.4032C112.871 40.4032 113.36 40.4583 113.876 40.5684C114.398 40.6732 114.884 40.8691 115.335 41.155C115.791 41.4408 116.165 41.8495 116.455 42.38C116.746 42.9072 116.891 43.5912 116.891 44.4329V52.1037H114.695V50.524H114.605C114.437 50.8451 114.216 51.1352 113.951 51.3816C113.626 51.6842 113.245 51.9215 112.831 52.0804C112.374 52.2668 111.828 52.3589 111.192 52.3589ZM111.68 50.5548C112.301 50.5548 112.833 50.4319 113.274 50.1863C113.72 49.9407 114.059 49.6199 114.29 49.2228C114.522 48.8343 114.644 48.39 114.643 47.9375V46.4488C114.563 46.5282 114.407 46.6045 114.176 46.6744C113.922 46.7458 113.663 46.8034 113.402 46.8469C113.111 46.8925 112.828 46.9348 112.552 46.975C112.277 47.01 112.046 47.0396 111.861 47.065C111.453 47.1134 111.052 47.2068 110.665 47.3435C110.336 47.4556 110.041 47.6498 109.808 47.9078C109.597 48.1482 109.492 48.469 109.492 48.8702C109.492 49.4261 109.698 49.8475 110.109 50.1334C110.519 50.4139 111.043 50.5548 111.68 50.5548Z" fill="white"/>
</svg>
