<svg width="63" height="13" viewBox="0 0 63 13" fill="none" xmlns="http://www.w3.org/2000/svg">
<path id="Vector" opacity="0.67" d="M0.627869 9.62475V0.383794H2.02226V4.39971H6.62899V0.383794H8.02762V9.62475H6.62899V5.59507H2.02226V9.62475H0.627869ZM11.4517 0.383794V9.62475H10.0573V0.383794H11.4517ZM17.457 4.41771V5.59083H13.3607V4.41771H17.457ZM19.3628 9.62475V0.383794H25.0929V1.58444H20.7572V4.39971H24.6821V5.59507H20.7572V9.62475H19.3628ZM26.6991 9.62475V2.69403H28.0479V9.62475H26.6991ZM27.3809 1.62467C27.1566 1.62855 26.9396 1.54459 26.7764 1.39069C26.6973 1.31867 26.6343 1.23082 26.5915 1.13286C26.5486 1.03491 26.5268 0.929046 26.5275 0.822127C26.5261 0.715106 26.5476 0.609022 26.5905 0.51097C26.6335 0.412919 26.6968 0.325158 26.7764 0.253563C26.8564 0.175825 26.951 0.11467 27.0548 0.0736064C27.1585 0.0325428 27.2693 0.0123816 27.3809 0.0142832C27.6149 0.0142832 27.815 0.0936889 27.9802 0.253563C28.1496 0.410262 28.2332 0.599785 28.2332 0.822127C28.2339 0.929437 28.2117 1.03565 28.168 1.13369C28.1244 1.23173 28.0604 1.31935 27.9802 1.39069C27.8192 1.54486 27.6037 1.62898 27.3809 1.62467ZM32.4577 9.76027C31.8976 9.76027 31.399 9.61733 30.9596 9.33146C30.5233 9.04242 30.1803 8.63161 29.9304 8.09905C29.6837 7.56437 29.5609 6.9217 29.5609 6.17315C29.5609 5.42353 29.6859 4.783 29.9357 4.25044C30.1877 3.71893 30.5339 3.31128 30.9733 3.02859C31.4187 2.744 31.9377 2.59639 32.4662 2.60404C32.8971 2.60404 33.2423 2.67604 33.5038 2.82109C33.7685 2.96191 33.9739 3.12706 34.1179 3.31658C34.265 3.5061 34.3794 3.67341 34.4609 3.8174H34.5424V0.383794H35.8913V9.62475H34.5732V8.54585H34.4609C34.358 8.72393 34.24 8.89291 34.1083 9.05091C33.9372 9.25753 33.7253 9.42657 33.4858 9.54746C33.2211 9.68934 32.8791 9.76027 32.4577 9.76027ZM32.7552 8.60937C33.1438 8.60937 33.471 8.5067 33.7388 8.30235C34.0099 8.09483 34.2142 7.80791 34.3529 7.44052C34.4937 7.07418 34.5647 6.64642 34.5647 6.15938C34.5647 5.67764 34.4959 5.25731 34.3572 4.89627C34.2385 4.56286 34.0274 4.27016 33.7484 4.05243C33.4805 3.85127 33.1491 3.74961 32.7552 3.74961C32.3497 3.74961 32.0109 3.8555 31.7399 4.0662C31.4699 4.27689 31.2645 4.56382 31.1269 4.92803C30.986 5.32302 30.9171 5.74007 30.9236 6.15938C30.9236 6.62206 30.9924 7.03924 31.1311 7.40876C31.2698 7.77933 31.4741 8.0726 31.7441 8.28859C32.0183 8.50246 32.355 8.60937 32.7552 8.60937ZM40.803 9.7645C40.1201 9.7645 39.5324 9.61839 39.039 9.32616C38.5485 9.03108 38.1536 8.60056 37.9019 8.08635C37.6372 7.55061 37.5049 6.92381 37.5049 6.20491C37.5049 5.49447 37.6372 4.86876 37.9019 4.32773C38.1493 3.80879 38.537 3.36943 39.021 3.05932C39.5028 2.75545 40.065 2.60404 40.7087 2.60404C41.0994 2.60404 41.4785 2.66862 41.8459 2.79779C42.2147 2.92854 42.5515 3.13644 42.8337 3.40763C43.1248 3.68397 43.3557 4.0429 43.524 4.48547C43.6924 4.92486 43.776 5.45848 43.776 6.08739V6.56489H38.2672V5.55484H42.4547C42.4547 5.20015 42.3827 4.8857 42.2376 4.61148C42.0991 4.34125 41.8884 4.11473 41.6288 3.95715C41.3533 3.79372 41.0374 3.71116 40.7172 3.71892C40.3382 3.71892 40.0078 3.8121 39.7251 3.99844C39.4487 4.1778 39.2245 4.42687 39.0751 4.72053C38.9241 5.01796 38.8467 5.34728 38.8495 5.68082V6.47067C38.8495 6.93335 38.9311 7.32827 39.0931 7.65225C39.2582 7.9773 39.489 8.22612 39.7834 8.39764C40.0788 8.56598 40.4229 8.64963 40.8167 8.64963C41.0729 8.64963 41.3059 8.61361 41.5166 8.54162C41.7262 8.46644 41.9083 8.35527 42.0619 8.2081C42.2154 8.05987 42.3329 7.87883 42.4144 7.66178L43.6913 7.89155C43.5886 8.26741 43.4054 8.59668 43.1407 8.88043C42.8782 9.15995 42.5489 9.37806 42.1518 9.5337C41.7205 9.69405 41.263 9.77232 40.803 9.7645ZM46.622 0.383794V9.62475H45.2731V0.383794H46.622ZM48.4367 9.62475V2.69403H49.7866V9.62475H48.4367ZM49.1186 1.62467C48.8942 1.62855 48.6773 1.54459 48.514 1.39069C48.4353 1.31849 48.3726 1.23058 48.3299 1.13265C48.2872 1.03472 48.2655 0.928947 48.2663 0.822127C48.2663 0.599785 48.3488 0.410262 48.514 0.253563C48.594 0.175825 48.6887 0.11467 48.7924 0.0736064C48.8962 0.0325428 49.007 0.0123816 49.1186 0.0142832C49.3536 0.0142832 49.5527 0.0936889 49.7189 0.253563C49.7992 0.324691 49.8633 0.412281 49.9068 0.510389C49.9503 0.608496 49.9722 0.714823 49.9709 0.822127C49.9715 0.929326 49.9493 1.03542 49.9059 1.13343C49.8624 1.23143 49.7987 1.31912 49.7189 1.39069C49.5575 1.54482 49.3417 1.62892 49.1186 1.62467ZM54.8359 2.69403V3.77714H51.0508V2.69403H54.8359ZM52.0662 1.03388H53.4151V7.5898C53.4151 7.85131 53.4542 8.04823 53.5326 8.18057C53.6 8.30088 53.7065 8.39462 53.8343 8.44633C53.9603 8.49186 54.098 8.51409 54.2451 8.51409C54.3531 8.51409 54.4484 8.50668 54.5289 8.49186L54.7184 8.45586L54.9619 9.57076C54.6805 9.66712 54.3849 9.71578 54.0874 9.71474C53.7466 9.72362 53.4078 9.65899 53.0943 9.52523C52.792 9.39686 52.5334 9.18353 52.3499 8.91113C52.1604 8.63479 52.0662 8.28753 52.0662 7.86932V1.03388ZM57.1811 12.223C56.9799 12.223 56.7957 12.2071 56.6306 12.1732C56.5041 12.1544 56.3801 12.1213 56.261 12.0747L56.585 10.9694C56.8317 11.035 57.0519 11.0636 57.2446 11.0552C57.435 11.0465 57.6158 10.9694 57.7539 10.8381C57.9043 10.7026 58.0366 10.4813 58.151 10.1753L58.3182 9.71474L55.7825 2.69403H57.2266L58.981 8.07259H59.053L60.8085 2.69403H62.2569L59.4014 10.549C59.269 10.9101 59.0996 11.2161 58.8953 11.4649C58.7009 11.7103 58.4503 11.9052 58.1647 12.0335C57.882 12.1605 57.5538 12.223 57.1811 12.223Z" fill="white"/>
</svg>
