<svg width="24" height="25" viewBox="0 0 24 25" fill="none" xmlns="http://www.w3.org/2000/svg">
<g id="FW59kX66ZiwWwwTt4iVCbhjg4w4.svg">
<path id="Vector" fill-rule="evenodd" clip-rule="evenodd" d="M12 22.1199C14.5461 22.1199 16.9879 21.1085 18.7882 19.3081C20.5886 17.5078 21.6 15.066 21.6 12.5199C21.6 9.97384 20.5886 7.53205 18.7882 5.7317C16.9879 3.93135 14.5461 2.91992 12 2.91992C9.45395 2.91992 7.01215 3.93135 5.2118 5.7317C3.41145 7.53205 2.40002 9.97384 2.40002 12.5199C2.40002 15.066 3.41145 17.5078 5.2118 19.3081C7.01215 21.1085 9.45395 22.1199 12 22.1199ZM8.40002 11.3199C8.08176 11.3199 7.77654 11.4464 7.5515 11.6714C7.32645 11.8964 7.20002 12.2017 7.20002 12.5199C7.20002 12.8382 7.32645 13.1434 7.5515 13.3685C7.77654 13.5935 8.08176 13.7199 8.40002 13.7199H15.6C15.9183 13.7199 16.2235 13.5935 16.4486 13.3685C16.6736 13.1434 16.8 12.8382 16.8 12.5199C16.8 12.2017 16.6736 11.8964 16.4486 11.6714C16.2235 11.4464 15.9183 11.3199 15.6 11.3199H8.40002Z" fill="#FCFDF2"/>
</g>
</svg>
