<svg width="24" height="25" viewBox="0 0 24 25" fill="none" xmlns="http://www.w3.org/2000/svg">
<g id="aXqB4iCVk2t0FEOlO4hgPgF4sA.svg">
<path id="Vector" fill-rule="evenodd" clip-rule="evenodd" d="M12 22.49C14.5461 22.49 16.9879 21.4786 18.7882 19.6783C20.5886 17.8779 21.6 15.4361 21.6 12.89C21.6 10.344 20.5886 7.90216 18.7882 6.10181C16.9879 4.30146 14.5461 3.29004 12 3.29004C9.45395 3.29004 7.01215 4.30146 5.2118 6.10181C3.41145 7.90216 2.40002 10.344 2.40002 12.89C2.40002 15.4361 3.41145 17.8779 5.2118 19.6783C7.01215 21.4786 9.45395 22.49 12 22.49ZM13.2 9.29004C13.2 8.97178 13.0736 8.66655 12.8486 8.44151C12.6235 8.21647 12.3183 8.09004 12 8.09004C11.6818 8.09004 11.3765 8.21647 11.1515 8.44151C10.9265 8.66655 10.8 8.97178 10.8 9.29004V11.69H8.40002C8.08176 11.69 7.77654 11.8165 7.5515 12.0415C7.32645 12.2666 7.20002 12.5718 7.20002 12.89C7.20002 13.2083 7.32645 13.5135 7.5515 13.7386C7.77654 13.9636 8.08176 14.09 8.40002 14.09H10.8V16.49C10.8 16.8083 10.9265 17.1135 11.1515 17.3386C11.3765 17.5636 11.6818 17.69 12 17.69C12.3183 17.69 12.6235 17.5636 12.8486 17.3386C13.0736 17.1135 13.2 16.8083 13.2 16.49V14.09H15.6C15.9183 14.09 16.2235 13.9636 16.4486 13.7386C16.6736 13.5135 16.8 13.2083 16.8 12.89C16.8 12.5718 16.6736 12.2666 16.4486 12.0415C16.2235 11.8165 15.9183 11.69 15.6 11.69H13.2V9.29004Z" fill="#FCFDF2"/>
</g>
</svg>
